<svg xmlns="http://www.w3.org/2000/svg" xmlns:xlink="http://www.w3.org/1999/xlink">
  <defs/>
  <g>
    <path stroke="none" fill="#FFFFFF" d="M757.95 70.35 L757.95 78.25 756.95 80.55 756.95 105.45 757.85 107.15 757.85 113.25 759.15 113.25 759.15 114.55 757.85 114.55 757.85 116.55 747.45 116.55 747.45 114.55 746.15 114.55 746.15 113.25 747.45 113.25 747.45 107.15 748.35 105.45 748.35 80.55 747.35 78.25 747.35 70.35 744.85 70.35 744.85 69.25 745.35 69.25 745.35 53.35 759.95 53.35 759.95 69.25 760.45 69.25 760.45 70.35 757.95 70.35 M677 72.75 L680.1 68.9 680.15 68.85 685.7 68.85 685.7 74.75 689.3 74.75 689.3 75.6 687.7 75.6 687.7 77.3 689.3 77.3 689.3 98.1 687.95 98.1 687.95 99.9 689.1 99.9 689.1 101 676.65 101 676.65 100 677.95 100 677.95 98.3 676.65 98.3 676.65 77.35 678.1 77.35 678.1 75.75 676.65 75.75 676.35 74.65 676 77.6 675.1 86.5 673.85 86.5 675.1 72.8 675.1 72.75 677 72.75 M655.2 70.8 L655.6 77.05 658.05 78.85 659.8 82.1 660.65 85.2 660.65 88.4 659.75 91.5 658.05 94.55 655.45 97.85 655.45 99.05 649.25 99.05 649.25 97.85 646.65 94.55 644.95 91.5 644.05 88.4 644.05 85.2 644.9 82.1 646.65 78.85 649.1 77.05 649.25 75.8 645.7 75.8 643.15 87.2 641.85 87.2 644.5 74.6 646.45 74.6 649.5 70.8 655.2 70.8 M721.25 68.85 L721.25 74.6 723.85 74.6 723.85 78.4 723.9 78.4 723.9 78.45 722.5 79.65 722.5 96.05 723.85 97.2 723.8 97.2 723.8 97.25 723.85 97.25 723.85 97.3 723.9 97.3 723.9 101.05 712.95 101.05 712.95 97.25 713 97.25 713.05 97.2 712.95 97.2 714.35 95.95 714.4 95.95 714.4 79.65 714.35 79.65 713 78.45 713.05 78.4 712.95 78.4 712.95 74.6 715.3 74.6 715.3 73.85 711.75 73.85 710.5 86.5 710.55 86.5 710.55 86.6 709.3 86.6 709.3 86.5 709.25 86.5 710.5 72.75 712.4 72.75 715.55 68.85 721.25 68.85 M688.15 163.5 L688.15 190.45 689.8 190.45 689.8 191.5 687.7 191.5 Q690.2 197.2 690.05 202.55 689.9 207.95 688.1 213.35 L689.65 213.35 689.65 214.45 678.45 214.45 678.45 213.35 680 213.35 Q678.2 207.95 678.05 202.55 677.9 197.2 680.4 191.5 L678.3 191.5 678.3 190.45 680 190.45 680 156.25 Q685.65 157.55 688.15 163.5 M653.6 191.5 L651.5 191.5 Q654 197.2 653.85 202.55 653.7 207.95 651.9 213.35 L653.45 213.35 653.45 214.45 642.25 214.45 642.25 213.35 643.8 213.35 Q642 207.95 641.85 202.55 641.7 197.2 644.2 191.5 L642.1 191.5 642.1 190.45 643.75 190.45 643.75 156.45 652 163.35 652 190.45 653.6 190.45 653.6 191.5 M713.85 156.55 L722.1 163.45 722.1 190.55 725.15 190.55 725.15 191.8 722.35 191.8 722.35 208.8 723.45 210.65 723.45 214.45 712.5 214.45 712.5 210.65 712.55 210.65 713.1 209.75 713.65 208.85 713.65 208.8 713.6 208.8 713.6 191.8 710.75 191.8 710.75 190.55 713.85 190.55 713.85 156.55 M742.7 190.65 L745.9 190.65 745.9 156.35 Q751.55 157.65 754.05 163.6 L754.05 190.65 757.15 190.65 757.15 191.9 754.3 191.9 754.3 208.85 755.4 210.65 755.4 214.45 744.45 214.45 744.45 210.65 745.6 208.85 745.6 191.9 742.7 191.9 742.7 190.65 M562.5 109.9 L571.95 109.9 573.2 103.65 582.65 104.7 582.65 99.7 584.55 99.7 584.55 104.7 584.6 104.7 584.6 109.95 590.85 111.75 594.65 111.75 597.8 112.75 597.8 113.7 613.45 110.15 613.45 109.15 615.35 109.15 615.35 110.15 630.1 115 630.35 115.05 631.1 115.3 631.1 122.85 615.35 128 615.35 129 613.45 129 613.45 128.05 602.4 125.55 599.55 124.9 599.1 124.8 597.8 124.5 597.8 125.45 594.65 127 594.65 126.45 590.85 126.45 587.7 127.35 584.55 128.2 577.05 128.2 576.95 135.75 576.35 135.75 576.35 145.7 565 145.7 565 135.75 565.05 135.75 564.4 128.2 562.5 128.2 562.5 130.75 548.65 130.75 548.65 138.95 539.15 138.95 539.15 141.45 538.6 141.45 538.6 160.35 525.95 160.35 525.95 141.45 525.3 135.2 523.4 133.3 523.4 130.75 518.4 130.75 518.4 126.95 514.6 126.95 514.6 125.45 502 127.05 502 128.9 498.2 128.9 498.2 127.1 495.1 126.35 492.45 125.65 492.45 126.95 489.1 126.95 489.1 125.45 485.55 125.45 485.55 126.95 481.8 126.95 469.15 133.2 469.15 137 462.85 137 462.85 101.2 469.15 101.2 469.15 104.9 481.8 111.2 485.55 111.2 485.55 112.65 489.1 112.65 489.1 111.2 492.45 111.2 492.45 112.55 498.2 111.1 498.2 109.2 502 109.2 502 111.05 514.55 112.65 514.6 112.65 514.6 111.2 518.4 111.2 518.4 107.45 562.5 107.45 562.5 109.9 M541.05 132.65 L539.2 133.9 539.15 133.9 539.15 137.05 546.75 137.05 546.75 130.75 541.05 130.75 541.05 132.65 M504.9 188.65 L505 188.7 506.55 189.45 508.05 190.2 508.05 191.2 523.45 187.7 523.45 186.7 525.35 186.7 525.35 187.7 540.15 192.55 540.4 192.6 541.1 192.85 541.1 195.05 541.15 195.05 541.15 198.15 541.1 198.15 541.1 200.35 525.35 205.5 525.35 206.45 523.45 206.45 523.45 205.55 508.05 202.1 508.05 203 505 204.5 504.95 204.55 504.9 204.55 504.9 202 472.85 201.45 472.85 191.75 504.9 191.2 504.9 188.65 M392.55 99.7 L392.55 104.7 392.6 104.7 392.6 109.95 398.85 111.75 402.65 111.75 405.8 112.75 405.8 113.7 421.45 110.15 421.45 109.15 423.35 109.15 423.35 110.15 438.1 115 438.35 115.05 439.1 115.3 439.1 122.85 423.35 128 423.35 129 421.45 129 421.45 128.05 410.4 125.55 407.55 124.9 407.1 124.8 405.8 124.5 405.8 125.45 Q404.25 126.25 402.65 127 L402.65 126.45 398.85 126.45 395.7 127.35 392.55 128.2 385.05 128.2 384.95 135.75 384.35 135.75 384.35 154.65 373 154.65 373 135.75 373.05 135.75 372.4 128.2 370.5 128.2 370.5 130.75 356.65 130.75 356.65 138.95 347.15 138.95 347.15 141.45 346.6 141.45 346.6 160.35 333.95 160.35 333.95 141.45 333.3 135.2 331.4 133.3 331.4 130.75 326.4 130.75 326.4 126.95 322.6 126.95 322.6 125.45 310 127.05 310 128.9 306.2 128.9 306.2 127.1 303.1 126.35 300.45 125.65 300.45 126.95 297.1 126.95 297.1 125.45 293.55 125.45 293.55 126.95 289.8 126.95 277.15 133.2 277.15 137 270.85 137 270.85 101.2 277.15 101.2 277.15 104.9 289.8 111.2 293.55 111.2 293.55 112.65 297.1 112.65 297.1 111.2 300.45 111.2 300.45 112.55 306.2 111.1 306.2 109.2 310 109.2 310 111.05 322.55 112.65 322.6 112.65 322.6 111.2 326.4 111.2 326.4 107.45 370.5 107.45 370.5 109.9 379.95 109.9 381.2 103.65 390.65 104.7 390.65 99.7 392.55 99.7 M349.05 132.65 L347.2 133.9 347.15 133.9 347.15 137.05 354.75 137.05 354.75 130.75 349.05 130.75 349.05 132.65 M363.6 187.3 L363.6 189.85 385.05 189.85 385.05 189.55 386.95 189.55 389.8 191.35 Q395.05 191.6 398.2 194.9 L398.2 196.65 Q397 198.25 395.2 198.95 L395.2 199 Q397 199.65 398.2 201.2 L398.2 203 Q395 206.65 390.05 206.55 L386.95 208.35 386.95 208.4 385.05 208.4 385.05 208.05 375.7 208.05 375.7 215.55 375 215.55 375 228.45 363.65 228.45 363.65 215.55 363.05 215.55 363.05 210.6 349.85 210.6 349.85 218.8 340.4 218.8 340.4 221.3 339.85 221.3 339.85 240.2 327.2 240.2 327.2 221.3 326.55 221.3 326.55 210.6 319.65 210.6 319.65 213.1 307 213.1 307 210.6 269.2 210.6 269.2 187.3 307 187.3 307 184.75 319.65 184.75 319.65 187.3 363.6 187.3 M442.6 191.05 L445.65 192.8 Q450.85 192.4 453.95 196.95 L453.95 198.15 Q450.85 202.7 445.65 202.3 L442.6 204.05 442.6 204.1 440.7 204.1 440.7 201.65 418.65 201.65 418.65 193.45 440.7 193.45 440.7 191 442.6 191 442.6 191.05 M443.35 269.9 L481.2 269.9 481.2 275.85 474.85 276.2 474.85 277.2 478.05 277.2 478.05 284.75 474.85 284.75 474.85 285.75 472.35 285.75 472.35 285.1 470.45 285.1 470.45 285.75 467.9 285.75 467.9 285.1 466 285.1 466 285.75 463.55 285.75 463.55 285.1 461.65 285.1 461.65 285.75 459.1 285.75 459.1 284.2 443.35 284.2 443.35 285 429.55 285 429.55 291.25 419.45 291.25 419.45 285 417.55 285 398.65 291.25 398.65 281.8 398.7 281.8 398.7 281.75 417.55 275.5 417.55 275.55 423.85 269.25 443.35 269.25 443.35 269.9 M421.35 289.4 L427.65 289.4 427.65 285 421.35 285 421.35 289.4 M347.95 210.6 L340.4 210.6 340.4 216.9 347.95 216.9 347.95 210.6 M327.7 276.3 L327.7 277.85 330.85 277.85 330.85 277.25 334 277.25 334 284.8 330.85 284.8 330.85 284.25 327.7 284.25 327.7 285.65 325.2 285.65 325.2 285.15 323.3 285.15 323.3 285.65 320.75 285.65 320.75 285.15 318.9 285.15 318.9 285.65 316.4 285.65 316.4 285.15 314.45 285.15 314.45 285.65 311.95 285.65 311.95 284.95 298.1 284.95 298.1 291.15 288 291.15 288 284.95 286.1 284.95 267.2 291.3 267.2 281.85 286.1 275.5 292.4 269.2 311.7 269.2 311.7 270.75 349.75 270.75 349.75 275.9 327.75 276.25 327.75 276.3 327.7 276.3 M359.75 341.4 L359.75 348.95 361.05 348.95 361.05 350.85 365.3 350.85 365.3 356.2 361.05 356.2 361.05 359.05 332.7 360.95 332.7 360.3 331.45 360.3 331.45 364.7 330.9 364.7 330.9 376.05 315.2 380.4 315.15 380.4 315.15 364.7 314.45 360.95 313.9 360.95 313.9 368.5 304 368.5 301.2 381.75 288.55 381.75 293 360.95 267.2 375.4 267.2 348.95 292.35 348.95 297.45 338.25 327 338.25 331.45 348.95 331.45 349.6 332.7 348.95 354.7 348.95 357.25 341.4 359.75 341.4 M390.55 349 L415.7 349 420.7 338.3 450.35 338.3 452.05 342.3 452.6 343.65 454.8 348.95 454.8 349.65 456.1 349.65 456.1 349 478.05 348.95 480.6 341.4 483.05 341.4 483.05 348.95 483.15 348.95 483.15 349.05 484.4 349 484.4 350.85 488.8 350.85 488.8 351.25 488.85 351.25 488.85 351.65 488.8 351.65 488.8 351.7 488.85 351.7 488.85 352.85 488.8 352.85 488.8 352.9 488.85 352.9 488.85 355.8 488.8 355.8 488.8 356.2 484.4 356.2 484.4 360.35 488.4 360.35 488.4 369.7 485.7 369.7 485.7 372.3 466.8 372.3 466.8 371.1 465.5 371.1 465.5 370.4 456.7 370.4 456.7 364.75 456.05 364.75 456.05 360.35 454.8 360.35 454.8 364.75 454.15 364.75 454.15 376.1 438.5 380.5 438.5 364.75 437.8 361 437.25 361 437.25 368.45 427.35 368.45 424.55 381.7 411.9 381.7 415.75 361 390.55 375.45 390.55 349 M425.8 343.1 L422.6 349 447.8 349 445.1 343.1 425.8 343.1 M427.75 366.55 L435.3 366.55 435.3 361 428.9 361 427.75 366.55 M465.5 364.75 L458.6 364.75 458.6 368.55 465.5 368.55 465.5 364.75 M595.35 263.05 L605.4 263.05 607.5 264.85 607.55 264.9 610.75 264.9 610.75 265.5 623.35 265.5 623.35 264.25 629.65 264.25 629.65 273.75 623.35 273.75 623.35 272.5 610.75 272.5 610.75 274.55 629.7 274.55 631.55 273.9 631.55 276.25 629.7 276.85 610.75 276.85 610.75 277.55 607.65 277.55 607.65 279.55 609.5 279.55 612.15 282 612.2 282 612.2 282.05 612.25 282.1 612.2 282.1 612.2 294 609.55 296.55 591.25 296.55 588.5 294 588.5 282 588.6 282 591.25 279.55 593.15 279.55 593.15 276.25 587.85 276.25 587.85 283.8 577.95 283.8 575.1 297.05 541.1 297.05 541.1 266.15 566.9 266.15 566.9 264.9 593.2 264.9 595.35 263.05 M579.55 276.25 L578.35 281.9 585.9 281.9 585.9 276.25 579.55 276.25 M507.9 198.95 L507.9 198.9 507.85 198.95 507.75 199 507.9 198.95 M563.9 290.7 L566.9 276.25 547.4 276.25 547.4 290.7 563.9 290.7 M235.05 105 L235.05 113.8 197.4 113.8 197.4 113.1 197.3 113.1 197.3 113.15 195.4 113.25 195.4 117.35 171.5 117.35 171.5 124.85 163.25 124.85 163.25 141.2 162.6 141.2 162.6 153.15 163.9 153.15 163.9 154.4 150.05 154.4 150.05 153.15 151.25 153.15 151.25 141.2 149.4 141.2 150.65 117.25 142.8 117.25 134.95 129.85 131.8 129.85 131.8 114.1 133.05 110.95 134.9 110.95 134.9 104.7 135 104.7 135.05 104.6 134.9 104.6 135.55 100.85 138.05 99.6 138.1 99.65 140.55 100.85 140.55 100.9 141.2 104.6 141.25 104.6 141.25 104.7 180.45 104.7 181.65 101.6 183.5 101.6 183.5 104.7 189.75 104.7 191.65 100.9 194.75 100.9 194.75 104.7 194.8 104.7 194.8 105.6 197.4 105.65 197.4 105 235.05 105 M169.6 117.35 L163.25 117.35 163.25 122.95 169.6 122.95 169.6 117.35 M180.25 187.7 L182.15 183.9 185.25 183.9 185.25 187.7 185.35 187.7 185.35 188.6 187.9 188.6 187.9 187.95 219.35 187.95 219.35 196.8 187.9 196.8 187.9 196.25 185.35 196.25 185.35 197.15 182.15 197.15 179 200.35 177.7 200.35 177.7 207.85 169.45 207.85 169.45 224.2 168.8 224.2 168.8 236.1 170.1 236.1 170.1 237.35 156.25 237.35 156.25 236.1 157.45 236.1 157.45 224.2 155.6 224.2 156.85 200.35 153.75 200.35 147.45 197.15 147.45 187.7 148.05 184.45 148.1 183.95 150.6 182.7 153.1 183.95 153.15 184.3 153.2 184.45 153.75 187.7 175.25 187.7 177.15 185.15 178.35 185.15 178.35 187.7 180.25 187.7 M105.95 67.95 L106.35 67.95 Q106.6 65.15 108.05 63.85 L110.05 63.85 Q111.55 65.15 111.8 67.95 L112.2 67.95 112.2 73.85 111.85 74.65 111.85 75.35 112.1 75.35 112.1 76.1 106 76.1 106 75.35 106.3 75.35 106.3 74.65 105.95 73.85 105.95 67.95 M86.35 73.55 L86.35 67.95 86.65 67.95 Q86.65 65.5 88.1 64.2 L89.35 64.2 Q90.75 65.5 90.7 67.95 L91.05 67.95 91.05 73.55 90.8 74.45 90.8 75 91.05 75 91.05 75.8 86.3 75.8 86.3 75 86.6 75 86.6 74.45 86.35 73.55 M147.3 63.1 L147.3 76.05 147.65 76.05 147.65 76.85 142.25 76.85 142.25 76.05 142.55 76.05 142.55 63.1 147.3 63.1 M127.9 61.65 Q129.35 63.9 129.5 67.1 L129.75 67.1 129.75 69.2 130.15 70.6 130.15 76.15 129.8 77 129.8 77.65 130.1 77.65 130.1 78.3 124.95 78.3 124.95 77.65 125.25 77.65 125.25 77 124.9 76.15 124.9 70.6 125.3 69.2 125.3 67.1 125.55 67.1 Q125.65 63.9 127.15 61.65 L127.9 61.65 M40.1 58.8 L41.2 58.8 42.05 60.1 42.8 62.25 43.25 64.8 43.5 65.45 43.5 67.9 43.85 69.9 43.85 79.35 42.8 80.5 43.85 80.5 43.85 81.2 37.45 81.2 37.45 80.5 38.5 80.5 37.45 79.35 37.45 69.9 37.8 67.9 37.8 65.45 38.05 64.8 38.5 62.25 39.25 60.1 40.1 58.8 M66.95 63.85 L67.8 64.8 68.3 66.05 68.65 67.95 68.65 69.15 69.1 69.15 69.1 75.45 68.3 75.45 68.35 76.15 62.15 76.15 62.2 75.45 61.4 75.45 61.4 69.15 61.85 69.15 61.85 67.95 62.2 66.05 62.7 64.8 63.55 63.85 66.95 63.85 M79.7 117.55 L73.35 117.55 73.35 123.15 79.7 123.15 79.7 117.55 M51.35 104.9 L52 101.15 54.5 99.9 55.75 100.55 56.1 100.7 57 101.15 57.65 104.9 79.15 104.9 81 102.4 82.3 102.4 82.3 104.9 84.2 104.9 86.05 101.15 89.25 101.15 89.25 105.9 91.75 105.9 91.75 107.15 95.5 107.15 95.5 112.15 91.75 112.15 91.75 113.45 89.25 113.45 89.25 114.35 86.05 114.35 82.95 117.55 81.6 117.55 81.6 125.05 73.35 125.05 73.35 141.4 72.75 141.4 72.75 153.3 74.05 153.3 74.05 154.55 60.15 154.55 60.15 153.3 61.4 153.3 61.4 141.4 59.5 141.4 60.75 117.55 57.65 117.55 51.35 114.35 51.35 104.9 M38.7 194.1 L40.6 194.1 40.6 187.8 41.25 184.1 43.75 182.85 45 183.5 45.35 183.65 46.3 184.1 46.9 187.8 86.1 187.8 87.35 184.65 89.2 184.65 89.2 187.8 95.45 187.8 97.35 184 100.5 184 100.5 188.75 103.05 188.75 103.05 190 109.35 190 109.35 195 103.05 195 103.05 196.25 101.1 196.25 101.1 200.35 77.2 200.35 77.2 207.9 68.95 207.9 68.95 224.25 68.35 224.25 68.35 236.1 69.65 236.1 69.65 237.35 55.75 237.35 55.75 236.1 57 236.1 57 224.25 55.1 224.25 56.35 200.4 48.45 200.4 40.6 213 37.45 213 37.45 197.25 38.7 194.1 M91.7 111.25 L91.7 111.45 91.75 111.45 91.75 111.25 91.7 111.25 M103.1 194.25 L103.1 194.15 103.05 194.2 103.05 194.25 103.1 194.25 M99.2 277.6 L98.6 277.6 98.6 280.65 79.15 280.75 79.15 288.2 68.9 288.2 64.7 304.4 65.3 304.4 65.3 306.9 65.2 306.9 65.2 307 51.35 307 51.35 304.45 52.05 304.45 58.25 280.65 55.1 280.65 55.1 275.55 53.2 273.75 53.2 271.2 55.1 271.2 55.1 269.95 55.75 269.95 55.75 269.4 99.2 269.4 99.2 277.6 M144.35 269.85 L144.35 269.2 187.8 269.2 187.8 269.85 207.3 269.85 207.3 277.4 187.2 277.4 187.2 280.55 167.75 280.55 167.75 288.1 157.5 288.1 158 286.2 165.8 286.2 165.8 280.55 159.45 280.55 153.25 304.4 153.85 304.4 153.85 306.9 153.8 306.9 153.8 307 139.9 307 139.9 304.45 140.6 304.45 146.85 280.55 143.7 280.55 143.7 275.5 141.85 273.65 141.85 271.1 143.7 271.1 143.7 269.85 144.35 269.85 M75.3 200.45 L68.95 200.45 68.95 206 75.3 206 75.3 200.45 M77.2 280.65 L70.85 280.65 69.45 286.3 77.2 286.3 77.2 280.65 M37.45 355.05 L75.9 355.05 79 351.95 80.25 351.95 80.65 351.95 91.6 351.95 91.6 348.85 85.7 348.5 85.7 348.45 82.6 349.1 82.6 343.45 85.75 343.45 85.75 344.1 91.95 343.75 91.95 342.8 96.3 342.8 96.3 343.55 109.9 342.8 109.85 341.9 114.3 341.9 114.3 342.25 120.55 341.9 120.55 341.25 126.9 341.25 126.9 350.7 120.6 350.7 120.6 350.1 113.65 349.8 113.65 351.95 113.7 351.95 146.75 351.95 147.85 351.95 148.95 351.95 152.05 355.05 152.15 355.05 152.15 357.25 193.05 357.25 193.05 355.05 207.55 355.05 207.55 357.25 208.85 357.25 208.85 359.15 208.8 359.15 208.8 360.05 208.85 360.05 208.85 362.05 208.8 362.05 208.8 362.85 208.85 362.85 208.85 364.85 207.55 364.85 207.55 367.05 193.05 367.05 193.05 364.8 185.45 364.8 185.45 364.85 152.15 364.85 152.15 366.95 147.65 367.05 147.65 369.4 145.15 369.4 142.6 368.8 140.15 369.4 140.05 369.4 137.6 368.8 135.1 369.4 135.05 369.4 132.5 368.8 130.05 369.4 129.95 369.4 127.5 368.8 127.5 369.4 124.95 369.4 124.95 367.05 120.6 367.05 120.6 370.8 119.95 370.8 119.95 382.15 116.1 382.95 116.05 382.95 97.95 386.6 98 370.85 97.35 367.05 96.8 367.05 96.8 374.5 86.9 374.5 84.1 387.75 71.45 387.75 75.8 367.05 58.9 367.05 58.9 379.6 37.45 379.6 37.45 355.05 M43.75 367.05 L43.75 376.4 55.7 376.4 55.7 367.05 43.75 367.05 M110.5 349.8 L94.75 349.35 94.75 351.95 110.5 351.95 110.5 349.8 M88.45 367.05 L87.3 372.6 94.85 372.6 94.85 367.05 88.45 367.05 M289.9 284.95 L289.9 289.3 296.2 289.3 296.2 284.95 289.9 284.95 M175.8 200.35 L169.45 200.35 169.45 205.95 175.8 205.95 175.8 200.35 M302.45 342.95 L299.3 348.95 299.35 348.95 321.45 349 324.4 349 321.8 342.95 302.45 342.95 M312 360.95 L305.65 360.95 304.45 366.6 312 366.6 312 360.95"/>
  </g>
</svg>