<?xml version="1.0" standalone="no"?>
<!DOCTYPE svg PUBLIC "-//W3C//DTD SVG 20010904//EN"
 "http://www.w3.org/TR/2001/REC-SVG-20010904/DTD/svg10.dtd">
<svg version="1.0" xmlns="http://www.w3.org/2000/svg"
 width="32pt" height="32pt" viewBox="0 0 4096.000000 4096.000000"
 preserveAspectRatio="xMidYMid meet">
<metadata>
Created by potrace 1.15, written by Peter Selinger 2001-2017
</metadata>
<g transform="translate(0.000000,4096.000000) scale(0.100000,-0.100000)"
fill="#ffffff" stroke="none">
<path d="M9355 34923 c-60 -15 -326 -107 -430 -147 -404 -160 -825 -412 -1185
-711 -127 -105 -644 -618 -783 -775 -408 -464 -712 -1010 -892 -1606 -87 -288
-133 -512 -165 -814 -11 -106 -27 -219 -35 -250 -13 -51 -15 -1237 -15 -10140
0 -8903 2 -10089 15 -10140 8 -31 24 -144 35 -250 96 -905 463 -1745 1057
-2420 139 -157 656 -670 783 -775 484 -402 1009 -681 1599 -851 l154 -44
10987 0 10987 0 154 44 c622 179 1184 487 1669 913 157 139 670 656 775 783
383 461 659 973 830 1536 87 288 133 512 165 814 11 106 27 219 35 250 13 51
15 1237 15 10140 0 8903 -2 10089 -15 10140 -8 31 -24 144 -35 250 -93 872
-431 1670 -995 2350 -105 127 -618 644 -775 783 -444 390 -931 669 -1525 871
l-150 51 -11120 1 c-6116 1 -11129 -1 -11140 -3z m19625 -3618 c697 -175 1304
-578 1732 -1149 344 -460 540 -960 610 -1561 19 -162 19 -16068 0 -16230 -70
-601 -266 -1101 -610 -1561 -428 -571 -1035 -974 -1732 -1149 l-138 -35 -8362
0 -8362 0 -138 35 c-697 175 -1304 578 -1732 1149 -344 460 -540 960 -610
1561 -19 162 -19 16068 0 16230 70 601 266 1101 610 1561 426 569 1027 969
1727 1149 l130 33 8369 1 8368 1 138 -35z"/>
<path d="M24385 28140 c-201 -30 -359 -140 -443 -308 -52 -104 -65 -170 -60
-296 8 -174 55 -269 218 -436 58 -59 337 -331 620 -605 652 -631 1144 -1123
1775 -1775 724 -749 735 -759 881 -812 73 -26 234 -36 318 -18 199 41 376 211
430 415 26 95 31 276 12 359 -33 140 -69 190 -305 427 -119 119 -380 375 -581
569 -582 564 -899 880 -1433 1430 -789 812 -929 949 -1013 993 -39 20 -100 43
-135 52 -67 15 -198 18 -284 5z"/>
<path d="M19235 27690 c-251 -35 -467 -211 -561 -456 -35 -91 -44 -239 -20
-333 19 -73 63 -166 109 -229 18 -23 549 -545 1182 -1160 632 -614 1233 -1198
1335 -1298 102 -99 419 -407 705 -684 652 -631 914 -893 1545 -1545 277 -286
585 -603 684 -705 100 -102 684 -703 1298 -1335 615 -633 1137 -1164 1160
-1182 110 -81 234 -123 363 -123 290 0 562 221 641 520 23 87 23 254 1 339
-10 35 -34 96 -54 135 -48 93 -83 128 -2033 2021 -2192 2128 -1808 1744 -3935
3935 -1892 1949 -1928 1985 -2021 2033 -39 20 -96 43 -127 51 -73 19 -198 27
-272 16z"/>
</g>
</svg>
