# Created by Kenney (www.kenney.nl)

mtllib balcony_typeA.mtl

g balcony_typeA

v 0.5 0 -0.1418726
v 0.5 0 0.1418726
v -0.5 0 -0.1418726
v -0.5 0 0.1418726
v 0.5 0.2807908 -0.1418726
v 0.5 0.2807908 0.1418726
v -0.5 0.2807908 -0.1418726
v -0.5 0.2807908 0.1418726

vn 0 1 0
vn 0 -1 0
vn -1 0 0
vn 1 0 0
vn 0 0 -1
vn 0 0 1

vt -1 0
vt -1 0.2837453
vt 0 0
vt 0 0.2837453
vt 0 -0.2807908
vt 0 -5.551115E-17
vt 0.2837453 -0.2807908
vt 0.2837453 -5.551115E-17
vt 1.001624 -0.2859029
vt 0.001623678 -0.2859029
vt 1.001624 -0.005112102
vt 0.001623678 -0.005112102

usemtl bars

f 3/3/1 2/2/1 1/1/1
f 2/2/1 3/3/1 4/4/1
f 1/1/2 2/2/2 3/3/2
f 4/4/2 3/3/2 2/2/2
f 2/7/3 5/6/3 1/5/3
f 5/6/3 2/7/3 6/8/3
f 1/5/4 5/6/4 2/7/4
f 6/8/4 2/7/4 5/6/4
f 4/7/3 7/6/3 3/5/3
f 7/6/3 4/7/3 8/8/3
f 3/5/4 7/6/4 4/7/4
f 8/8/4 4/7/4 7/6/4
f 7/11/5 1/10/5 3/9/5
f 1/10/5 7/11/5 5/12/5
f 3/9/6 1/10/6 7/11/6
f 5/12/6 7/11/6 1/10/6

