# Created by Kenney (www.kenney.nl)

mtllib balconyLadder_bottom.mtl

g balconyLadder_bottom

v -0.2071066 1.043388E-16 -0.04187274
v 0.5 0.7192092 -0.04187274
v -0.2071066 1.043388E-16 0.1418726
v 0.5 0.7192092 0.1418726
v -0.5 0 -0.1418726
v -0.5 0.2807908 -0.1418726
v -0.5 0 0.1418726
v -0.5 0.2807908 0.1418726
v 0.5 0 -0.1418726
v 0.5 0.2807908 -0.1418726
v 0.5 0 0
v 0.5 0.2807908 0.1418726
v 0.5 0 0.1418726
v 0 0 0
v 0 0 0.1418726

vn -0.7130809 0.7010817 0
vn 0.7130809 -0.7010817 0
vn -1 0 0
vn 1 0 0
vn 0 1 0
vn 0 -1 0
vn 0 0 -1
vn 0 0 1

vt 6.938894E-16 0
vt -1 0
vt 6.938894E-16 0.1837453
vt -1 0.1837453
vt 0 -0.2807908
vt 0 -5.551115E-17
vt 0.2837453 -0.2807908
vt 0.2837453 -5.551115E-17
vt 0.1418727 -0.2807908
vt -1 0.1418727
vt 0 0
vt -0.5 0.1418727
vt -0.5 0.2837453
vt -0.2928932 0.2837453
vt 0 0.2837453
vt 1.001624 -0.2859029
vt 0.001623678 -0.2859029
vt 1.001624 -0.005112102
vt 0.001623678 -0.005112102

usemtl bars

f 3/3/1 2/2/1 1/1/1
f 2/2/1 3/3/1 4/4/1
f 1/1/2 2/2/2 3/3/2
f 4/4/2 3/3/2 2/2/2
f 7/7/3 6/6/3 5/5/3
f 6/6/3 7/7/3 8/8/3
f 5/5/4 6/6/4 7/7/4
f 8/8/4 7/7/4 6/6/4
f 11/9/3 10/6/3 9/5/3
f 10/6/3 11/9/3 12/8/3
f 12/8/3 11/9/3 13/7/3
f 9/5/4 10/6/4 11/9/4
f 12/8/4 11/9/4 10/6/4
f 13/7/4 11/9/4 12/8/4
f 5/11/5 11/10/5 9/2/5
f 11/10/5 5/11/5 14/12/5
f 14/12/5 5/11/5 15/13/5
f 15/13/5 5/11/5 3/14/5
f 3/14/5 5/11/5 7/15/5
f 9/2/6 11/10/6 5/11/6
f 14/12/6 5/11/6 11/10/6
f 15/13/6 5/11/6 14/12/6
f 3/14/6 5/11/6 15/13/6
f 7/15/6 5/11/6 3/14/6
f 6/18/7 9/17/7 5/16/7
f 9/17/7 6/18/7 10/19/7
f 5/16/8 9/17/8 6/18/8
f 10/19/8 6/18/8 9/17/8

