# Created by Kenney (www.kenney.nl)

mtllib detailBarrier_typeB.mtl

g detailBarrier_typeB

v 0.2164998 0 -0.06699991
v 0.2835002 0 -0.06699991
v 0.2164998 0.3 0
v 0.2835002 0.3 0
v 0.2835002 0 0.06699991
v 0.2164998 0 0.06699991
v -0.2164998 0 0.06699991
v -0.2835002 0 0.06699991
v -0.2164998 0.3 0
v -0.2835002 0.3 0
v -0.2835002 0 -0.06699991
v -0.2164998 0 -0.06699991
v -0.2164998 0.2 0
v 0.2164998 0.2 0

vn 0 0.2179637 -0.9759569
vn 0 -0.2179637 0.9759569
vn 0 0.2179637 0.9759569
vn 0 -0.2179637 -0.9759569
vn 0 0 -1
vn 0 0 1

vt -0.2165 -0.01460357
vt -0.2835 -0.01460357
vt -0.2165 0.2927871
vt -0.2835 0.2927871
vt 0.2835 -0.01460357
vt 0.2165 -0.01460357
vt 0.2835 0.2927871
vt 0.2165 0.2927871
vt 0.6011307 -0.1358139
vt 0.02988146 -0.1358139
vt 0.6011307 -0.003885728
vt 0.02988148 -0.003885728

usemtl metal

f 3/3/1 2/2/1 1/1/1
f 2/2/1 3/3/1 4/4/1
f 1/1/2 2/2/2 3/3/2
f 4/4/2 3/3/2 2/2/2
f 4/7/3 6/6/3 5/5/3
f 6/6/3 4/7/3 3/8/3
f 5/5/4 6/6/4 4/7/4
f 3/8/4 4/7/4 6/6/4
f 9/3/3 8/2/3 7/1/3
f 8/2/3 9/3/3 10/4/3
f 7/1/4 8/2/4 9/3/4
f 10/4/4 9/3/4 8/2/4
f 10/7/1 12/6/1 11/5/1
f 12/6/1 10/7/1 9/8/1
f 11/5/2 12/6/2 10/7/2
f 9/8/2 10/7/2 12/6/2

usemtl signs

f 9/11/5 14/10/5 13/9/5
f 14/10/5 9/11/5 3/12/5
f 13/9/6 14/10/6 9/11/6
f 3/12/6 9/11/6 14/10/6

