# Created by Kenney (www.kenney.nl)

mtllib detailLight_single.mtl

g detailLight_single

v 0.0230999 0.96 -0.0230999
v 0.0230999 0.9538104 0
v -0.0230999 0.96 -0.0230999
v -0.0230999 0.9538104 0
v 0.0230999 0.9369 0.01691031
v -0.0230999 0.9369 0.01691031
v -0.0230999 0.9138 0.0230999
v 0.0230999 0.9138 0.0230999
v 0 0.96 -0.2211001
v -0.0230999 0.96 -0.08909988
v -0.03464985 0.96 -0.2046001
v -0.03464985 0.96 -0.1551001
v 0.0230999 0.96 -0.08909988
v 0.03464985 0.96 -0.1551001
v 0.03464985 0.96 -0.2046001
v 0.03464985 0.9138 -0.1551001
v 0.0230999 0.9138 -0.08909988
v 0.03464985 0.9138 -0.2046001
v 0 0.9138 -0.2211001
v -0.0230999 0.9138 -0.08909988
v -0.03464985 0.9138 -0.2046001
v -0.03464985 0.9138 -0.1551001
v -0.0230999 0.9138 -0.0230999
v 0.0230999 0.9138 -0.0230999
v 0.0230999 0.2445543 0.0230999
v -0.0230999 0.2445543 0.0230999
v -0.0230999 0.2445543 -0.0230999
v 0.0230999 0.2445543 -0.0230999
v 0.04309988 0 0.04309988
v 0.04309988 0 -0.04309988
v -0.04309988 0 0.04309988
v -0.04309988 0 -0.04309988
v -0.04309988 0.2445543 -0.04309988
v 0.04309988 0.2445543 -0.04309988
v 0.04309988 0.2445543 0.04309988
v -0.04309988 0.2445543 0.04309988

vn 0 0.9659258 0.258819
vn 0 0.8660254 0.5
vn 0 0.5 0.8660254
vn 0 0.258819 0.9659258
vn 0 1 0
vn 0.9962506 0 0.08651455
vn 0.9850305 0 0.1723803
vn 0 -1 0
vn 0 0 1
vn 0 0 -1
vn 0.8455571 0 -0.533885
vn -0.8455571 0 -0.533885
vn -0.9962506 0 0.08651455
vn -0.9850305 0 0.1723803
vn 1 0 0
vn -1 0 0

vt 0.07257079 -3.469447E-18
vt 0.04838053 -3.469447E-18
vt 0.07257079 0.0462
vt 0.04838053 0.0462
vt 0.02419026 -2.88658E-15
vt 0.02419026 0.0462
vt 3.330669E-16 0.0462
vt 3.330669E-16 -3.469447E-18
vt -1.443823E-15 -0.2211
vt 0.0231 -0.0891
vt 0.03465 -0.2046
vt 0.03465 -0.1551
vt 0.0231 -0.0231
vt -0.0231 -0.0231
vt -0.0231 -0.0891
vt -0.03465 -0.1551
vt -0.03465 -0.2046
vt 0.1587512 0.96
vt 0.1587512 0.9138
vt 0.0917482 0.96
vt 0.0917482 0.9138
vt 1.443823E-15 -0.2211
vt 0.0231 0.2445543
vt -0.0231 0.2445543
vt 0.0231 0.9138
vt -0.0231 0.9138
vt 0.0431 0.0431
vt 0.0431 -0.0431
vt -0.0431 0.0431
vt -0.0431 -0.0431
vt 0.2046 0.96
vt 0.2046 0.9138
vt 0.1551 0.96
vt 0.1551 0.9138
vt -0.2046 0.9138
vt -0.2046 0.96
vt -0.1551 0.9138
vt -0.1551 0.96
vt -0.1587512 0.9138
vt -0.1587512 0.96
vt -0.0917482 0.9138
vt -0.0917482 0.96
vt -0.05668029 0.9138
vt -0.09505831 0.9138
vt -0.05668029 0.96
vt -0.09505831 0.96
vt 0.09505831 0.9138
vt 0.05668029 0.9138
vt 0.09505831 0.96
vt 0.05668029 0.96
vt 0.0891 0.96
vt 0.0891 0.9138
vt 0.0231 0.96
vt 1.804779E-16 0.9538104
vt -0.01691037 0.9369
vt -0.0231 0.96
vt -1.804779E-16 0.9538104
vt 0.01691037 0.9369
vt -0.0891 0.96
vt -0.0891 0.9138
vt 0.0431 0
vt -0.0431 0
vt 0.0431 0.2445543
vt -0.0431 0.2445543
vt 0.0231 0.0231
vt -0.0231 0.0231

usemtl metal

f 3/3/1 2/2/2 1/1/1
f 2/2/2 3/3/1 4/4/2
f 4/4/2 5/5/3 2/2/2
f 5/5/3 4/4/2 6/6/3
f 7/7/4 5/5/3 6/6/3
f 5/5/3 7/7/4 8/8/4
f 11/11/5 10/10/5 9/9/5
f 10/10/5 11/11/5 12/12/5
f 3/13/5 9/9/5 10/10/5
f 1/14/5 9/9/5 3/13/5
f 13/15/5 9/9/5 1/14/5
f 14/16/5 9/9/5 13/15/5
f 9/9/5 14/16/5 15/17/5
f 13/20/7 16/19/6 14/18/6
f 16/19/6 13/20/7 17/21/7
f 17/10/8 18/11/8 16/12/8
f 18/11/8 17/10/8 19/22/8
f 19/22/8 17/10/8 20/15/8
f 19/22/8 20/15/8 21/17/8
f 21/17/8 20/15/8 22/16/8
f 17/10/8 23/14/8 20/15/8
f 23/14/8 17/10/8 24/13/8
f 8/25/9 26/24/9 25/23/9
f 26/24/9 8/25/9 7/26/9
f 23/25/10 28/24/10 27/23/10
f 28/24/10 23/25/10 24/26/10
f 31/29/8 30/28/8 29/27/8
f 30/28/8 31/29/8 32/30/8
f 14/33/6 18/32/11 15/31/11
f 18/32/11 14/33/6 16/34/6
f 22/37/13 11/36/12 21/35/12
f 11/36/12 22/37/13 12/38/13
f 20/41/14 12/40/13 22/39/13
f 12/40/13 20/41/14 10/42/14
f 11/45/12 19/44/10 21/43/12
f 19/44/10 11/45/12 9/46/10
f 9/49/10 18/48/11 19/47/10
f 18/48/11 9/49/10 15/50/11
f 1/53/15 17/52/15 13/51/15
f 17/52/15 1/53/15 24/25/15
f 24/25/15 1/53/15 2/54/15
f 24/25/15 2/54/15 28/23/15
f 28/23/15 2/54/15 25/24/15
f 25/24/15 2/54/15 5/55/15
f 25/24/15 5/55/15 8/26/15
f 26/23/16 23/26/16 27/24/16
f 23/26/16 26/23/16 3/56/16
f 3/56/16 26/23/16 4/57/16
f 4/57/16 26/23/16 6/58/16
f 6/58/16 26/23/16 7/25/16
f 10/59/16 23/26/16 3/56/16
f 23/26/16 10/59/16 20/60/16
f 33/63/10 30/62/10 32/61/10
f 30/62/10 33/63/10 34/64/10
f 34/30/5 28/14/5 35/29/5
f 28/14/5 34/30/5 33/28/5
f 28/14/5 33/28/5 27/13/5
f 27/13/5 33/28/5 26/65/5
f 25/66/5 35/29/5 28/14/5
f 35/29/5 25/66/5 36/27/5
f 36/27/5 25/66/5 26/65/5
f 36/27/5 26/65/5 33/28/5
f 31/61/16 33/64/16 32/62/16
f 33/64/16 31/61/16 36/63/16
f 35/64/15 30/61/15 34/63/15
f 30/61/15 35/64/15 29/62/15
f 35/63/9 31/62/9 29/61/9
f 31/62/9 35/63/9 36/64/9

