# Created by Kenney (www.kenney.nl)

mtllib detailLight_traffic.mtl

g detailLight_traffic

v 0.0230999 0.96 -0.0230999
v 0.0230999 0.9538104 0
v -0.0230999 0.96 -0.0230999
v -0.0230999 0.9538104 0
v 0.0230999 0.9369 0.01691031
v -0.0230999 0.9369 0.01691031
v -0.0230999 0.9138 0.0230999
v 0.0230999 0.9138 0.0230999
v 0 0.96 -0.4910147
v 0.0230999 0.96 -0.5410147
v -0.0230999 0.96 -0.5410147
v -0.0230999 0.96 -0.4910147
v 0 0.96 -0.381391
v -0.0230999 0.96 -0.381391
v 0.0230999 0.2445543 0.0230999
v -0.0230999 0.2445543 0.0230999
v -0.0230999 0.2445543 -0.0230999
v 0.0230999 0.2445543 -0.0230999
v -0.0230999 0.9138 -0.0230999
v 0.0230999 0.9138 -0.0230999
v 0.04309988 0 0.04309988
v 0.04309988 0 -0.04309988
v -0.04309988 0 0.04309988
v -0.04309988 0 -0.04309988
v -0.0230999 0.9138 -0.5410147
v 0 0.9138 -0.4910147
v 0.0230999 0.9138 -0.5410147
v 0 0.9138 -0.381391
v -0.0230999 0.9138 -0.4910147
v -0.0230999 0.9138 -0.381391
v -0.04309988 0.2445543 -0.04309988
v 0.04309988 0.2445543 -0.04309988
v 0.04309988 0.2445543 0.04309988
v -0.04309988 0.2445543 0.04309988
v 0 1.01 -0.4910147
v 0 1.01 -0.381391
v -0.0230999 1.01 -0.4910147
v -0.0230999 1.01 -0.381391
v 0 0.8638 -0.381391
v 0 0.8638 -0.4910147
v -0.0230999 0.8638 -0.381391
v -0.0230999 0.8638 -0.4910147
v -0.0230999 1.04 -0.4910147
v -0.0230999 1.04 -0.381391
v -0.06309986 1.04 -0.4910147
v -0.06309986 1.04 -0.381391
v -0.1131001 1.04 -0.4910147
v -0.1131001 1.04 -0.381391
v -0.06309986 0.9369 -0.4910147
v -0.1131001 0.9884501 -0.4910147
v -0.0230999 0.8338 -0.4910147
v -0.06309986 0.8338 -0.4910147
v -0.06309986 0.8338 -0.381391
v -0.06309986 0.9369 -0.381391
v -0.0230999 0.8338 -0.381391
v -0.1131001 0.9884501 -0.381391

vn 0 0.9659258 0.258819
vn 0 0.8660254 0.5
vn 0 0.5 0.8660254
vn 0 0.258819 0.9659258
vn 0 1 0
vn 0 0 1
vn 0 0 -1
vn 0 -1 0
vn 1 0 0
vn -1 0 0

vt 0.07257079 -3.469447E-18
vt 0.04838053 -3.469447E-18
vt 0.07257079 0.0462
vt 0.04838053 0.0462
vt 0.02419026 -2.88658E-15
vt 0.02419026 0.0462
vt 3.330669E-16 0.0462
vt 3.330669E-16 -3.469447E-18
vt -0.0231 -0.0231
vt 0 -0.4910147
vt -0.0231 -0.5410147
vt 0.0231 -0.5410147
vt 0.0231 -0.4910147
vt 0 -0.381391
vt 0.0231 -0.0231
vt 0.0231 -0.381391
vt 0.0231 0.2445543
vt -0.0231 0.2445543
vt 0.0231 0.9138
vt -0.0231 0.9138
vt 0.0431 0.0431
vt 0.0431 -0.0431
vt -0.0431 0.0431
vt -0.0431 -0.0431
vt -0.0231 -0.4910147
vt -0.0231 -0.381391
vt 0.5410147 0.96
vt 0.5410147 0.9138
vt 0.0231 0.96
vt 1.804779E-16 0.9538104
vt -0.01691037 0.9369
vt 0.0431 0
vt -0.0431 0
vt 0.0431 0.2445543
vt -0.0431 0.2445543
vt 0.0231 0.0231
vt -0.0231 0.0231
vt -0.0231 0.96
vt 0 0.96
vt 0 1.01
vt -0.0231 1.01
vt 0.4910147 1.01
vt 0.4910147 0.96
vt 0.381391 1.01
vt 0.381391 0.96
vt 0.0231 1.01
vt 0.0231 0.8638
vt 0 0.8638
vt 0 0.9138
vt 0.4910147 0.9138
vt 0.4910147 0.8638
vt 0.381391 0.9138
vt 0.381391 0.8638
vt -0.0231 0.8638
vt -0.5410147 0.9138
vt -0.5410147 0.96
vt -0.4910147 0.9138
vt -0.4910147 0.96
vt -1.804779E-16 0.9538104
vt 0.01691037 0.9369
vt -0.381391 0.96
vt -0.381391 0.9138
vt 0.2543292 0.8637554
vt 0.3639529 0.8637554
vt 0.2543292 0.8237554
vt 0.3639529 0.8237554
vt 0.2543292 0.7737554
vt 0.3639529 0.7737554
vt 0.2743292 0.7206554
vt 0.2743292 0.8237554
vt 0.3243292 0.7722054
vt 0.3243292 0.8237554
vt 0.2343292 0.7437554
vt 0.2343292 0.6975554
vt 0.2343292 0.6475554
vt 0.2343292 0.6175554
vt 0.2743292 0.6175554
vt 0.2343292 0.7937554
vt 0.2343292 0.8237554
vt 0.3043292 0.7722054
vt 0.2543292 0.7206554
vt 0.3043292 0.8237554
vt 0.2543292 0.6175554
vt 0.3639529 0.6175554
vt 0.3639529 0.7206554
vt 0.3839529 0.6175554
vt 0.343953 0.6175554
vt 0.3839529 0.6475554
vt 0.343953 0.7206554
vt 0.3839529 0.6975554
vt 0.3839529 0.7437554
vt 0.343953 0.8237554
vt 0.3839529 0.7937554
vt 0.3839529 0.8237554
vt 0.2939529 0.7722054
vt 0.2939529 0.8237554
vt 0.3639529 0.5775554
vt 0.2543292 0.5775554
vt 0.4935767 0.8237554
vt 0.4935767 0.7937554
vt 0.4935767 0.6475554
vt 0.4935767 0.6175554

usemtl metal

f 3/3/1 2/2/2 1/1/1
f 2/2/2 3/3/1 4/4/2
f 4/4/2 5/5/3 2/2/2
f 5/5/3 4/4/2 6/6/3
f 7/7/4 5/5/3 6/6/3
f 5/5/3 7/7/4 8/8/4
f 10/11/5 9/10/5 1/9/5
f 9/10/5 10/11/5 11/12/5
f 9/10/5 11/12/5 12/13/5
f 13/14/5 1/9/5 9/10/5
f 1/9/5 13/14/5 3/15/5
f 3/15/5 13/14/5 14/16/5
f 8/19/6 16/18/6 15/17/6
f 16/18/6 8/19/6 7/20/6
f 19/19/7 18/18/7 17/17/7
f 18/18/7 19/19/7 20/20/7
f 23/23/8 22/22/8 21/21/8
f 22/22/8 23/23/8 24/24/8
f 27/12/8 26/10/8 25/11/8
f 26/10/8 27/12/8 28/14/8
f 25/11/8 26/10/8 29/25/8
f 27/12/8 19/9/8 28/14/8
f 19/9/8 27/12/8 20/15/8
f 28/14/8 19/9/8 30/26/8
f 1/29/9 27/28/9 10/27/9
f 27/28/9 1/29/9 20/19/9
f 20/19/9 1/29/9 2/30/9
f 20/19/9 2/30/9 18/17/9
f 18/17/9 2/30/9 15/18/9
f 15/18/9 2/30/9 5/31/9
f 15/18/9 5/31/9 8/20/9
f 31/34/7 22/33/7 24/32/7
f 22/33/7 31/34/7 32/35/7
f 32/24/5 18/9/5 33/23/5
f 18/9/5 32/24/5 31/22/5
f 18/9/5 31/22/5 17/15/5
f 17/15/5 31/22/5 16/36/5
f 15/37/5 33/23/5 18/9/5
f 33/23/5 15/37/5 34/21/5
f 34/21/5 15/37/5 16/36/5
f 34/21/5 16/36/5 31/22/5
f 23/32/10 31/35/10 24/33/10
f 31/35/10 23/32/10 34/34/10
f 33/35/9 22/32/9 32/34/9
f 22/32/9 33/35/9 21/33/9
f 33/34/6 23/33/6 21/32/6
f 23/33/6 33/34/6 34/35/6
f 11/29/7 27/20/7 25/19/7
f 27/20/7 11/29/7 10/38/7
f 25/19/6 27/20/6 11/29/6
f 10/38/6 11/29/6 27/20/6
f 37/13/5 36/14/5 35/10/5
f 36/14/5 37/13/5 38/16/5
f 36/40/6 14/38/6 13/39/6
f 14/38/6 36/40/6 38/41/6
f 36/44/9 9/43/9 35/42/9
f 9/43/9 36/44/9 13/45/9
f 37/46/7 9/39/7 12/29/7
f 9/39/7 37/46/7 35/40/7
f 41/26/8 40/10/8 39/14/8
f 40/10/8 41/26/8 42/25/8
f 29/19/7 40/48/7 42/47/7
f 40/48/7 29/19/7 26/49/7
f 28/52/9 40/51/9 26/50/9
f 40/51/9 28/52/9 39/53/9
f 28/49/6 41/54/6 39/48/6
f 41/54/6 28/49/6 30/20/6
f 29/57/10 11/56/10 25/55/10
f 11/56/10 29/57/10 12/58/10
f 16/17/10 19/20/10 17/18/10
f 19/20/10 16/17/10 3/38/10
f 3/38/10 16/17/10 4/59/10
f 4/59/10 16/17/10 6/60/10
f 6/60/10 16/17/10 7/19/10
f 14/61/10 19/20/10 3/38/10
f 19/20/10 14/61/10 30/62/10

usemtl roof

f 45/65/5 44/64/5 43/63/5
f 44/64/5 45/65/5 46/66/5
f 47/67/5 46/66/5 45/65/5
f 46/66/5 47/67/5 48/68/5
f 50/71/7 45/70/7 49/69/7
f 45/70/7 50/71/7 47/72/7
f 12/73/7 49/69/7 45/70/7
f 29/74/7 49/69/7 12/73/7
f 42/75/7 49/69/7 29/74/7
f 51/76/7 49/69/7 42/75/7
f 49/69/7 51/76/7 52/77/7
f 12/73/7 45/70/7 37/78/7
f 37/78/7 45/70/7 43/79/7
f 49/81/6 45/65/6 50/80/6
f 47/82/6 50/80/6 45/65/6
f 53/84/10 49/81/10 52/83/10
f 49/81/10 53/84/10 45/65/10
f 45/65/10 53/84/10 46/66/10
f 46/66/10 53/84/10 54/85/10
f 45/65/8 46/66/8 47/67/8
f 48/68/8 47/67/8 46/66/8
f 41/88/6 53/87/6 55/86/6
f 53/87/6 41/88/6 54/89/6
f 54/89/6 41/88/6 30/90/6
f 54/89/6 30/90/6 14/91/6
f 54/89/6 14/91/6 46/92/6
f 46/92/6 14/91/6 38/93/6
f 46/92/6 38/93/6 44/94/6
f 46/92/6 56/95/6 54/89/6
f 56/95/6 46/92/6 48/96/6
f 54/89/7 56/95/7 46/92/7
f 48/96/7 46/92/7 56/95/7
f 53/84/8 51/98/8 55/97/8
f 51/98/8 53/84/8 52/83/8
f 44/94/9 37/100/9 43/99/9
f 37/100/9 44/94/9 38/93/9
f 41/88/9 51/102/9 42/101/9
f 51/102/9 41/88/9 55/86/9

