# Created by Kenney (www.kenney.nl)

mtllib detailBarrierStrong_damaged.mtl

g detailBarrierStrong_damaged

v -0.3319998 0.083 -0.1245
v 0.3319998 0.083 -0.1245
v -0.3319998 0.166 -0.09586501
v 0.3319998 0.166 -0.09586501
v -0.1649656 0.166 -0.09586501
v -0.3319998 0 -0.1245
v 0.3319998 0 -0.1245
v 0.3319998 0.332 -0.07285738
v 0.3319998 0.332 0.07285738
v 0.174993 0.332 -0.07285738
v 0.174993 0.332 0.07285738
v 0.09766483 0.2691945 -0.08156228
v 0.09766483 0.2691945 0.08156228
v 0.3319998 0 0.1245
v -0.3319998 0 0.1245
v 0.3319998 0.166 0.09586501
v 0.3319998 0.083 0.1245
v -0.3319998 0.083 0.1245
v -0.3319998 0.166 0.09586501
v -0.1649656 0.166 0.09586501
v -0.002335072 0.2691945 -0.08156228
v -0.002335072 0.2691945 0.08156228

vn 0 0.3261364 -0.9453228
vn 0 0 -1
vn 0 1 0
vn -0.3435048 0.9391508 0
vn -0.3249298 0.9457381 0
vn 0 -1 0
vn 1 0 0
vn 0 0 1
vn 0 0.3261364 0.9453228
vn 0 0.1372876 -0.9905313
vn 0 0.1372876 0.9905313
vn -0.2853853 0.9584128 0
vn -0.2722141 0.9622366 0
vn -1 0 0

vt 5 0.125
vt 4 0.125
vt 5 0.25723
vt 4 0.25723
vt 4.748443 0.25723
vt 4.999999 0
vt 3.999998 0
vt 4.999999 0.1249999
vt 3.999998 0.1249999
vt 5 0.5096194
vt 5 0.7290694
vt 5.236456 0.5096194
vt 5.236456 0.7290694
vt 5.386487 0.4965096
vt 5.386487 0.742179
vt 4 -0.375
vt 4 2.775558E-17
vt 5 -0.375
vt 5 2.775558E-17
vt 4 5.624828E-23
vt 3.956875 0.25
vt 3.625 3.353417E-08
vt 3.922225 0.5
vt 3.668125 0.25
vt 3.702775 0.5
vt 3.625 0.125
vt 4.251557 0.25723
vt 5.748443 0.2572294
vt 5 0.2572296
vt 5.503517 0.4141285
vt 5.352915 0.4141285
vt 6 0.2572294
vt 5.251558 0.2572295
vt 6 0.5096192
vt 5.647086 0.4141285
vt 5.763544 0.5096192
vt 5.496483 0.4141285
vt 5.503517 0.4965096
vt 5.503517 0.742179
vt 5.793589 0.4749692
vt 5.79359 0.7637192
vt 5.352915 0.742179
vt 5.352915 0.4965096
vt 5 -1.687448E-22
vt 5.375 -3.353416E-08
vt 5.043125 0.25
vt 5.331875 0.25
vt 5.375 0.125
vt 5.748443 0.4749692
vt 5.748443 0.7637193
vt 6 0.4749692
vt 6 0.7637192

usemtl concrete

f 3/3/1 2/2/1 1/1/1
f 2/2/1 3/3/1 4/4/1
f 4/4/1 3/3/1 5/5/1
f 1/8/2 7/7/2 6/6/2
f 7/7/2 1/8/2 2/9/2
f 10/12/4 9/11/3 8/10/3
f 9/11/3 10/12/4 11/13/4
f 12/14/5 11/13/4 10/12/4
f 11/13/4 12/14/5 13/15/5
f 15/18/6 7/17/6 14/16/6
f 7/17/6 15/18/6 6/19/6
f 4/21/7 7/20/7 2/2/7
f 7/20/7 4/21/7 14/22/7
f 14/22/7 4/21/7 8/23/7
f 14/22/7 8/23/7 16/24/7
f 16/24/7 8/23/7 9/25/7
f 14/22/7 16/24/7 17/26/7
f 17/8/8 15/7/8 14/6/8
f 15/7/8 17/8/8 18/9/8
f 16/3/9 18/2/9 17/1/9
f 18/2/9 16/3/9 19/4/9
f 19/4/9 16/3/9 20/27/9
f 21/30/10 4/29/10 5/28/10
f 4/29/10 21/30/10 12/31/10
f 4/29/10 12/31/10 8/10/10
f 8/10/10 12/31/10 10/12/10
f 9/34/11 20/33/11 16/32/11
f 20/33/11 9/34/11 13/35/11
f 13/35/11 9/34/11 11/36/11
f 22/37/11 20/33/11 13/35/11
f 5/40/13 22/39/12 21/38/12
f 22/39/12 5/40/13 20/41/13
f 13/42/5 21/38/12 22/39/12
f 21/38/12 13/42/5 12/43/5
f 15/45/14 1/1/14 6/44/14
f 1/1/14 15/45/14 3/46/14
f 3/46/14 15/45/14 19/47/14
f 19/47/14 15/45/14 18/48/14
f 3/51/3 20/50/13 5/49/13
f 20/50/13 3/51/3 19/52/3

