# Created by Kenney (www.kenney.nl)

mtllib detailBricks_typeA.mtl

g detailBricks_typeA

v 0.2852697 0 -0.1671293
v 0.2852697 0 -0.2671292
v 0.08526993 0 -0.1671293
v 0.08526993 0 -0.2671292
v 0.2852697 0.1 -0.2671292
v 0.2852697 0.1 -0.1671293
v 0.08526993 0.1 -0.2671292
v 0.08526993 0.1 -0.1671293
v 0.2474589 0 -0.04805589
v 0.09137297 0 0.07699251
v 0.2474589 0.1 -0.04805589
v 0.09137297 0.1 0.07699251
v 0.1319275 0.1 0.04450226
v 0.114079 0.1 0.05880165
v 0.02884865 0 -0.001050472
v 0.1849346 0 -0.1260991
v 0.02884865 0.1 -0.001050472
v 0.1849346 0.1 -0.1260991
v 0.07896137 0.1 -0.04119849
v 0.07679939 0.1 0.05880165
v 0.1319275 0.1 -0.04119849
v 0.1319275 0.1 0.05880165
v -0.06807232 0.1 -0.04119849
v -0.06807232 0.2 -0.04119849
v -0.06807232 0.1 0.05880165
v -0.06807232 0.2 0.05880165
v -0.04889631 0.1 -0.04119849
v 0.1319275 0.2 -0.04119849
v 0.1319275 0.2 0.05880165
v -0.05875301 0.1 0.05880165
v -0.02455664 0.1 0.04963875
v -0.07632065 0.1 -0.1435466
v -0.1211491 0.1 0.07552052
v -0.1729131 0.1 -0.1176646
v -0.02455664 0 0.04963875
v -0.07632065 0 -0.1435466
v -0.1211491 0 0.07552052
v -0.1729131 0 -0.1176646
v -0.06206465 0.1 0.1805267
v -0.1120648 0.1 0.2671292
v -0.23527 0.1 0.08052659
v -0.2852697 0.1 0.1671293
v -0.23527 0 0.08052659
v -0.06206465 0 0.1805267
v -0.2852697 0 0.1671293
v -0.1120648 0 0.2671292

vn 0 -1 0
vn 0 1 0
vn 1 0 0
vn 0 0 -1
vn -1 0 0
vn 0 0 1
vn 0.6252427 0 0.7804304
vn -0.6252427 0 -0.7804304
vn 0.7804304 0 -0.6252427
vn -0.7804304 0 0.6252427
vn 0.258819 0 0.9659258
vn -0.258819 0 -0.9659258
vn 0.9659258 0 -0.258819
vn -0.9659258 0 0.258819
vn 0.5 0 -0.8660254
vn -0.8660254 0 -0.5
vn -0.5 0 0.8660254
vn 0.8660254 0 0.5

vt 8 -0.248141
vt 8 -1.110223E-16
vt 8.496282 -0.248141
vt 8.496282 -1.110223E-16
vt 8 0.2481409
vt 8 0.4962819
vt 8.496283 0.2481407
vt 8.496283 0.4962817
vt 8 8.639736E-20
vt 7.751859 0.2481412
vt 7.751859 2.765768E-07
vt 8.49628 0
vt 7.999994 0
vt 8.496281 0.2481407
vt 7.999994 0.2481407
vt 8.496282 -7.506829E-20
vt 8.744423 -2.765764E-07
vt 8.744423 0.2481405
vt 8 0.7444229
vt 8.496283 0.7444228
vt 8.367337 0.4962818
vt 8.424088 0.4962818
vt 8.496282 -9.986391E-18
vt 7.999995 -9.986391E-18
vt 8.496282 0.2481407
vt 7.999995 0.2481407
vt 8.336945 0.2481407
vt 8 8.082547E-20
vt 8.496282 -1.23443E-16
vt 8.686584 0.2481405
vt 8 -4.857226E-17
vt 8.496282 -3.330669E-16
vt 8.496283 0.4384427
vt 8.234374 0.3303167
vt 8.336946 0.2481408
vt 8 -0.2126584
vt 8.04429 -0.248141
vt 8.496282 8.326673E-17
vt 8.496284 -8.326673E-17
vt 8.4487 -8.326673E-17
vt 8.496284 0.2481408
vt 8.131429 -8.326673E-17
vt 7.999997 -8.326673E-17
vt 7.999997 0.2481408
vt 8.04429 0.7444229
vt 8.136796 0.7444229
vt 8.473158 0.7444228
vt 8 -5.551115E-17
vt 7.787342 2.370281E-07
vt 8.255781 -0.09962357
vt 8.388302 -0.2254041
vt 8.136796 -0.248141
vt 8.473157 -0.248141
vt 8.448699 -1.387779E-17
vt 8.131431 -1.387779E-17
vt 8.262927 0.4962818
vt 8.250611 0.4503199
vt 8.490297 0.3860961
vt 8.496283 0.4084332
vt 8 4.996004E-16
vt 8.496282 1.689248E-18
vt 8.656574 0.2481406
vt 8 8.067989E-20
vt 7.999997 0
vt 7.999997 0.2481408
vt 8.496283 0
vt 8.496284 0.2481408
vt 8.496285 0
vt 7.999999 0
vt 8.496286 0.2481409
vt 8 0.2481409
vt 8.496282 -7.443302E-20
vt 8 -5.551115E-16
vt 8.496282 7.21645E-16
vt 8 8.798555E-20

usemtl concrete

f 3/3/1 2/2/1 1/1/1
f 2/2/1 3/3/1 4/4/1
f 7/7/2 6/6/2 5/5/2
f 6/6/2 7/7/2 8/8/2
f 6/10/3 2/9/3 5/5/3
f 2/9/3 6/10/3 1/11/3
f 7/14/4 2/13/4 4/12/4
f 2/13/4 7/14/4 5/15/4
f 3/17/5 7/7/5 4/16/5
f 7/7/5 3/17/5 8/18/5
f 6/6/6 3/20/6 1/19/6
f 3/20/6 6/6/6 8/8/6
f 11/6/7 10/20/7 9/19/7
f 10/20/7 11/6/7 12/8/7
f 12/8/7 11/6/7 13/21/7
f 12/8/7 13/21/7 14/22/7
f 17/25/8 16/24/8 15/23/8
f 16/24/8 17/25/8 18/26/8
f 18/26/8 17/25/8 19/27/8
f 11/10/9 16/28/9 18/5/9
f 16/28/9 11/10/9 9/11/9
f 10/17/10 17/7/10 15/29/10
f 17/7/10 10/17/10 20/30/10
f 20/30/10 10/17/10 12/18/10
f 10/3/1 16/31/1 9/1/1
f 16/31/1 10/3/1 15/32/1
f 20/33/2 12/8/2 14/22/2
f 19/35/2 21/34/2 18/5/2
f 13/21/2 18/5/2 21/34/2
f 18/5/2 13/21/2 11/6/2
f 14/37/1 13/36/1 22/1/1
f 25/17/5 24/7/5 23/38/5
f 24/7/5 25/17/5 26/18/5
f 24/41/4 27/40/4 23/39/4
f 27/40/4 24/41/4 19/42/4
f 19/42/4 24/41/4 21/43/4
f 21/43/4 24/41/4 28/44/4
f 29/6/6 14/45/6 22/19/6
f 14/45/6 29/6/6 20/46/6
f 20/46/6 29/6/6 30/47/6
f 30/47/6 29/6/6 25/20/6
f 25/20/6 29/6/6 26/8/6
f 29/10/3 21/48/3 28/5/3
f 21/48/3 29/10/3 13/49/3
f 13/49/3 29/10/3 22/11/3
f 24/7/2 29/6/2 28/5/2
f 29/6/2 24/7/2 26/8/2
f 20/52/1 31/51/1 17/50/1
f 31/51/1 20/52/1 30/53/1
f 27/54/1 17/50/1 31/51/1
f 17/50/1 27/54/1 19/55/1
f 32/6/2 23/57/2 27/56/2
f 23/57/2 32/6/2 25/58/2
f 33/7/2 25/58/2 32/6/2
f 25/58/2 33/7/2 30/59/2
f 33/7/2 32/6/2 34/5/2
f 37/4/1 36/1/1 35/3/1
f 36/1/1 37/4/1 38/60/1
f 31/18/11 37/61/11 35/17/11
f 37/61/11 31/18/11 33/7/11
f 33/7/11 31/18/11 30/62/11
f 34/5/12 36/11/12 38/63/12
f 36/11/12 34/5/12 32/10/12
f 27/56/13 36/19/13 32/6/13
f 36/19/13 27/56/13 35/20/13
f 35/20/13 27/56/13 31/8/13
f 37/66/14 34/65/14 38/64/14
f 34/65/14 37/66/14 33/67/14
f 41/7/2 40/6/2 39/5/2
f 40/6/2 41/7/2 42/8/2
f 41/70/15 44/69/15 43/68/15
f 44/69/15 41/70/15 39/71/15
f 45/17/16 41/7/16 43/72/16
f 41/7/16 45/17/16 42/18/16
f 46/1/1 43/74/1 44/73/1
f 43/74/1 46/1/1 45/3/1
f 40/6/17 45/20/17 46/19/17
f 45/20/17 40/6/17 42/8/17
f 40/10/18 44/75/18 39/5/18
f 44/75/18 40/10/18 46/11/18

