# Created by Kenney (www.kenney.nl)

mtllib detailBarrierStrong_typeA.mtl

g detailBarrierStrong_typeA

v -0.3319998 0 -0.1245
v -0.3319998 0.083 -0.1245
v -0.3319998 0 0.1245
v -0.3319998 0.166 -0.09586501
v -0.3319998 0.332 -0.07285738
v -0.3319998 0.166 0.09586501
v -0.3319998 0.332 0.07285738
v -0.3319998 0.083 0.1245
v 0.3319998 0.083 -0.1245
v 0.3319998 0.166 -0.09586501
v 0.3319998 0.332 -0.07285738
v 0.3319998 0 -0.1245
v 0.3319998 0.332 0.07285738
v 0.3319998 0 0.1245
v 0.3319998 0.166 0.09586501
v 0.3319998 0.083 0.1245

vn -1 0 0
vn 0 0.3261364 -0.9453228
vn 0 0.1372876 -0.9905313
vn 0 0 -1
vn 0 1 0
vn 0 -1 0
vn 1 0 0
vn 0 0.1372876 0.9905313
vn 0 0 1
vn 0 0.3261364 0.9453228

vt 5 -1.687448E-22
vt 5 0.125
vt 5.375 -3.353416E-08
vt 5.043125 0.25
vt 5.077775 0.4999999
vt 5.331875 0.25
vt 5.297225 0.4999999
vt 5.375 0.125
vt 4 0.125
vt 5 0.25723
vt 4 0.25723
vt 6 0.2572294
vt 5 0.2572296
vt 6 0.5096192
vt 5 0.5096194
vt 4.999999 0
vt 3.999998 0
vt 4.999999 0.1249999
vt 3.999998 0.1249999
vt 5 0.7290694
vt 6 0.7290692
vt 4 -0.375
vt 4 2.775558E-17
vt 5 -0.375
vt 5 2.775558E-17
vt 4 5.624828E-23
vt 3.956875 0.25
vt 3.625 3.353417E-08
vt 3.922225 0.5
vt 3.668125 0.25
vt 3.702775 0.5
vt 3.625 0.125

usemtl concrete

f 3/3/1 2/2/1 1/1/1
f 2/2/1 3/3/1 4/4/1
f 4/4/1 3/3/1 5/5/1
f 5/5/1 3/3/1 6/6/1
f 5/5/1 6/6/1 7/7/1
f 6/6/1 3/3/1 8/8/1
f 4/10/2 9/9/2 2/2/2
f 9/9/2 4/10/2 10/11/2
f 5/14/3 10/13/3 4/12/3
f 10/13/3 5/14/3 11/15/3
f 2/18/4 12/17/4 1/16/4
f 12/17/4 2/18/4 9/19/4
f 5/14/5 13/20/5 11/15/5
f 13/20/5 5/14/5 7/21/5
f 3/24/6 12/23/6 14/22/6
f 12/23/6 3/24/6 1/25/6
f 10/27/7 12/26/7 9/9/7
f 12/26/7 10/27/7 14/28/7
f 14/28/7 10/27/7 11/29/7
f 14/28/7 11/29/7 15/30/7
f 15/30/7 11/29/7 13/31/7
f 14/28/7 15/30/7 16/32/7
f 13/14/8 6/13/8 15/12/8
f 6/13/8 13/14/8 7/15/8
f 16/18/9 3/17/9 14/16/9
f 3/17/9 16/18/9 8/19/9
f 15/10/10 8/9/10 16/2/10
f 8/9/10 15/10/10 6/11/10

