# Created by Kenney (www.kenney.nl)

mtllib detailLight_double.mtl

g detailLight_double

v 0.0230999 0.96 -0.0230999
v 0.0230999 0.9538104 0
v -0.0230999 0.96 -0.0230999
v -0.0230999 0.9538104 0
v 0 0.96 -0.2211001
v -0.0230999 0.96 -0.08909988
v -0.03464985 0.96 -0.2046001
v -0.03464985 0.96 -0.1551001
v 0.0230999 0.96 -0.08909988
v 0.03464985 0.96 -0.1551001
v 0.03464985 0.96 -0.2046001
v 0.03464985 0.9138 -0.1551001
v 0.0230999 0.9138 -0.08909988
v 0.03464985 0.9138 -0.2046001
v 0 0.9138 -0.2211001
v -0.0230999 0.9138 -0.08909988
v -0.03464985 0.9138 -0.2046001
v -0.03464985 0.9138 -0.1551001
v -0.0230999 0.9138 -0.0230999
v 0.0230999 0.9138 -0.0230999
v 0.0230999 0.2445543 0.0230999
v -0.0230999 0.2445543 0.0230999
v 0.0230999 0.9138 0.0230999
v -0.0230999 0.9138 0.0230999
v -0.0230999 0.2445543 -0.0230999
v 0.0230999 0.2445543 -0.0230999
v 0.04309988 0 0.04309988
v 0.04309988 0 -0.04309988
v -0.04309988 0 0.04309988
v -0.04309988 0 -0.04309988
v 0.0230999 0.96 0.0230999
v 0.0230999 0.9138 0.08909988
v 0.0230999 0.96 0.08909988
v -0.04309988 0.2445543 -0.04309988
v 0.04309988 0.2445543 -0.04309988
v 0.04309988 0.2445543 0.04309988
v -0.04309988 0.2445543 0.04309988
v -0.0230999 0.9138 0.08909988
v -0.0230999 0.96 0.08909988
v -0.03464985 0.9138 0.1551001
v -0.03464985 0.96 0.1551001
v 0.03464985 0.9138 0.2046001
v 0.03464985 0.9138 0.1551001
v 0 0.9138 0.2211001
v -0.03464985 0.9138 0.2046001
v -0.0230999 0.96 0.0230999
v 0 0.96 0.2211001
v -0.03464985 0.96 0.2046001
v 0.03464985 0.96 0.2046001
v 0.03464985 0.96 0.1551001

vn 0 0.9659258 0.258819
vn 0 1 0
vn 0.9962506 0 0.08651455
vn 0.9850305 0 0.1723803
vn 0 -1 0
vn 0 0 1
vn 0 0 -1
vn 0.8455571 0 -0.533885
vn -0.8455571 0 -0.533885
vn -0.9962506 0 0.08651455
vn -0.9850305 0 0.1723803
vn 1 0 0
vn -1 0 0
vn -0.9850305 0 -0.1723803
vn -0.9962506 0 -0.08651455
vn 0 0.9659258 -0.258819
vn 0.8455571 0 0.533885
vn -0.8455571 0 0.533885
vn 0.9850305 0 -0.1723803
vn 0.9962506 0 -0.08651455

vt 0.07257079 -3.469447E-18
vt 0.04838053 -3.469447E-18
vt 0.07257079 0.0462
vt 0.04838053 0.0462
vt -1.443823E-15 -0.2211
vt 0.0231 -0.0891
vt 0.03465 -0.2046
vt 0.03465 -0.1551
vt 0.0231 -0.0231
vt -0.0231 -0.0231
vt -0.0231 -0.0891
vt -0.03465 -0.1551
vt -0.03465 -0.2046
vt 0.1587512 0.96
vt 0.1587512 0.9138
vt 0.0917482 0.96
vt 0.0917482 0.9138
vt -15.1342 -0.112
vt -15.1342 -0.1615
vt -15.14575 -0.046
vt -15.16885 -0.178
vt -15.19195 -0.046
vt -15.2035 -0.1615
vt -15.2035 -0.112
vt -15.19195 0.02
vt -15.14575 0.02
vt 0.0231 0.2445543
vt -0.0231 0.2445543
vt 0.0231 0.9138
vt -0.0231 0.9138
vt 0.0431 0.0431
vt 0.0431 -0.0431
vt -0.0431 0.0431
vt -0.0431 -0.0431
vt 0.2046 0.96
vt 0.2046 0.9138
vt 0.1551 0.96
vt 0.1551 0.9138
vt -0.2046 0.9138
vt -0.2046 0.96
vt -0.1551 0.9138
vt -0.1551 0.96
vt -0.1587512 0.9138
vt -0.1587512 0.96
vt -0.0917482 0.9138
vt -0.0917482 0.96
vt -0.05668029 0.9138
vt -0.09505831 0.9138
vt -0.05668029 0.96
vt -0.09505831 0.96
vt 0.09505831 0.9138
vt 0.05668029 0.9138
vt 0.09505831 0.96
vt 0.05668029 0.96
vt 1.804779E-16 0.9538104
vt -0.0231 0.96
vt -0.0891 0.9138
vt -0.0891 0.96
vt 0.0231 0.96
vt 0.0891 0.9138
vt 0.0891 0.96
vt 0.0431 0
vt -0.0431 0
vt 0.0431 0.2445543
vt -0.0431 0.2445543
vt 0.0231 0.0231
vt -0.0231 0.0231
vt -1.906034 0.9138
vt -1.906034 0.96
vt -1.839031 0.9138
vt -1.839031 0.96
vt -2.120383 0.9052672
vt -2.071624 0.9138
vt -2.130663 0.8682916
vt -2.004621 0.9138
vt -1.996657 0.8682916
vt -2.108437 0.8370045
vt -2.059678 0.8455374
vt -1.939609 0.9251771
vt -1.931645 0.8796687
vt 11.3662 0.02
vt 11.3662 -0.046
vt 11.32 0.02
vt 11.3431 -0.178
vt 11.32 -0.046
vt 11.30845 -0.1615
vt 11.30845 -0.112
vt 11.37775 -0.1615
vt 11.37775 -0.112
vt 0.04838053 -1.44329E-15
vt 0.07257079 -1.373901E-15
vt 10.20309 0.9138
vt 10.16471 0.9138
vt 10.20309 0.96
vt 10.16471 0.96
vt 0.112 0.9138
vt 0.112 0.96
vt 0.1615 0.9138
vt 0.1615 0.96
vt -2.004621 0.96
vt -2.071624 0.96
vt -1.804779E-16 0.9538104
vt -0.112 0.96
vt -0.112 0.9138
vt -0.1615 0.96
vt -0.1615 0.9138
vt 10.31777 0.9138
vt 10.27939 0.9138
vt 10.31777 0.96
vt 10.27939 0.96

usemtl metal

f 3/3/1 2/2/1 1/1/1
f 2/2/1 3/3/1 4/4/1
f 7/7/2 6/6/2 5/5/2
f 6/6/2 7/7/2 8/8/2
f 3/9/2 5/5/2 6/6/2
f 1/10/2 5/5/2 3/9/2
f 9/11/2 5/5/2 1/10/2
f 10/12/2 5/5/2 9/11/2
f 5/5/2 10/12/2 11/13/2
f 9/16/4 12/15/3 10/14/3
f 12/15/3 9/16/4 13/17/4
f 13/20/5 14/19/5 12/18/5
f 14/19/5 13/20/5 15/21/5
f 15/21/5 13/20/5 16/22/5
f 15/21/5 16/22/5 17/23/5
f 17/23/5 16/22/5 18/24/5
f 13/20/5 19/25/5 16/22/5
f 19/25/5 13/20/5 20/26/5
f 23/29/6 22/28/6 21/27/6
f 22/28/6 23/29/6 24/30/6
f 19/29/7 26/28/7 25/27/7
f 26/28/7 19/29/7 20/30/7
f 29/33/5 28/32/5 27/31/5
f 28/32/5 29/33/5 30/34/5
f 10/37/3 14/36/8 11/35/8
f 14/36/8 10/37/3 12/38/3
f 18/41/10 7/40/9 17/39/9
f 7/40/9 18/41/10 8/42/10
f 16/45/11 8/44/10 18/43/10
f 8/44/10 16/45/11 6/46/11
f 7/49/9 15/48/7 17/47/9
f 15/48/7 7/49/9 5/50/7
f 5/53/7 14/52/8 15/51/7
f 14/52/8 5/53/7 11/54/8
f 31/56/12 23/30/12 2/55/12
f 23/30/12 31/56/12 32/57/12
f 32/57/12 31/56/12 33/58/12
f 21/28/12 2/55/12 23/30/12
f 26/27/12 2/55/12 21/28/12
f 20/29/12 2/55/12 26/27/12
f 20/29/12 1/59/12 2/55/12
f 13/60/12 1/59/12 20/29/12
f 1/59/12 13/60/12 9/61/12
f 34/64/7 28/63/7 30/62/7
f 28/63/7 34/64/7 35/65/7
f 35/34/2 26/10/2 36/33/2
f 26/10/2 35/34/2 34/32/2
f 26/10/2 34/32/2 25/9/2
f 25/9/2 34/32/2 22/66/2
f 21/67/2 36/33/2 26/10/2
f 36/33/2 21/67/2 37/31/2
f 37/31/2 21/67/2 22/66/2
f 37/31/2 22/66/2 34/32/2
f 29/62/13 34/65/13 30/63/13
f 34/65/13 29/62/13 37/64/13
f 36/65/12 28/62/12 35/64/12
f 28/62/12 36/65/12 27/63/12
f 36/64/6 29/63/6 27/62/6
f 29/63/6 36/64/6 37/65/6
f 40/70/15 39/69/14 38/68/14
f 39/69/14 40/70/15 41/71/15
f 44/74/5 43/73/5 42/72/5
f 43/73/5 44/74/5 32/75/5
f 32/75/5 44/74/5 38/76/5
f 38/76/5 44/74/5 45/77/5
f 38/76/5 45/77/5 40/78/5
f 38/76/5 23/79/5 32/75/5
f 23/79/5 38/76/5 24/80/5
f 46/83/2 33/82/2 31/81/2
f 33/82/2 46/83/2 47/84/2
f 47/84/2 46/83/2 39/85/2
f 47/84/2 39/85/2 48/86/2
f 48/86/2 39/85/2 41/87/2
f 49/88/2 33/82/2 47/84/2
f 33/82/2 49/88/2 50/89/2
f 4/90/16 31/3/16 2/4/16
f 31/3/16 4/90/16 46/91/16
f 49/94/17 44/93/6 42/92/17
f 44/93/6 49/94/17 47/95/6
f 45/98/18 41/97/15 40/96/15
f 41/97/15 45/98/18 48/99/18
f 50/101/20 32/75/19 33/100/19
f 32/75/19 50/101/20 43/73/20
f 22/27/13 19/30/13 25/28/13
f 19/30/13 22/27/13 3/56/13
f 3/56/13 22/27/13 4/102/13
f 4/102/13 22/27/13 24/29/13
f 4/102/13 24/29/13 46/59/13
f 46/59/13 24/29/13 38/60/13
f 46/59/13 38/60/13 39/61/13
f 6/58/13 19/30/13 3/56/13
f 19/30/13 6/58/13 16/57/13
f 49/105/17 43/104/20 50/103/20
f 43/104/20 49/105/17 42/106/17
f 47/109/6 45/108/18 44/107/6
f 45/108/18 47/109/6 48/110/18

