# Created by Kenney (www.kenney.nl)

mtllib detailAwning_wide.mtl

g detailAwning_wide

v -0.5 0 -0.07500005
v -0.5 0.04941725 -0.02055216
v -0.5 0 0.1500001
v -0.5 0.04941725 0.1500001
v -0.5 0 -0.1500001
v -0.5 0.2807908 0.1500001
v -0.5 0.2042115 0.1500001
v 0.5 0 -0.07500005
v 0.5 0.04941725 -0.02055216
v 0.5 0 0.1500001
v 0.5 0.04941725 0.1500001
v 0.5 0 -0.1500001
v 0.5 0.2807908 0.1500001
v 0.5 0.2042115 0.1500001

vn -1 0 0
vn 1 0 0
vn 0 0.7300946 -0.6833462
vn 0 -0.7300946 0.6833462

vt -0.9999998 0.3199976
vt -0.9174011 0.2425612
vt -1 5.551115E-17
vt -0.9174012 5.551115E-17
vt 1 -4.024558E-16
vt 1 0.4459821
vt 1.055496 0.05045046
vt 1.056716 0.1300501
vt 1.060541 0.3793875
vt 0 -1.582068E-15
vt 0 0.4459821
vt 1 -1.582068E-15

usemtl roof

f 3/3/1 2/2/1 1/1/1
f 2/2/1 3/3/1 4/4/1
f 1/1/2 2/2/2 3/3/2
f 4/4/2 3/3/2 2/2/2
f 1/7/1 6/6/1 5/5/1
f 6/6/1 1/7/1 2/8/1
f 6/6/1 2/8/1 7/9/1
f 5/5/2 6/6/2 1/7/2
f 2/8/2 1/7/2 6/6/2
f 7/9/2 2/8/2 6/6/2
f 10/3/1 9/2/1 8/1/1
f 9/2/1 10/3/1 11/4/1
f 8/1/2 9/2/2 10/3/2
f 11/4/2 10/3/2 9/2/2
f 5/12/3 13/11/3 12/10/3
f 13/11/3 5/12/3 6/6/3
f 12/10/4 13/11/4 5/12/4
f 6/6/4 5/12/4 13/11/4
f 8/7/1 13/6/1 12/5/1
f 13/6/1 8/7/1 9/8/1
f 13/6/1 9/8/1 14/9/1
f 12/5/2 13/6/2 8/7/2
f 9/8/2 8/7/2 13/6/2
f 14/9/2 9/8/2 13/6/2

