# Created by Kenney (www.kenney.nl)

mtllib door_typeB.mtl

g door_typeB

v -0.1465726 0 0
v 0.1465726 0 0
v -0.1465726 0.5754694 0
v 0.1465726 0.5754694 0
v -0.1465726 0.5754694 -0.0250001
v -0.1465726 0 -0.0250001
v 0.1465726 0 -0.0250001
v 0.1465726 0.5754694 -0.0250001
v -0.1988969 0 -0.0250001
v -0.1988969 0.6277938 -0.0250001
v 0.1988969 0.6277938 -0.0250001
v 0.1988969 0 -0.0250001
v 0.1988969 0.6277938 0.0250001
v 0.1988969 0 0.0250001
v -0.1988969 0 0.0250001
v -0.1988969 0.6277938 0.0250001

vn 0 0 -1
vn 1 0 0
vn -1 0 0
vn 0 -1 0
vn 0 1 0

vt 0.9981172 0.003074099
vt 0.5111384 0.003074099
vt 0.9981177 0.9590558
vt 0.511139 0.9590558
vt 8.108132 2.776572
vt 8.108132 2.201103
vt 8.058132 2.776572
vt 8.058132 2.201103
vt 2.150591 2.201103
vt 2.150591 2.776572
vt 2.200591 2.201103
vt 2.200591 2.776572
vt -2.994704 -0.7276673
vt -2.994704 -0.7776672
vt -3.287849 -0.7276673
vt -3.287849 -0.7776672
vt 13.5989 2.201103
vt 13.54657 2.201103
vt 13.5989 2.828897
vt 13.54657 2.776572
vt 13.25343 2.776572
vt 13.2011 2.828897
vt 13.2011 2.201103
vt 13.25343 2.201103
vt 8.108132 2.828897
vt 8.008132 2.828897
vt 8.008132 2.201103
vt -2.94238 -0.7776672
vt -2.94238 -0.6776673
vt -3.340173 -0.6776673
vt -3.340173 -0.7776672
vt 13.2011 -0.7776672
vt 13.2011 -0.6776673
vt 13.5989 -0.7776672
vt 13.5989 -0.6776673
vt 2.150591 2.828897
vt 2.250591 2.201103
vt 2.250591 2.828897

usemtl doors

f 3/3/1 2/2/1 1/1/1
f 2/2/1 3/3/1 4/4/1

usemtl metal

f 3/7/2 6/6/2 5/5/2
f 6/6/2 3/7/2 1/8/2
f 2/11/3 8/10/3 7/9/3
f 8/10/3 2/11/3 4/12/3
f 3/15/4 8/14/4 4/13/4
f 8/14/4 3/15/4 5/16/4
f 10/19/1 6/18/1 9/17/1
f 6/18/1 10/19/1 5/20/1
f 5/20/1 10/19/1 8/21/1
f 11/22/1 8/21/1 10/19/1
f 12/23/1 8/21/1 11/22/1
f 8/21/1 12/23/1 7/24/1
f 13/26/2 12/6/2 11/25/2
f 12/6/2 13/26/2 14/27/2
f 14/29/4 2/13/4 12/28/4
f 2/13/4 14/29/4 15/30/4
f 2/13/4 15/30/4 1/15/4
f 1/15/4 15/30/4 6/16/4
f 6/16/4 15/30/4 9/31/4
f 7/14/4 12/28/4 2/13/4
f 10/34/5 13/33/5 11/32/5
f 13/33/5 10/34/5 16/35/5
f 15/37/3 10/36/3 9/9/3
f 10/36/3 15/37/3 16/38/3

