# Created by Kenney (www.kenney.nl)

mtllib roadAsphalt_side.mtl

g roadAsphalt_side

v 0.5 0 -0.5
v 0.5 0 0
v -0.5 0 -0.5
v -0.5 0 0
v 0.5 0.05 0
v 0.5 0.05 0.5
v -0.5 0.05 0
v -0.5 0.05 0.5
v 0.5 0 0.5
v -0.5 0 0.5

vn 0 1 0
vn 1 0 0
vn 0 0 -1
vn -1 0 0
vn 0 0 1

vt -1 1
vt -0.5 1
vt -1 -9.436896E-16
vt -0.5 -9.436896E-16
vt 3 -12
vt 3 -11.5
vt 4 -12
vt 4 -11.5
vt 2.95 -12
vt 2.95 -11.5
vt 4 -12.05
vt 3 -12.05
vt 4.05 -12
vt 4.05 -11.5
vt 3 -11.45
vt 4 -11.45

usemtl asphalt

f 3/3/1 2/2/1 1/1/1
f 2/2/1 3/3/1 4/4/1

usemtl concreteSmooth

f 7/7/1 6/6/1 5/5/1
f 6/6/1 7/7/1 8/8/1
f 6/6/2 2/9/2 5/5/2
f 2/9/2 6/6/2 9/10/2
f 7/7/3 2/12/3 4/11/3
f 2/12/3 7/7/3 5/5/3
f 10/14/4 7/7/4 4/13/4
f 7/7/4 10/14/4 8/8/4
f 6/6/5 10/16/5 9/15/5
f 10/16/5 6/6/5 8/8/5

