# Created by Kenney (www.kenney.nl)

mtllib roofMetal_typeA.mtl

g roofMetal_typeA

v 0.5 1.804779E-16 -0.5
v -0.5 1.804779E-16 -0.5
v 0.5 0 -0.4000001
v -0.5 0 -0.4000001
v 0.5 0 0.4000001
v -0.5 0 0.4000001
v 0.5 1.804779E-16 0.5
v -0.5 1.804779E-16 0.5
v 0.5 0.5 0
v -0.5 0.5 0
v -0.5685825 1.804779E-16 0.5
v -0.5685825 0.5 0
v -0.5685825 1.804779E-16 -0.5
v 0.5685821 1.804779E-16 -0.5
v 0.5685821 0.5 0
v -0.5 0.4 0
v 0.5 0.4 0
v 0.5685821 1.804779E-16 0.5

vn 0 -1 0
vn 0 0.7071068 0.7071068
vn 0 0.7071068 -0.7071068
vn -1 0 0
vn 1 0 0
vn 0 -0.7071068 -0.7071068
vn 0 -0.7071068 0.7071068

vt -13 -10
vt -13 -11
vt -13.1 -10
vt -13.1 -11
vt -13.9 -10
vt -13.9 -11
vt -14 -10
vt -14 -11
vt -2 -4
vt -3 -4
vt -2 -3.292893
vt -3 -3.292893
vt -3.068582 -4
vt -3.068582 -3.292893
vt 8 4.707107
vt 9 4.707107
vt 8 4
vt 9 4
vt 9.068583 4.707107
vt 9.068583 4
vt 7.931418 4
vt 7.931418 4.707107
vt -4 -5
vt -4 -4
vt -3.9 -4.9
vt -3.9 -4.1
vt -2.931418 -3.292893
vt -2.931418 -4
vt -1 -2
vt -1 -1.434315
vt 1.998401E-15 -2
vt 1.887379E-15 -1.434315
vt 0.9999999 2.565685
vt 1 2
vt -3.371644E-08 2.565686
vt -4.440892E-16 2

usemtl concrete

f 3/3/1 2/2/1 1/1/1
f 2/2/1 3/3/1 4/4/1
f 7/7/1 6/6/1 5/5/1
f 6/6/1 7/7/1 8/8/1

usemtl roof_plates

f 9/11/2 8/10/2 7/9/2
f 8/10/2 9/11/2 10/12/2
f 10/12/2 11/13/2 8/10/2
f 11/13/2 10/12/2 12/14/2
f 1/17/3 10/16/3 9/15/3
f 10/16/3 1/17/3 2/18/3
f 2/18/3 12/19/3 10/16/3
f 12/19/3 2/18/3 13/20/3
f 9/15/3 14/21/3 1/17/3
f 14/21/3 9/15/3 15/22/3
f 4/25/4 10/24/4 2/23/4
f 10/24/4 4/25/4 16/26/4
f 6/25/4 10/24/4 16/26/4
f 10/24/4 6/25/4 8/23/4
f 9/24/5 5/25/5 17/26/5
f 5/25/5 9/24/5 7/23/5
f 9/24/5 3/25/5 1/23/5
f 3/25/5 9/24/5 17/26/5
f 9/12/2 18/28/2 15/27/2
f 18/28/2 9/12/2 7/10/2
f 15/27/6 18/28/6 9/12/6
f 7/10/6 9/12/6 18/28/6
f 8/28/6 11/10/6 10/27/6
f 12/12/6 10/27/6 11/10/6
f 10/27/7 12/12/7 2/28/7
f 13/10/7 2/28/7 12/12/7
f 15/27/7 9/12/7 14/28/7
f 1/10/7 14/28/7 9/12/7
f 6/31/6 17/30/6 5/29/6
f 17/30/6 6/31/6 16/32/6
f 16/35/7 3/34/7 17/33/7
f 3/34/7 16/35/7 4/36/7

