# Created by Kenney (www.kenney.nl)

mtllib scaffolding_poles.mtl

g scaffolding_poles

v 0.5 1 0.4300001
v 0.5 1 0.5
v 0.4299998 1 0.4300001
v 0.4299998 1 0.5
v 0.5 0 0.5
v 0.4299998 0 0.5
v 0.5 0 0.4300001
v 0.4299998 0 0.4300001
v -0.4299998 1 -0.5
v -0.4299998 1 -0.4300001
v -0.5 1 -0.5
v -0.5 1 -0.4300001
v -0.4299998 0 -0.5
v -0.4299998 0 -0.4300001
v -0.5 0 -0.4300001
v -0.5 0 -0.5
v 0.4299998 0 -0.5
v 0.4299998 1 -0.5
v 0.4299998 0 -0.4300001
v 0.4299998 1 -0.4300001
v 0.5 0 -0.4300001
v 0.5 1 -0.4300001
v 0.5 0 -0.5
v 0.5 1 -0.5
v -0.5 0 0.4300001
v -0.5 1 0.4300001
v -0.5 0 0.5
v -0.5 1 0.5
v -0.4299998 1 0.4300001
v -0.4299998 1 0.5
v -0.4299998 0 0.4300001
v -0.4299998 0 0.5

vn 0 1 0
vn 0 0 1
vn 0 -1 0
vn 1 0 0
vn 0 0 -1
vn -1 0 0

vt 8.925876 -2.622971
vt 8.925876 -2.552971
vt 8.995876 -2.622971
vt 8.995876 -2.552971
vt -8.925876 0
vt -8.995876 0
vt -8.925876 1
vt -8.995876 1
vt -8.925876 -2.552971
vt -8.925876 -2.622971
vt -8.995876 -2.552971
vt -8.995876 -2.622971
vt 2.622971 1
vt 2.622971 0
vt 2.552971 1
vt 2.552971 0
vt 8.995876 0
vt 8.925876 0
vt 8.995876 1
vt 8.925876 1
vt -2.622971 0
vt -2.622971 1
vt -2.552971 0
vt -2.552971 1

usemtl metal

f 3/3/1 2/2/1 1/1/1
f 2/2/1 3/3/1 4/4/1
f 2/7/2 6/6/2 5/5/2
f 6/6/2 2/7/2 4/8/2
f 6/11/3 7/10/3 5/9/3
f 7/10/3 6/11/3 8/12/3
f 2/15/4 7/14/4 1/13/4
f 7/14/4 2/15/4 5/16/4
f 3/19/5 7/18/5 8/17/5
f 7/18/5 3/19/5 1/20/5
f 6/23/6 3/22/6 8/21/6
f 3/22/6 6/23/6 4/24/6
f 11/3/1 10/2/1 9/1/1
f 10/2/1 11/3/1 12/4/1
f 10/15/4 13/14/4 9/13/4
f 13/14/4 10/15/4 14/16/4
f 10/7/2 15/6/2 14/5/2
f 15/6/2 10/7/2 12/8/2
f 15/11/3 13/10/3 14/9/3
f 13/10/3 15/11/3 16/12/3
f 15/23/6 11/22/6 16/21/6
f 11/22/6 15/23/6 12/24/6
f 11/19/5 13/18/5 16/17/5
f 13/18/5 11/19/5 9/20/5
f 19/23/6 18/22/6 17/21/6
f 18/22/6 19/23/6 20/24/6
f 22/7/2 19/6/2 21/5/2
f 19/6/2 22/7/2 20/8/2
f 18/19/5 23/18/5 17/17/5
f 23/18/5 18/19/5 24/20/5
f 22/15/4 23/14/4 24/13/4
f 23/14/4 22/15/4 21/16/4
f 19/11/3 23/10/3 21/9/3
f 23/10/3 19/11/3 17/12/3
f 18/3/1 22/2/1 24/1/1
f 22/2/1 18/3/1 20/4/1
f 27/23/6 26/22/6 25/21/6
f 26/22/6 27/23/6 28/24/6
f 26/3/1 30/2/1 29/1/1
f 30/2/1 26/3/1 28/4/1
f 26/19/5 31/18/5 25/17/5
f 31/18/5 26/19/5 29/20/5
f 30/7/2 27/6/2 32/5/2
f 27/6/2 30/7/2 28/8/2
f 30/15/4 31/14/4 29/13/4
f 31/14/4 30/15/4 32/16/4
f 27/11/3 31/10/3 32/9/3
f 31/10/3 27/11/3 25/12/3

