# Created by Kenney (www.kenney.nl)

mtllib tree_shrub.mtl

g tree_shrub

v -0.3899999 0 0
v 0 0 0
v -0.3899999 0.3 0
v 0.3899999 0 0
v 0.3899999 0.3 0
v 0 0.3 0
v 0 0 -0.3900001
v 0 0.3 -0.3900001
v 0 0 0.3900001
v 0 0.3 0.3900001
v 0.1345501 0 -0.2330475
v 0.1345501 0.207 -0.2330475
v 0 0.207 0
v -0.1345501 0.207 0.2330475
v -0.1345501 0 0.2330475
v 0.2330475 0 0.1345501
v 0.2330475 0.207 0.1345501
v -0.2330475 0 -0.1345501
v -0.2330475 0.207 -0.1345501

vn 0 0 -1
vn 0 0 1
vn -1 0 0
vn 1 0 0
vn -0.8660254 0 -0.5
vn 0.8660254 0 0.5
vn -0.5 0 0.8660254
vn 0.5 0 -0.8660254

vt -0.1317642 0.6945886
vt -0.5079997 0.6945886
vt -0.1317641 0.9840005
vt -0.8842351 0.6945886
vt -0.8842351 0.9840005
vt -0.5079996 0.9840005

usemtl treeA

f 3/3/1 2/2/1 1/1/1
f 2/2/1 3/3/1 4/4/1
f 4/4/1 3/3/1 5/5/1
f 5/5/1 3/3/1 6/6/1
f 1/1/2 2/2/2 3/3/2
f 4/4/2 3/3/2 2/2/2
f 5/5/2 3/3/2 4/4/2
f 6/6/2 3/3/2 5/5/2
f 2/2/3 8/5/3 7/4/3
f 8/5/3 2/2/3 6/6/3
f 6/6/3 2/2/3 9/1/3
f 6/6/3 9/1/3 10/3/3
f 7/4/4 8/5/4 2/2/4
f 6/6/4 2/2/4 8/5/4
f 9/1/4 2/2/4 6/6/4
f 10/3/4 9/1/4 6/6/4
f 2/2/5 12/5/5 11/4/5
f 12/5/5 2/2/5 13/6/5
f 13/6/5 2/2/5 14/3/5
f 14/3/5 2/2/5 15/1/5
f 11/4/6 12/5/6 2/2/6
f 13/6/6 2/2/6 12/5/6
f 14/3/6 2/2/6 13/6/6
f 15/1/6 2/2/6 14/3/6
f 17/3/7 2/2/7 16/1/7
f 2/2/7 17/3/7 18/4/7
f 18/4/7 17/3/7 19/5/7
f 19/5/7 17/3/7 13/6/7
f 16/1/8 2/2/8 17/3/8
f 18/4/8 17/3/8 2/2/8
f 19/5/8 17/3/8 18/4/8
f 13/6/8 17/3/8 19/5/8

