# Created by Kenney (www.kenney.nl)

mtllib truck_grey.mtl

g truck_grey

v -0.415 1.364864E-15 0.6142001
v -0.415 0.08141673 0.6142001
v 0.415 1.234299E-14 0.6142001
v 0.415 0.08141673 0.6142001
v 0.415 0 -0.6308
v -0.415 0 -0.6308
v -0.415 0.08141673 -0.6308
v -0.415 1.00596 -0.5694959
v -0.415 1.00596 -0.3465104
v -0.415 1.00596 0.8217001
v -0.415 0.08141673 0.8217001
v -0.415 0.8271895 -0.6563896
v -0.415 0.8271895 -0.6929095
v -0.415 0.7797191 -0.74842
v -0.415 0.08141673 -0.8217001
v -0.415 0.5348071 -0.8217001
v 0.415 0.08141673 -0.6308
v 0.415 0.8271895 -0.6929095
v 0.415 0.8271895 -0.6563896
v 0.415 0.5348071 -0.8217001
v 0.415 0.7797191 -0.74842
v 0.415 0.08141673 -0.8217001
v 0.415 1.00596 -0.3465104
v 0.415 1.00596 0.8217001
v 0.415 0.08141673 0.8217001
v 0.415 1.00596 -0.5694959

vn 0 0 1
vn 0 -1 0
vn -1 0 0
vn 0 0 -1
vn 0 1 0
vn 0 0.1448544 -0.989453
vn 0 0.5455308 -0.8380908
vn 0 0.7599999 -0.6499232
vn 1 0 0
vn 0 0.4371572 -0.8993851
vn 0 0.8476902 -0.5304917

vt 0.3354427 0.03045564
vt 0.3354428 0.06190277
vt 0.6560299 0.03045564
vt 0.65603 0.06190277
vt -0.2836809 0.3297888
vt -0.1065447 0.3297888
vt -0.2836809 0.06408456
vt -0.1065447 0.06408456
vt -2.88384 1.387879
vt -2.88384 1.437421
vt -2.126264 1.38788
vt -2.846536 2.000001
vt -2.710851 2.000001
vt -2.126264 1.437421
vt -2.000001 2.000001
vt -2.000001 1.437421
vt -2.899411 1.89122
vt -2.921633 1.89122
vt -2.955411 1.862335
vt -3.000001 1.437421
vt -3.000001 1.713307
vt -0.5961615 0.02893751
vt -0.9320924 0.02893752
vt -0.5961615 0.06188979
vt -0.9320924 0.06188979
vt -0.9989965 0.3285799
vt -0.9989965 0.3433609
vt -0.6630657 0.3285799
vt -0.6630657 0.3433608
vt -0.6630657 0.1955513
vt -0.9989965 0.1955513
vt -0.6630657 0.299018
vt -0.9989965 0.299018
vt -0.9989969 0.01204794
vt -0.663066 0.01204794
vt -0.7594905 0.3191812
vt -0.9566885 0.3191816
vt -0.7594907 0.3664064
vt -0.9566885 0.3664067
vt -0.9296882 0.009172154
vt -0.9296882 0.08643624
vt -0.5937575 0.009172153
vt -0.5937575 0.08643624
vt 0.6604445 0.02196032
vt 0.3398572 0.02196032
vt 0.6604452 0.3790642
vt 0.3398579 0.3790642
vt 0.6430293 0.08407796
vt 0.6430293 0.003931222
vt 0.3224423 0.08407798
vt 0.3224423 0.003931235
vt -0.9626659 0.3229722
vt -0.9626659 0.3745936
vt -0.7705202 0.3229722
vt -0.7705202 0.3745936
vt -2.711964 2.98778
vt -2.119577 2.98778
vt -2.711964 2.566896
vt -2.119577 2.566896

usemtl truck

f 3/3/1 2/2/1 1/1/1
f 2/2/1 3/3/1 4/4/1
f 3/7/2 6/6/2 5/5/2
f 6/6/2 3/7/2 1/8/2
f 1/11/3 7/10/3 6/9/3
f 7/10/3 1/11/3 8/12/3
f 8/12/3 1/11/3 9/13/3
f 9/13/3 1/11/3 2/14/3
f 9/13/3 2/14/3 10/15/3
f 10/15/3 2/14/3 11/16/3
f 12/17/3 7/10/3 8/12/3
f 13/18/3 7/10/3 12/17/3
f 14/19/3 7/10/3 13/18/3
f 14/19/3 15/20/3 7/10/3
f 15/20/3 14/19/3 16/21/3
f 7/24/4 5/23/4 6/22/4
f 5/23/4 7/24/4 17/25/4
f 13/28/5 19/27/5 18/26/5
f 19/27/5 13/28/5 12/29/5
f 14/32/7 20/31/6 16/30/6
f 20/31/6 14/32/7 21/33/7
f 22/34/4 16/30/6 20/31/6
f 16/30/6 22/34/4 15/35/4
f 14/32/7 18/26/8 21/33/7
f 18/26/8 14/32/7 13/28/8
f 24/15/9 4/14/9 23/13/9
f 4/14/9 24/15/9 25/16/9
f 3/11/9 23/13/9 4/14/9
f 3/11/9 26/12/9 23/13/9
f 5/9/9 26/12/9 3/11/9
f 17/10/9 26/12/9 5/9/9
f 17/10/9 19/17/9 26/12/9
f 17/10/9 18/18/9 19/17/9
f 17/10/9 21/19/9 18/18/9
f 22/20/9 21/19/9 17/10/9
f 21/19/9 22/20/9 20/21/9
f 8/38/11 19/37/10 12/36/10
f 19/37/10 8/38/11 26/39/11
f 7/42/2 22/41/2 17/40/2
f 22/41/2 7/42/2 15/43/2
f 24/46/1 11/45/1 25/44/1
f 11/45/1 24/46/1 10/47/1
f 11/50/2 4/49/2 25/48/2
f 4/49/2 11/50/2 2/51/2
f 8/54/11 23/53/5 26/52/11
f 23/53/5 8/54/11 9/55/5
f 9/58/5 24/57/5 23/56/5
f 24/57/5 9/58/5 10/59/5

