# Created by Kenney (www.kenney.nl)

mtllib wallSteps_typeA.mtl

g wallSteps_typeA

v 0.5 0.4 -0.03500009
v 0.5 0 -0.03500009
v 0.5 0.4 0.03500009
v 0.5 0 0.03500009
v -0.5 0 0.03500009
v -0.4257174 0.08 0.03500009
v 0.04428244 0.25 0.03500009
v -0.2757173 0.15 0.03500009
v 0.1442823 0.33 0.03500009
v 0.1442823 0.4 0.03500009
v 0.04428244 0.33 0.03500009
v -0.2757173 0.25 0.03500009
v -0.4257174 0.15 0.03500009
v -0.5 0.08 0.03500009
v -0.5 0 -0.03500009
v -0.5 0.08 -0.03500009
v -0.4257174 0.08 -0.03500009
v 0.04428244 0.25 -0.03500009
v -0.2757173 0.15 -0.03500009
v -0.4257174 0.15 -0.03500009
v -0.2757173 0.25 -0.03500009
v 0.1442823 0.33 -0.03500009
v 0.04428244 0.33 -0.03500009
v 0.1442823 0.4 -0.03500009

vn 1 0 0
vn 0 0 1
vn -1 0 0
vn 0 0 -1
vn 0 1 0
vn 0 -1 0

vt 2 1.4
vt 2 1
vt 1.95 1.4
vt 1.95 1
vt 5 0.9999998
vt 4 0.9999999
vt 5 1.4
vt 4.074283 1.08
vt 4.544282 1.25
vt 4.224282 1.15
vt 4.644282 1.33
vt 4.644282 1.4
vt 4.544282 1.33
vt 4.224282 1.25
vt 4.074283 1.15
vt 4 1.08
vt 3 1
vt 3 1.08
vt 3.05 1
vt 3.05 1.08
vt 3 0.9999999
vt 2 0.9999998
vt 3 1.08
vt 2.925717 1.08
vt 2 1.4
vt 2.455717 1.25
vt 2.775717 1.15
vt 2.925717 1.15
vt 2.775717 1.25
vt 2.355717 1.33
vt 2.455717 1.33
vt 2.355717 1.4
vt 3 -11
vt 3 -10.95
vt 3.355717 -11
vt 3.355717 -10.95
vt -13 -10.95
vt -13 -11
vt -14 -10.95
vt -14 -11
vt 3.405717 -11
vt 3.405717 -10.95
vt 3.455718 -11
vt 3.455718 -10.95
vt 3.51286 -11
vt 3.51286 -10.95
vt 3.775717 -11
vt 3.775717 -10.95
vt 3.847146 -11
vt 3.847146 -10.95
vt 3.925717 -11
vt 3.925717 -10.95
vt 3.975718 -11
vt 3.975718 -10.95
vt 4 -11
vt 4 -10.95

usemtl wall_lines

f 3/3/1 2/2/1 1/1/1
f 2/2/1 3/3/1 4/4/1
f 3/7/2 5/6/2 4/5/2
f 5/6/2 3/7/2 6/8/2
f 6/8/2 3/7/2 7/9/2
f 6/8/2 7/9/2 8/10/2
f 7/9/2 3/7/2 9/11/2
f 9/11/2 3/7/2 10/12/2
f 11/13/2 7/9/2 9/11/2
f 12/14/2 8/10/2 7/9/2
f 13/15/2 6/8/2 8/10/2
f 14/16/2 5/6/2 6/8/2
f 5/19/3 16/18/3 15/17/3
f 16/18/3 5/19/3 14/20/3
f 16/23/4 2/22/4 15/21/4
f 2/22/4 16/23/4 17/24/4
f 2/22/4 17/24/4 1/25/4
f 1/25/4 17/24/4 18/26/4
f 18/26/4 17/24/4 19/27/4
f 19/27/4 17/24/4 20/28/4
f 18/26/4 19/27/4 21/29/4
f 1/25/4 18/26/4 22/30/4
f 22/30/4 18/26/4 23/31/4
f 1/25/4 22/30/4 24/32/4

usemtl concrete

f 24/35/5 3/34/5 1/33/5
f 3/34/5 24/35/5 10/36/5
f 5/39/6 2/38/6 4/37/6
f 2/38/6 5/39/6 15/40/6
f 9/42/3 24/35/3 22/41/3
f 24/35/3 9/42/3 10/36/3
f 23/43/5 9/36/5 22/35/5
f 9/36/5 23/43/5 11/44/5
f 7/46/3 23/43/3 18/45/3
f 23/43/3 7/46/3 11/44/3
f 21/47/5 7/44/5 18/43/5
f 7/44/5 21/47/5 12/48/5
f 8/50/3 21/47/3 19/49/3
f 21/47/3 8/50/3 12/48/3
f 20/51/5 8/48/5 19/47/5
f 8/48/5 20/51/5 13/52/5
f 6/54/3 20/51/3 17/53/3
f 20/51/3 6/54/3 13/52/3
f 16/55/5 6/52/5 17/51/5
f 6/52/5 16/55/5 14/56/5

