# Created by Kenney (www.kenney.nl)

mtllib wallA_detailPainted.mtl

g wallA_detailPainted

v 0.3000002 0 0.0999999
v 0.1999998 0 -0.0999999
v -0.3000002 0 0.0999999
v -0.1999998 0 -0.0999999
v 0.3000002 1 0.0999999
v -0.3000002 1 0.0999999
v 0.1999998 1 -0.0999999
v -0.1999998 1 -0.0999999

vn 0 -1 0
vn 0 1 0
vn -0.8944272 0 -0.4472136
vn 0 0 -1
vn 0.8944272 0 -0.4472136
vn 0 0 1

vt 0 0
vt 4.2 -11
vt 4.8 -11
vt 4.3 -11.2
vt 4.7 -11.2
vt -0.3 0
vt -0.3 1
vt -0.0763932 0
vt -0.0763932 1
vt -0.7 0
vt -0.7 1
vt -0.9236068 1
vt -0.9236068 0
vt -0.1675026 6.201044E-05
vt -0.7675026 6.201044E-05
vt -0.1675026 1.000062
vt -0.7675026 1.000062

usemtl _defaultMat

f 3/1/1 2/1/1 1/1/1
f 2/1/1 3/1/1 4/1/1

usemtl concrete

f 7/4/2 6/3/2 5/2/2
f 6/3/2 7/4/2 8/5/2

usemtl wall

f 3/8/3 8/7/3 4/6/3
f 8/7/3 3/8/3 6/9/3
f 8/7/4 2/10/4 4/6/4
f 2/10/4 8/7/4 7/11/4
f 5/12/5 2/10/5 7/11/5
f 2/10/5 5/12/5 1/13/5
f 5/16/6 3/15/6 1/14/6
f 3/15/6 5/16/6 6/17/6

