# Created by Kenney (www.kenney.nl)

mtllib wallA_lowPainted.mtl

g wallA_lowPainted

v -0.5 0 -0.5
v 0.5 0 -0.5
v -0.5 0.25 -0.5
v 0.5 0.25 -0.5
v 0.5 0.25 0.5
v -0.5 0.25 0.5
v 0.5 0.5 0.5
v -0.5 0.5 0.5
v -0.5 0.5 -0.5
v 0.5 0 0.5
v 0.5 0.5 -0.5
v -0.5 0 0.5

vn 0 0 -1
vn 0 0 1
vn -1 0 0
vn 1 0 0
vn 0 1 0
vn 0 -1 0

vt 0 0
vt -1 0
vt 0 0.25
vt -1 0.25
vt 2 -0.25
vt 1 -0.25
vt 2 -5.551115E-17
vt 1 -5.551115E-17
vt -5.551115E-17 -0.25
vt -5.551115E-17 0
vt 1 0
vt -2 0.25
vt -2 0
vt 0 -0.25
vt -1 -0.25
vt 1 0.25
vt 3 -3.885781E-16
vt 3 -0.25
vt 2 -3.885781E-16
vt -3 0
vt -3 0.25
vt 4 -11
vt 4 -10
vt 5 -11
vt 5 -10
vt -14 -10
vt -14 -11
vt -15 -10
vt -15 -11

usemtl wall

f 3/3/1 2/2/1 1/1/1
f 2/2/1 3/3/1 4/4/1
f 7/7/2 6/6/2 5/5/2
f 6/6/2 7/7/2 8/8/2
f 6/6/3 9/10/3 3/9/3
f 9/10/3 6/6/3 8/11/3
f 5/12/4 2/2/4 4/4/4
f 2/2/4 5/12/4 10/13/4
f 9/1/1 4/15/1 3/14/1
f 4/15/1 9/1/1 11/2/1
f 12/11/3 3/3/3 1/1/3
f 3/3/3 12/11/3 6/16/3
f 7/19/4 4/18/4 11/17/4
f 4/18/4 7/19/4 5/5/4
f 5/12/2 12/20/2 10/13/2
f 12/20/2 5/12/2 6/21/2

usemtl concrete

f 9/24/5 7/23/5 11/22/5
f 7/23/5 9/24/5 8/25/5
f 12/28/6 2/27/6 10/26/6
f 2/27/6 12/28/6 1/29/6

