# Created by Kenney (www.kenney.nl)

mtllib wallA_flatGarage.mtl

g wallA_flatGarage

v -0.5 0 0
v -0.3499999 0 0
v -0.5 1 0
v -0.3499999 0.67 0
v 0.3499999 0.67 0
v 0.5 1 0
v 0.5 0 0
v 0.3499999 0 0
v -0.3499999 0 0.0999999
v 0.3499999 0 0.0999999
v -0.3499999 0.67 0.0999999
v 0.3499999 0.67 0.0999999

vn 0 0 -1
vn -1 0 0
vn 1 0 0
vn 0 -1 0

vt 1 0
vt 0.85 0
vt 1 1
vt 0.85 0.67
vt 0.15 0.67
vt 0 1
vt 0 0
vt 0.15 0
vt 0 0.67
vt 0.1 0
vt 0.1 0.67
vt -0.1 0.67
vt -0.1 0
vt -16.15 -10.9
vt -16.15 -11
vt -16.85 -10.9
vt -16.85 -11

usemtl wall_garage

f 3/3/1 2/2/1 1/1/1
f 2/2/1 3/3/1 4/4/1
f 4/4/1 3/3/1 5/5/1
f 6/6/1 5/5/1 3/3/1
f 7/7/1 5/5/1 6/6/1
f 5/5/1 7/7/1 8/8/1
f 11/4/1 10/8/1 9/2/1
f 10/8/1 11/4/1 12/5/1

usemtl wall

f 10/10/2 5/9/2 8/7/2
f 5/9/2 10/10/2 12/11/2
f 11/12/3 2/7/3 4/9/3
f 2/7/3 11/12/3 9/13/3

usemtl concrete

f 11/16/4 5/15/4 12/14/4
f 5/15/4 11/16/4 4/17/4

