# Created by Kenney (www.kenney.nl)

mtllib wallA_door.mtl

g wallA_door

v 0.5 1 -0.5
v 0.5 0 -0.5
v 0.5 1 0.5
v 0.5 0 0.5
v -0.5 0 -0.5
v -0.5 1 -0.5
v -0.5 0 0.5
v -0.5 1 0.5
v -0.1988969 0 -0.5
v -0.1988969 0.6277938 -0.5
v 0.1988969 0.6277938 -0.5
v 0.1988969 0 -0.5
v 0.1465726 0 -0.4749999
v -0.1465726 0 -0.4749999
v -0.1465726 0 -0.5
v 0.1465726 0 -0.5
v 0.1465726 0.5754694 -0.4749999
v 0.1465726 0.5754694 -0.5
v -0.1465726 0.5754694 -0.4749999
v -0.1465726 0.5754694 -0.5

vn 1 0 0
vn -1 0 0
vn 0 0 1
vn 0 0 -1
vn 0 1 0
vn 0 -1 0

vt 2 2
vt 2 1
vt 1 2
vt 1 1
vt 3 1
vt 3 2
vt 4 0.9999999
vt 4 2
vt 5 0.9999998
vt 5 2
vt 2.698897 1
vt 2.698897 1.627794
vt 2.301103 1.627794
vt 2 2
vt 2 1
vt 2.301103 1
vt 3 -11
vt 3 -10
vt 4 -11
vt 4 -10
vt -20 -6
vt -20 -7
vt -21 -6
vt -20.3011 -7
vt -20.35343 -6.975
vt -20.64657 -6.975
vt -20.64657 -7
vt -20.6989 -7
vt -21 -7
vt -20.35343 -7
vt -2.994704 -0.7276673
vt -2.994704 -0.7776672
vt -3.287849 -0.7276673
vt -3.287849 -0.7776672
vt 8.108132 2.776572
vt 8.108132 2.201103
vt 8.058132 2.776572
vt 8.058132 2.201103
vt 2.150591 2.201103
vt 2.150591 2.776572
vt 2.200591 2.201103
vt 2.200591 2.776572
vt 13.5989 2.201103
vt 13.54657 2.201103
vt 13.5989 2.828897
vt 13.54657 2.776572
vt 13.25343 2.776572
vt 13.2011 2.828897
vt 13.2011 2.201103
vt 13.25343 2.201103
vt 0.5065235 0
vt 0 0
vt 0.5065239 0.9943498
vt 3.827005E-07 0.9943498

usemtl wall_lines

f 3/3/1 2/2/1 1/1/1
f 2/2/1 3/3/1 4/4/1
f 7/7/2 6/6/2 5/5/2
f 6/6/2 7/7/2 8/8/2
f 3/10/3 7/7/3 4/9/3
f 7/7/3 3/10/3 8/8/3
f 6/6/4 9/11/4 5/5/4
f 9/11/4 6/6/4 10/12/4
f 10/12/4 6/6/4 11/13/4
f 1/14/4 11/13/4 6/6/4
f 2/15/4 11/13/4 1/14/4
f 11/13/4 2/15/4 12/16/4

usemtl concrete

f 6/19/5 3/18/5 1/17/5
f 3/18/5 6/19/5 8/20/5
f 7/23/6 2/22/6 4/21/6
f 2/22/6 7/23/6 12/24/6
f 12/24/6 7/23/6 13/25/6
f 13/25/6 7/23/6 14/26/6
f 14/26/6 7/23/6 15/27/6
f 15/27/6 7/23/6 9/28/6
f 9/28/6 7/23/6 5/29/6
f 16/30/6 12/24/6 13/25/6

usemtl metal

f 19/33/6 18/32/6 17/31/6
f 18/32/6 19/33/6 20/34/6
f 19/37/1 15/36/1 20/35/1
f 15/36/1 19/37/1 14/38/1
f 13/41/2 18/40/2 16/39/2
f 18/40/2 13/41/2 17/42/2
f 10/45/4 15/44/4 9/43/4
f 15/44/4 10/45/4 20/46/4
f 20/46/4 10/45/4 18/47/4
f 11/48/4 18/47/4 10/45/4
f 12/49/4 18/47/4 11/48/4
f 18/47/4 12/49/4 16/50/4

usemtl doors

f 19/53/4 13/52/4 14/51/4
f 13/52/4 19/53/4 17/54/4

