# Created by Kenney (www.kenney.nl)

mtllib wallB_flatWindow.mtl

g wallB_flatWindow

v 0.2465725 0.2534275 0
v 0.2465725 0.7465725 0
v 0.2465725 0.2534275 0.0999999
v 0.2465725 0.7465725 0.0999999
v -0.2465725 0.7465725 0
v -0.2465725 0.2534275 0
v -0.2465725 0.7465725 0.0999999
v -0.2465725 0.2534275 0.0999999
v 0.2988968 0.2011031 0
v -0.2988968 0.2011031 0
v -0.2988968 0.7988969 0
v 0.2988968 0.7988969 0
v 0.5 0 0
v -0.5 0 0
v -0.5 1 0
v 0.5 1 0

vn -1 0 0
vn 1 0 0
vn 0 1 0
vn 0 -1 0
vn 0 0 -1

vt 13.25343 2.253428
vt 13.25343 2.746572
vt 13.35343 2.253428
vt 13.35343 2.746572
vt 13.74657 2.746572
vt 13.74657 2.253428
vt 13.64657 2.746572
vt 13.64657 2.253428
vt 13.25343 2.353427
vt 13.74657 2.353427
vt 13.25343 2.646573
vt 13.74657 2.646573
vt 13.2011 2.201103
vt 13.7989 2.201103
vt 13.7989 2.798897
vt 13.2011 2.798897
vt 12.49314 2
vt 12 2
vt 12.49314 2.493145
vt 12 2.493145
vt 13 0
vt 13.7989 0.2011031
vt 14 0
vt 14 1
vt 13.7989 0.7988969
vt 13.2011 0.7988969
vt 13.2011 0.2011031
vt 13 1

usemtl metal

f 3/3/1 2/2/1 1/1/1
f 2/2/1 3/3/1 4/4/1
f 7/7/2 6/6/2 5/5/2
f 6/6/2 7/7/2 8/8/2
f 6/6/3 3/9/3 1/1/3
f 3/9/3 6/6/3 8/10/3
f 7/12/4 2/2/4 4/11/4
f 2/2/4 7/12/4 5/5/4
f 10/14/5 6/6/5 9/13/5
f 6/6/5 10/14/5 11/15/5
f 6/6/5 11/15/5 5/5/5
f 5/5/5 11/15/5 2/2/5
f 1/1/5 9/13/5 6/6/5
f 9/13/5 1/1/5 12/16/5
f 12/16/5 1/1/5 2/2/5
f 12/16/5 2/2/5 11/15/5

usemtl windows

f 7/19/5 3/18/5 8/17/5
f 3/18/5 7/19/5 4/20/5

usemtl wall_metal

f 14/23/5 10/22/5 13/21/5
f 10/22/5 14/23/5 15/24/5
f 10/22/5 15/24/5 11/25/5
f 11/25/5 15/24/5 12/26/5
f 9/27/5 13/21/5 10/22/5
f 13/21/5 9/27/5 16/28/5
f 16/28/5 9/27/5 12/26/5
f 16/28/5 12/26/5 15/24/5

