# Created by Kenney (www.kenney.nl)

mtllib wallB_roof.mtl

g wallB_roof

v 0.5 1.804779E-16 0.5
v 0.5 0 0.4000001
v -0.5 1.804779E-16 0.5
v 0.5 0 -0.4000001
v 0.5 1.804779E-16 -0.5
v -0.5 1.804779E-16 -0.5
v -0.5 0 0.4000001
v -0.5 0 -0.4000001
v 0.5 0.5 0
v -0.5 0.5 0
v -0.5 0.4 0
v 0.5 0.4 0

vn 0 -1 0
vn 0 0.7071068 0.7071068
vn 0 0.7071068 -0.7071068
vn -1 0 0
vn 1 0 0

vt -14 -10
vt -13.9 -10
vt -14 -11
vt -13.1 -10
vt -13 -10
vt -13 -11
vt -13.9 -11
vt -13.1 -11
vt -2 -4
vt -3 -4
vt -2 -3.292893
vt -3 -3.292893
vt 11 6.707107
vt 12 6.707107
vt 11 6
vt 12 6
vt -4 -5
vt -4 -4
vt -3.9 -4.9
vt -3.9 -4.1
vt 9.1 1
vt 9.5 1.4
vt 9.9 1
vt -10.5 1.4
vt -10.1 1
vt -10.9 1

usemtl concrete

f 3/3/1 2/2/1 1/1/1
f 2/2/1 3/3/1 4/4/1
f 4/4/1 3/3/1 5/5/1
f 5/5/1 3/3/1 6/6/1
f 6/6/1 3/3/1 7/7/1
f 6/6/1 7/7/1 8/8/1

usemtl roof_plates

f 9/11/2 3/10/2 1/9/2
f 3/10/2 9/11/2 10/12/2
f 5/15/3 10/14/3 9/13/3
f 10/14/3 5/15/3 6/16/3
f 8/19/4 10/18/4 6/17/4
f 10/18/4 8/19/4 11/20/4
f 7/19/4 10/18/4 11/20/4
f 10/18/4 7/19/4 3/17/4
f 9/18/5 2/19/5 12/20/5
f 2/19/5 9/18/5 1/17/5
f 9/18/5 4/19/5 5/17/5
f 4/19/5 9/18/5 12/20/5

usemtl wall_metal

f 7/23/4 11/22/4 8/21/4
f 2/26/5 4/25/5 12/24/5

