# Created by Kenney (www.kenney.nl)

mtllib wallA_detail.mtl

g wallA_detail

v 0.3000002 0 0.0999999
v 0.1999998 0 -0.0999999
v -0.3000002 0 0.0999999
v -0.1999998 0 -0.0999999
v 0.3000002 1 0.0999999
v -0.3000002 1 0.0999999
v 0.1999998 1 -0.0999999
v -0.1999998 1 -0.0999999

vn 0 -1 0
vn 0 1 0
vn -0.8944272 0 -0.4472136
vn 0 0 -1
vn 0.8944272 0 -0.4472136
vn 0 0 1

vt 0 0
vt 4.2 -11
vt 4.8 -11
vt 4.3 -11.2
vt 4.7 -11.2
vt -1.370572 0.9999998
vt -1.370572 2
vt -1.146965 0.9999998
vt -1.146965 2
vt 2.7 0.9999998
vt 2.299999 0.9999998
vt 2.7 2
vt 2.3 2
vt 2.3 2
vt 2.3 1
vt 2.076393 2
vt 2.076393 1
vt -8.280432 0
vt -8.880432 0
vt -8.280432 1
vt -8.880432 1

usemtl _defaultMat

f 3/1/1 2/1/1 1/1/1
f 2/1/1 3/1/1 4/1/1

usemtl concrete

f 7/4/2 6/3/2 5/2/2
f 6/3/2 7/4/2 8/5/2

usemtl wall_lines

f 3/8/3 8/7/3 4/6/3
f 8/7/3 3/8/3 6/9/3
f 8/12/4 2/11/4 4/10/4
f 2/11/4 8/12/4 7/13/4
f 5/16/5 2/15/5 7/14/5
f 2/15/5 5/16/5 1/17/5
f 5/20/6 3/19/6 1/18/6
f 3/19/6 5/20/6 6/21/6

