# Created by Kenney (www.kenney.nl)

mtllib wallA_window.mtl

g wallA_window

v 0.5 1 -0.5
v 0.5 1 0.5
v -0.5 1 -0.5
v -0.5 1 0.5
v 0.5 0 0.5
v 0.5 0 -0.5
v -0.5 0 0.5
v -0.5 0 -0.5
v -0.2988968 0.2011031 -0.5
v -0.2988968 0.7988969 -0.5
v 0.2988968 0.7988969 -0.5
v 0.2988968 0.2011031 -0.5
v -0.2465725 0.7465725 -0.5
v -0.2465725 0.2534275 -0.5
v -0.2465725 0.7465725 -0.4000001
v -0.2465725 0.2534275 -0.4000001
v 0.2465725 0.7465725 -0.5
v 0.2465725 0.2534275 -0.5
v 0.2465725 0.2534275 -0.4000001
v 0.2465725 0.7465725 -0.4000001

vn 0 1 0
vn 0 -1 0
vn 0 0 1
vn -1 0 0
vn 1 0 0
vn 0 0 -1

vt 3 -11
vt 3 -10
vt 4 -11
vt 4 -10
vt -13 -10
vt -13 -11
vt -14 -10
vt -14 -11
vt 5 0.9999998
vt 4 0.9999999
vt 5 2
vt 4 2
vt 3 1
vt 3 2
vt 2 2
vt 2 1
vt 1 2
vt 1 1
vt 2 1
vt 2.798897 1.201103
vt 2.798897 1.798897
vt 2.201103 1.798897
vt 2.201103 1.201103
vt 2 2
vt 13.74657 2.746572
vt 13.74657 2.253428
vt 13.64657 2.746572
vt 13.64657 2.253428
vt 13.2011 2.201103
vt 13.7989 2.201103
vt 13.7989 2.798897
vt 13.25343 2.746572
vt 13.25343 2.253428
vt 13.2011 2.798897
vt 13.35343 2.253428
vt 13.35343 2.746572
vt 13.25343 2.353427
vt 13.74657 2.353427
vt 13.25343 2.646573
vt 13.74657 2.646573
vt 13.00599 2.505376
vt 12.51284 2.505376
vt 13.00599 2.998521
vt 12.51284 2.998521

usemtl concrete

f 3/3/1 2/2/1 1/1/1
f 2/2/1 3/3/1 4/4/1
f 7/7/2 6/6/2 5/5/2
f 6/6/2 7/7/2 8/8/2

usemtl wall_lines

f 2/11/3 7/10/3 5/9/3
f 7/10/3 2/11/3 4/12/3
f 7/10/4 3/14/4 8/13/4
f 3/14/4 7/10/4 4/12/4
f 2/17/5 6/16/5 1/15/5
f 6/16/5 2/17/5 5/18/5
f 8/13/6 9/20/6 6/19/6
f 9/20/6 8/13/6 3/14/6
f 9/20/6 3/14/6 10/21/6
f 10/21/6 3/14/6 11/22/6
f 12/23/6 6/19/6 9/20/6
f 6/19/6 12/23/6 1/24/6
f 1/24/6 12/23/6 11/22/6
f 1/24/6 11/22/6 3/14/6

usemtl metal

f 15/27/5 14/26/5 13/25/5
f 14/26/5 15/27/5 16/28/5
f 9/30/6 14/26/6 12/29/6
f 14/26/6 9/30/6 10/31/6
f 14/26/6 10/31/6 13/25/6
f 13/25/6 10/31/6 17/32/6
f 18/33/6 12/29/6 14/26/6
f 12/29/6 18/33/6 11/34/6
f 11/34/6 18/33/6 17/32/6
f 11/34/6 17/32/6 10/31/6
f 19/35/4 17/32/4 18/33/4
f 17/32/4 19/35/4 20/36/4
f 14/26/1 19/37/1 18/33/1
f 19/37/1 14/26/1 16/38/1
f 15/40/2 17/32/2 20/39/2
f 17/32/2 15/40/2 13/25/2

usemtl windows

f 15/43/6 19/42/6 16/41/6
f 19/42/6 15/43/6 20/44/6

