# Created by Kenney (www.kenney.nl)

mtllib wallA_corner.mtl

g wallA_corner

v 0 0 -0.5
v 0.5 0 -0.5
v 0 1 -0.5
v 0.5 1 -0.5
v 0.5 0 0.5
v -0.5 0 0.5
v 0.5 1 0.5
v -0.5 1 0.5
v -0.5 0 0
v -0.5 1 0
v 0 0 0
v 0 1 0

vn 0 0 -1
vn 0 0 1
vn -1 0 0
vn 1 0 0
vn 0 -1 0
vn 0 1 0

vt 2.5 0.9999998
vt 2 0.9999998
vt 2.5 2
vt 2 2
vt 5 0.9999998
vt 4 0.9999999
vt 5 2
vt 4 2
vt 3.5 0.9999999
vt 3.5 2
vt 2 2
vt 2 1
vt 1 2
vt 1 1
vt 3 1
vt 3 2
vt 2.5 1
vt 2.5 2
vt 3 0.9999999
vt -13 -10
vt -13 -11
vt -14 -10
vt -13.5 -10.5
vt -14 -10.5
vt -13.5 -11
vt 3 -11
vt 3 -10
vt 3.5 -11
vt 3.5 -10.5
vt 4 -10
vt 4 -10.5

usemtl wall_lines

f 3/3/1 2/2/1 1/1/1
f 2/2/1 3/3/1 4/4/1
f 7/7/2 6/6/2 5/5/2
f 6/6/2 7/7/2 8/8/2
f 6/6/3 10/10/3 9/9/3
f 10/10/3 6/6/3 8/8/3
f 7/13/4 2/12/4 4/11/4
f 2/12/4 7/13/4 5/14/4
f 10/10/1 11/15/1 9/9/1
f 11/15/1 10/10/1 12/16/1
f 11/19/3 3/18/3 1/17/3
f 3/18/3 11/19/3 12/16/3

usemtl concrete

f 6/22/5 2/21/5 5/20/5
f 2/21/5 6/22/5 11/23/5
f 11/23/5 6/22/5 9/24/5
f 1/25/5 2/21/5 11/23/5
f 3/28/6 7/27/6 4/26/6
f 7/27/6 3/28/6 12/29/6
f 7/27/6 12/29/6 8/30/6
f 8/30/6 12/29/6 10/31/6

