# Created by Kenney (www.kenney.nl)

mtllib wallA_garage.mtl

g wallA_garage

v -0.5 0 -0.5
v -0.3499999 0 -0.5
v -0.5 1 -0.5
v -0.3499999 0.67 -0.5
v 0.3499999 0.67 -0.5
v 0.5 1 -0.5
v 0.5 0 -0.5
v 0.3499999 0 -0.5
v -0.3499999 0 -0.4000001
v 0.3499999 0 -0.4000001
v -0.3499999 0.67 -0.4000001
v 0.3499999 0.67 -0.4000001
v 0.5 1 0.5
v -0.5 1 0.5
v 0.5 0 0.5
v -0.5 0 0.5

vn 0 0 -1
vn 0 1 0
vn 0 -1 0
vn 0 0 1
vn -1 0 0
vn 1 0 0

vt 1 0
vt 0.85 0
vt 1 1
vt 0.85 0.67
vt 0.15 0.67
vt 0 1
vt 0 0
vt 0.15 0
vt 5 -11
vt 5 -10
vt 6 -11
vt 6 -10
vt -16 -10
vt -16 -11
vt -17 -10
vt -16.15 -10.9
vt -16.85 -10.9
vt -16.85 -11
vt -17 -11
vt -16.15 -11
vt -2 0
vt -3 0
vt -2 1
vt -3 1
vt -1 1
vt -1 0
vt -0.5 0
vt -0.5 0.67
vt -0.4 0
vt -0.4 0.67
vt 0.5 0.67
vt 0.5 0
vt 0.4 0.67
vt 0.4 0

usemtl wall_garage

f 3/3/1 2/2/1 1/1/1
f 2/2/1 3/3/1 4/4/1
f 4/4/1 3/3/1 5/5/1
f 6/6/1 5/5/1 3/3/1
f 7/7/1 5/5/1 6/6/1
f 5/5/1 7/7/1 8/8/1
f 11/4/1 10/8/1 9/2/1
f 10/8/1 11/4/1 12/5/1

usemtl concrete

f 3/11/2 13/10/2 6/9/2
f 13/10/2 3/11/2 14/12/2
f 16/15/3 7/14/3 15/13/3
f 7/14/3 16/15/3 10/16/3
f 10/16/3 16/15/3 9/17/3
f 9/17/3 16/15/3 2/18/3
f 2/18/3 16/15/3 1/19/3
f 8/20/3 7/14/3 10/16/3
f 11/17/3 5/20/3 12/16/3
f 5/20/3 11/17/3 4/18/3

usemtl wall

f 13/23/4 16/22/4 15/21/4
f 16/22/4 13/23/4 14/24/4
f 16/1/5 3/6/5 1/7/5
f 3/6/5 16/1/5 14/3/5
f 13/23/6 7/26/6 6/25/6
f 7/26/6 13/23/6 15/21/6
f 10/29/5 5/28/5 8/27/5
f 5/28/5 10/29/5 12/30/5
f 11/33/6 2/32/6 4/31/6
f 2/32/6 11/33/6 9/34/6

