# Created by Kenney (www.kenney.nl)

mtllib wallA_flatWindow.mtl

g wallA_flatWindow

v -0.2465725 0.7465725 0
v -0.2465725 0.2534275 0
v -0.2465725 0.7465725 0.0999999
v -0.2465725 0.2534275 0.0999999
v 0.2988968 0.2011031 0
v -0.2988968 0.2011031 0
v -0.2988968 0.7988969 0
v 0.2465725 0.7465725 0
v 0.2465725 0.2534275 0
v 0.2988968 0.7988969 0
v 0.2465725 0.2534275 0.0999999
v 0.2465725 0.7465725 0.0999999
v 0.5 0 0
v -0.5 0 0
v -0.5 1 0
v 0.5 1 0

vn 1 0 0
vn 0 0 -1
vn -1 0 0
vn 0 1 0
vn 0 -1 0

vt 13.74657 2.746572
vt 13.74657 2.253428
vt 13.64657 2.746572
vt 13.64657 2.253428
vt 13.2011 2.201103
vt 13.7989 2.201103
vt 13.7989 2.798897
vt 13.25343 2.746572
vt 13.25343 2.253428
vt 13.2011 2.798897
vt 13.35343 2.253428
vt 13.35343 2.746572
vt 13.25343 2.353427
vt 13.74657 2.353427
vt 13.25343 2.646573
vt 13.74657 2.646573
vt 13.00599 2.505376
vt 12.51284 2.505376
vt 13.00599 2.998521
vt 12.51284 2.998521
vt 2 1
vt 2.798897 1.201103
vt 3 1
vt 3 2
vt 2.798897 1.798897
vt 2.201103 1.798897
vt 2.201103 1.201103
vt 2 2

usemtl metal

f 3/3/1 2/2/1 1/1/1
f 2/2/1 3/3/1 4/4/1
f 6/6/2 2/2/2 5/5/2
f 2/2/2 6/6/2 7/7/2
f 2/2/2 7/7/2 1/1/2
f 1/1/2 7/7/2 8/8/2
f 9/9/2 5/5/2 2/2/2
f 5/5/2 9/9/2 10/10/2
f 10/10/2 9/9/2 8/8/2
f 10/10/2 8/8/2 7/7/2
f 11/11/3 8/8/3 9/9/3
f 8/8/3 11/11/3 12/12/3
f 2/2/4 11/13/4 9/9/4
f 11/13/4 2/2/4 4/14/4
f 3/16/5 8/8/5 12/15/5
f 8/8/5 3/16/5 1/1/5

usemtl windows

f 3/19/2 11/18/2 4/17/2
f 11/18/2 3/19/2 12/20/2

usemtl wall_lines

f 14/23/2 6/22/2 13/21/2
f 6/22/2 14/23/2 15/24/2
f 6/22/2 15/24/2 7/25/2
f 7/25/2 15/24/2 10/26/2
f 5/27/2 13/21/2 6/22/2
f 13/21/2 5/27/2 16/28/2
f 16/28/2 5/27/2 10/26/2
f 16/28/2 10/26/2 15/24/2

