# Alias OBJ Model File
# Exported from SketchUp, (c) 2000-2012 Trimble Navigation Limited
# File units = meters

mtllib knife_sharp.mtl

g Mesh1 Group1 Model

usemtl Gray4
v -0.0006 -0.0048 0.0033
vt -2.3622 14.9606
vn -1 3.95734e-015 1.81795e-015
v -0.0006 0.021 0.0033
vt -2.3622 31.8898
v -0.0006 0.0276 -0.0039
vt -7.08661 36.2205
v -0.0006 -0.0048 -0.0039
vt -7.08661 14.9606
f 1/1/1 2/2/1 3/3/1 4/4/1 

usemtl Gray3
vt 0.139194 14.9606
vn -0.707107 3.11613e-015 0.707107
v -1.62148e-017 -0.0048 0.0039
vt 0.695971 14.9606
v 9.23539e-017 0.021 0.0039
vt 0.695971 31.8898
vt 0.139194 31.8898
f 1/5/2 5/6/2 6/7/2 2/8/2 

usemtl Gray5
v -0.0033 -0.0048 0.0069
vt 0.787402 0
vn 0 1 -0
vt 2.95276 1.9685
vt 2.55906 2.3622
f 7/9/3 5/10/3 1/11/3

v 0.0033 -0.0048 0.0069
vt 5.11811 0
f 5/10/3 7/9/3 8/12/3

vt 5.11811 14.9606
vn 0 0 1
vt 0.787402 14.9606
v -0.0033 -0.006 0.0069
vt 0.787402 14.1732
v 0.0033 -0.006 0.0069
vt 5.11811 14.1732
f 8/13/4 7/14/4 9/15/4 10/16/4 

v -0.0045 -0.006 0.0057
vt -0.556777 14.1732
vn -0.707107 0 0.707107
vt 0.556777 14.1732
vt 0.556777 14.9606
v -0.0045 -0.0048 0.0057
vt -0.556777 14.9606
f 11/17/5 9/18/5 7/19/5 12/20/5 

v -0.0036 -0.006 1.29718e-016
vt -0.590551 4.52756
vn 0 -1 -0
vt -0.787402 0
vt -1.42109e-013 0.787402
f 13/21/6 9/22/6 11/23/6

v -0.0018 -0.006 0.00415692
vt -1.77165 1.79992
f 9/22/6 13/21/6 14/24/6

usemtl WarmGray8
vt -0.947736 14.1732
vn -0.917663 1.02505e-031 0.39736
vt -3.92011 14.1732
v -0.0036 -0.0222 1.29718e-016
vt -3.92011 3.54331
v -0.0018 -0.0222 0.00415692
vt -0.947736 3.54331
f 14/25/7 13/26/7 15/27/7 16/28/7 

vt -4.38943 14.1732
vn -0.917663 0 -0.39736
v -0.0018 -0.006 -0.00415692
vt -7.36181 14.1732
v -0.0018 -0.0222 -0.00415692
vt -7.36181 3.54331
vt -4.38943 3.54331
f 13/29/8 17/30/8 18/31/8 15/32/8 

usemtl Gray5
v -0.0033 -0.006 -0.0069
vt -0.787402 9.05512
vt -1.77165 7.2552
f 13/21/6 19/33/6 17/34/6

f 11/23/6 19/33/6 13/21/6

v -0.0045 -0.006 -0.0057
vt 0 8.26772
f 19/33/6 11/23/6 20/35/6

vt -8.26772 14.1732
vn -1 0 1.80478e-014
vt -0.787402 14.1732
vt -0.787402 14.9606
v -0.0045 -0.0048 -0.0057
vt -8.26772 14.9606
f 20/36/9 11/37/9 12/38/9 21/39/9 

vt 1.42109e-013 0.787402
v -0.0033 -0.0048 -0.0069
vt 0.787402 9.05512
f 12/40/3 22/41/3 21/35/3

f 22/41/3 12/40/3 7/9/3

vt 2.55906 7.08661
f 22/41/3 7/9/3 4/42/3

f 4/42/3 7/9/3 1/11/3

v 0.0033 -0.0048 -0.0069
vt 5.11811 9.05512
f 22/41/3 4/42/3 23/43/3

v 0.0006 -0.0048 -0.0039
vt 3.34646 7.08661
f 23/43/3 4/42/3 24/44/3

usemtl Gray4
vt -2.55906 14.9606
vn 0 0 -1
vt -2.55906 36.2205
v 0.0006 0.0276 -0.0039
vt -3.34646 36.2205
vt -3.34646 14.9606
f 4/45/10 3/46/10 25/47/10 24/48/10 

usemtl Gray3
v 9.23539e-017 0.0276 -0.0033
vt 2.95276 6.69291
f 25/44/3 3/42/3 26/49/3

vt 0.139194 27.3757
vn -0.559885 0.610784 0.559885
vt 0.695971 27.3757
vt -2.64469 32.8451
vt -3.20147 32.8451
f 2/50/11 6/51/11 26/52/11 3/53/11 

vt 3.47986 24.8251
vn 0.559885 0.610784 0.559885
v 0.0006 0.021 0.0033
vt 4.03663 24.8251
vt 7.3773 30.2946
vt 6.82052 30.2946
f 6/54/12 27/55/12 25/56/12 26/57/12 

vt 3.47986 14.9606
vn 0.707107 -2.8192e-015 0.707107
v 0.0006 -0.0048 0.0033
vt 4.03663 14.9606
vt 4.03663 31.8898
vt 3.47986 31.8898
f 5/58/13 28/59/13 27/60/13 6/61/13 

usemtl Gray5
vt 3.34646 2.3622
f 5/10/3 8/12/3 28/62/3

f 28/62/3 8/12/3 24/44/3

f 23/43/3 24/44/3 8/12/3

v 0.0045 -0.0048 0.0057
vt 5.90551 0.787402
f 23/43/3 8/12/3 29/63/3

vt 4.7326 14.9606
vn 0.707107 0 0.707107
vt 3.61905 14.9606
vt 3.61905 14.1732
v 0.0045 -0.006 0.0057
vt 4.7326 14.1732
f 29/64/14 8/65/14 10/66/14 30/67/14 

vt -5.11811 0
v 0.0036 -0.006 1.29718e-016
vt -5.31496 4.52756
vt -5.90551 0.787402
f 10/68/6 31/69/6 30/70/6

v 0.0018 -0.006 0.00415692
vt -4.13386 1.79992
f 10/68/6 32/71/6 31/69/6

f 10/68/6 14/24/6 32/71/6

f 9/22/6 14/24/6 10/68/6

usemtl WarmGray8
v 0.0018 -0.0222 0.00415692
vt 4.13386 3.54331
vt 4.13386 14.1732
vt 1.77165 14.1732
vt 1.77165 3.54331
f 33/72/4 32/73/4 14/74/4 16/75/4 

vt 3.29435 3.54331
vn 0.917663 0 0.39736
v 0.0036 -0.0222 1.29718e-016
vt 6.26672 3.54331
vt 6.26672 14.1732
vt 3.29435 14.1732
f 33/76/15 34/77/15 31/78/15 32/79/15 

v 0.00225 -0.024 0.00519615
vt 2.78592 0.637264
vn 0.834058 0.417029 0.361158
v 0.0045 -0.024 1.29718e-016
vt 6.50139 0.637264
vt 6.26672 1.93676
vt 3.29435 1.93676
f 35/80/16 36/81/16 34/82/16 33/83/16 

v 0.00225 -0.0276 0.00519615
vt 2.78592 0
v 0.0045 -0.0276 1.29718e-016
vt 6.50139 0
vt 6.50139 2.3622
vt 2.78592 2.3622
f 37/84/15 38/85/15 36/86/15 35/87/15 

v 0.00225 -0.0276 -0.00519615
vt -4.42913 7.93711
vt -5.90551 4.52756
vt -4.42913 1.11801
v -0.00225 -0.0276 0.00519615
vt -1.47638 1.11801
v -0.0045 -0.0276 1.29718e-016
vt -1.42109e-013 4.52756
v -0.00225 -0.0276 -0.00519615
vt -1.47638 7.93711
f 39/88/6 38/89/6 37/90/6 40/91/6 41/92/6 42/93/6 

vt 1.80816 0
vn 0.917663 0 -0.39736
vt 5.52363 0
v 0.00225 -0.024 -0.00519615
vt 5.52363 2.3622
vt 1.80816 2.3622
f 38/94/17 39/95/17 43/96/17 36/97/17 

vt -4.42913 0
vt -1.47638 0
v -0.00225 -0.024 -0.00519615
vt -1.47638 2.3622
vt -4.42913 2.3622
f 39/98/10 42/99/10 44/100/10 43/101/10 

vt -7.87024 0
vt -4.15477 0
v -0.0045 -0.024 1.29718e-016
vt -4.15477 2.3622
vt -7.87024 2.3622
f 42/102/8 41/103/8 45/104/8 44/105/8 

vn -0.917663 0 0.39736
vt -0.439303 0
v -0.00225 -0.024 0.00519615
vt -0.439303 2.3622
f 41/103/18 40/106/18 46/107/18 45/104/18 

vt 1.47638 0
vt 4.42913 0
vt 4.42913 2.3622
vt 1.47638 2.3622
f 40/108/4 37/109/4 35/110/4 46/111/4 

vt 4.42913 2.60473
vn 0 0.5 0.866025
vt 4.13386 3.96855
vt 1.77165 3.96855
vt 1.47638 2.60473
f 35/112/19 33/113/19 16/114/19 46/115/19 

vt -0.439303 2.89726
vn -0.834058 0.417029 0.361158
vt -0.947736 4.19675
vt -3.92011 4.19675
vt -4.15477 2.89726
f 46/116/20 16/117/20 15/118/20 45/119/20 

vt -4.38943 2.69622
vn -0.834058 0.417029 -0.361158
vt -7.36181 2.69622
vt -7.87024 1.39673
vt -4.15477 1.39673
f 15/120/21 18/121/21 44/122/21 45/123/21 

vt -1.47638 -1.92282
vn 0 0.5 -0.866025
vt -1.77165 -0.559005
v 0.0018 -0.0222 -0.00415692
vt -4.13386 -0.559005
vt -4.42913 -1.92282
f 44/124/22 18/125/22 47/126/22 43/127/22 

vt -1.77165 3.54331
vt -1.77165 14.1732
v 0.0018 -0.006 -0.00415692
vt -4.13386 14.1732
vt -4.13386 3.54331
f 18/128/10 17/129/10 48/130/10 47/131/10 

usemtl Gray5
v 0.0033 -0.006 -0.0069
vt -5.11811 9.05512
vt -4.13386 7.2552
f 17/34/6 49/132/6 48/133/6

f 17/34/6 19/33/6 49/132/6

vt -5.11811 14.9606
vt -5.11811 14.1732
f 22/38/10 23/134/10 49/135/10 19/37/10 

v 0.0045 -0.006 -0.0057
vt 1.67033 14.1732
vn 0.707107 0 -0.707107
vt 2.78388 14.1732
vt 2.78388 14.9606
v 0.0045 -0.0048 -0.0057
vt 1.67033 14.9606
f 50/136/23 49/137/23 23/138/23 51/139/23 

vt -5.90551 8.26772
f 31/69/6 49/132/6 50/140/6

f 48/133/6 49/132/6 31/69/6

usemtl WarmGray8
vt 2.04282 3.54331
vt 5.0152 3.54331
vt 5.0152 14.1732
vt 2.04282 14.1732
f 34/141/17 47/142/17 48/143/17 31/144/17 

vt 2.04282 0.436232
vn 0.834058 0.417029 -0.361158
vt 1.80816 -0.863263
vt 5.52363 -0.863263
vt 5.0152 0.436232
f 34/145/24 36/146/24 43/147/24 47/148/24 

usemtl Gray5
f 30/70/6 31/69/6 50/140/6

vn 1 0 -1.51981e-014
vt 8.26772 14.1732
vt 8.26772 14.9606
f 30/15/25 50/149/25 51/150/25 29/14/25 

vt 5.90551 8.26772
f 23/43/3 29/63/3 51/151/3

vt -5.84616 14.9606
vn -0.707107 0 -0.707107
vt -6.95971 14.9606
vt -6.95971 14.1732
vt -5.84616 14.1732
f 21/152/26 22/153/26 19/154/26 20/155/26 

usemtl Gray4
vt 7.08661 14.9606
vn 1 -3.19627e-015 -1.6322e-015
vt 7.08661 36.2205
vt 2.3622 31.8898
vt 2.3622 14.9606
f 24/156/27 25/157/27 27/158/27 28/159/27 

