# Alias OBJ Model File
# Exported from SketchUp, (c) 2000-2012 Trimble Navigation Limited
# File units = meters

mtllib ammo_rocketModern.mtl

g Mesh1 Group1 Model

usemtl Gray8
v 0.00151543 -0.00365856 -0.0168
vt -3.39501 1.92761e-027
vn -2.88704e-016 -7.49297e-013 -1
v -0.00151543 -0.00365856 -0.0168
vt -1.40626 1.42109e-014
v -0.00365856 -0.00151543 -0.0168
vt -3.04628e-028 1.40626
v -0.00365856 0.00151543 -0.0168
vt -7.35415e-028 3.39501
v -0.00151543 0.00365856 -0.0168
vt -1.40626 4.80126
v 0.00151543 0.00365856 -0.0168
vt -3.39501 4.80126
v 0.00365856 0.00151543 -0.0168
vt -4.80126 3.39501
v 0.00365856 -0.00151543 -0.0168
vt -4.80126 1.40626
f 1/1/1 2/2/1 3/3/1 4/4/1 5/5/1 6/6/1 7/7/1 8/8/1 

vt -1.40626 -1.81775e-026
vn -7.14563e-015 -1 7.49297e-013
vt -3.39501 3.55271e-015
v 0.00151543 -0.00365856 0.0042
vt -3.39501 -13.7795
v -0.00151543 -0.00365856 0.0042
vt -1.40626 -13.7795
f 2/9/2 1/10/2 9/11/2 10/12/2 

vt 2.54644e-012 2.40063
vn 0.707107 -0.707107 5.29629e-013
vt 4.6549e-012 4.38938
v 0.00365856 -0.00151543 0.0042
vt -13.7795 4.38938
vt -13.7795 2.40063
f 1/13/3 8/14/3 11/15/3 9/16/3 

vt 1.05732e-012 1.40626
vn 1 -2.16096e-028 -2.88704e-016
vt 2.54591e-012 3.39501
v 0.00365856 0.00151543 0.0042
vt -13.7795 3.39501
vt -13.7795 1.40626
f 8/17/4 7/18/4 12/19/4 11/20/4 

vt -1.05166e-012 -0.994374
vn 0.707107 0.707107 -5.30037e-013
vt 1.05405e-012 0.994374
v 0.00151543 0.00365856 0.0042
vt -13.7795 0.994374
vt -13.7795 -0.994374
f 7/21/5 6/22/5 13/23/5 12/24/5 

vt 3.39501 1.32572e-015
vn 7.14563e-015 1 -7.49297e-013
vt 1.40626 -2.227e-015
v -0.00151543 0.00365856 0.0042
vt 1.40626 -13.7795
vt 3.39501 -13.7795
f 6/25/6 5/26/6 14/27/6 13/28/6 

vt -4.64865e-012 4.38938
vn -0.707107 0.707107 -5.29629e-013
vt -2.5473e-012 2.40063
v -0.00365856 0.00151543 0.0042
vt 13.7795 2.40063
vt 13.7795 4.38938
f 5/29/7 4/30/7 15/31/7 14/32/7 

vt -2.5473e-012 3.39501
vn -1 2.16612e-028 2.88704e-016
vt -1.05516e-012 1.40626
v -0.00365856 -0.00151543 0.0042
vt 13.7795 1.40626
vt 13.7795 3.39501
f 4/33/8 3/34/8 16/35/8 15/36/8 

vt -1.05516e-012 0.994374
vn -0.707107 -0.707107 5.30037e-013
vt 1.05411e-012 -0.994374
vt 13.7795 -0.994374
vt 13.7795 0.994374
f 3/37/9 2/38/9 10/39/9 16/40/9 

usemtl Dark_Olive
vt -1.40626 1.83568e-014
vn -1.17488e-015 -7.4894e-013 -1
v -0.0038343 -0.00218822 0.0042
vt 0.115312 0.964793
vt 1.61892e-014 1.40626
f 10/41/10 17/42/10 16/43/10

v -0.00218822 -0.0038343 0.0042
vt -0.964793 -0.115312
f 10/41/10 18/44/10 17/42/10

vt -3.39501 4.14596e-015
f 18/44/10 10/41/10 9/45/10

v -0.00176395 -0.00425856 0.0042
vt -1.24318 -0.393701
f 9/45/10 19/46/10 18/44/10

v 0.00176395 -0.00425856 0.0042
vt -3.55808 -0.393701
f 9/45/10 20/47/10 19/46/10

v 0.00425856 -0.00176395 0.0042
vt -5.19496 1.24318
f 20/47/10 9/45/10 21/48/10

f 21/48/10 9/45/10 11/8/10

v 0.00425856 0.00176395 0.0042
vt -5.19496 3.55808
f 21/48/10 11/8/10 22/49/10

f 22/49/10 11/8/10 12/7/10

f 22/49/10 12/7/10 13/6/10

v 0.0038343 0.00218822 0.0042
vt -4.91658 3.83647
f 22/49/10 13/6/10 23/50/10

v 0.00218822 0.0038343 0.0042
vt -3.83647 4.91658
f 23/50/10 13/6/10 24/51/10

f 24/51/10 13/6/10 14/5/10

v -0.00176395 0.00425856 0.0042
vt -1.24318 5.19496
f 14/5/10 25/52/10 24/51/10

v -0.00425856 0.00176395 0.0042
vt 0.393701 3.55808
f 14/5/10 26/53/10 25/52/10

vt 1.61892e-014 3.39501
f 15/54/10 26/53/10 14/5/10

f 16/43/10 26/53/10 15/54/10

v -0.00425856 -0.00176395 0.0042
vt 0.393701 1.24318
f 16/43/10 27/55/10 26/53/10

f 16/43/10 17/42/10 27/55/10

vt 13.7795 1.15745
vn -0.707107 -0.707107 5.04164e-013
vt 13.7795 0.76375
v -0.0038343 -0.00218822 0.0096
vt 17.3228 0.76375
v -0.00218822 -0.0038343 0.0096
vt 17.3228 -0.76375
vt 13.7795 -0.76375
vt 13.7795 -1.15745
v -0.00176395 -0.00425856 0.0102
vt 17.7165 -1.15745
v -0.00425856 -0.00176395 0.0102
vt 17.7165 1.15745
f 27/56/11 17/57/11 28/58/11 29/59/11 18/60/11 19/61/11 30/62/11 31/63/11 

usemtl Gold
vt 17.3228 0.600673
vn -0.707107 0.707107 -5.67478e-013
vt 13.7795 0.600673
v -0.00595562 -0.00430954 0.0042
vt 13.7795 -1.36783
v -0.00595562 -0.00430954 0.006
vt 14.9606 -1.36783
f 28/64/12 17/65/12 32/66/12 33/67/12 

usemtl FrontColor
vn -0.707107 -0.707107 4.7289e-013
f 17/57/13 18/60/13 29/59/13 28/58/13 

usemtl Gold
vt 1.50725 -0.42715
vn 3.89707e-014 -7.07684e-013 -1
v -0.00430954 -0.00595562 0.0042
vt 0.42715 -1.50725
f 32/68/14 17/42/14 18/44/14 34/69/14 

vt -13.7795 0.600673
vn 0.707107 -0.707107 5.67478e-013
vt -17.3228 0.600673
v -0.00430954 -0.00595562 0.006
vt -14.9606 -1.36783
vt -13.7795 -1.36783
f 18/70/15 29/71/15 35/72/15 34/73/15 

vt 11.9435 6.73917
vn -0.543214 -0.543214 0.640184
vt 11.1199 8.02563
vt 8.53021 6.36775
vt 9.35378 5.08129
f 29/74/16 28/75/16 33/76/16 35/77/16 

vn -0.707107 -0.707107 1.41865e-012
vt 14.9606 -0.76375
vt 14.9606 0.76375
f 32/57/17 34/60/17 35/78/17 33/79/17 

usemtl Dark_Olive
vt -1.24318 -13.7795
vn -6.13886e-015 -1 7.48979e-013
vt -3.55808 -13.7795
v 0.00176395 -0.00425856 0.0102
vt -3.55808 -17.7165
vt -1.24318 -17.7165
f 19/80/18 20/81/18 36/82/18 30/83/18 

vt -13.7795 2.23756
vn 0.707107 -0.707107 5.28874e-013
vt -13.7795 4.55246
v 0.00425856 -0.00176395 0.0102
vt -17.7165 4.55246
vt -17.7165 2.23756
f 20/84/19 21/85/19 37/86/19 36/87/19 

vt -13.7795 1.24318
vn 1 -7.77895e-028 -1.03866e-015
vt -13.7795 3.55808
v 0.00425856 0.00176395 0.0102
vt -17.7165 3.55808
vt -17.7165 1.24318
f 21/88/20 22/89/20 38/90/20 37/91/20 

vt -13.7795 -1.15745
vn 0.707107 0.707107 -5.00927e-013
vt -13.7795 -0.76375
v 0.0038343 0.00218822 0.0096
vt -17.3228 -0.76375
v 0.00218822 0.0038343 0.0096
vt -17.3228 0.76375
vt -13.7795 0.76375
v 0.00176395 0.00425856 0.0042
vt -13.7795 1.15745
v 0.00176395 0.00425856 0.0102
vt -17.7165 1.15745
vt -17.7165 -1.15745
f 22/92/21 23/93/21 39/94/21 40/95/21 24/96/21 41/97/21 42/98/21 38/99/21 

usemtl Gold
vt -17.3228 6.18934
vn 0.707107 -0.707107 5.62366e-013
vt -13.7795 6.18934
v 0.00595562 0.00430954 0.0042
vt -13.7795 8.15784
v 0.00595562 0.00430954 0.006
vt -14.9606 8.15784
f 39/100/22 23/101/22 43/102/22 44/103/22 

usemtl FrontColor
vn 0.707107 0.707107 -4.68638e-013
f 23/93/23 24/96/23 40/95/23 39/94/23 

usemtl Gold
vt -6.30852 5.22841
vn 3.98784e-014 -7.03487e-013 -1
v 0.00430954 0.00595562 0.0042
vt -5.22841 6.30852
f 43/104/24 23/50/24 24/51/24 45/105/24 

vt 13.7795 6.18934
vn -0.707107 0.707107 -5.62389e-013
vt 17.3228 6.18934
v 0.00430954 0.00595562 0.006
vt 14.9606 8.15784
vt 13.7795 8.15784
f 24/106/25 40/107/25 46/108/25 45/109/25 

vt -8.28253 -4.3955
vn 0.543214 0.543214 0.640184
vt -7.45896 -5.68196
vt -4.86928 -4.02408
vt -5.69285 -2.73762
f 40/110/26 39/111/26 44/112/26 46/113/26 

vt -14.9606 0.76375
vn 0.707107 0.707107 -1.40593e-012
vt -14.9606 -0.76375
f 46/114/27 44/115/27 43/93/27 45/96/27 

usemtl Dark_Olive
vt -3.55808 5.19496
f 24/51/10 25/52/10 41/116/10

vt 3.55808 -13.7795
vn 6.13886e-015 1 -7.48979e-013
vt 1.24318 -13.7795
v -0.00176395 0.00425856 0.0102
vt 1.24318 -17.7165
vt 3.55808 -17.7165
f 41/117/28 25/118/28 47/119/28 42/120/28 

vt 13.7795 4.55246
vn -0.707107 0.707107 -5.28874e-013
vt 13.7795 2.23756
v -0.00425856 0.00176395 0.0102
vt 17.7165 2.23756
vt 17.7165 4.55246
f 25/121/29 26/122/29 48/123/29 47/124/29 

vt 13.7795 3.55808
vn -1 7.79489e-028 1.03866e-015
vt 13.7795 1.24318
vt 17.7165 1.24318
vt 17.7165 3.55808
f 26/125/30 27/126/30 31/127/30 48/128/30 

vt 5.19496 3.55808
vn 1.03866e-015 7.48979e-013 1
vt 3.55808 5.19496
vt 1.24318 5.19496
vt -0.393701 3.55808
vt -0.393701 1.24318
vt 1.24318 -0.393701
vt 3.55808 -0.393701
vt 5.19496 1.24318
f 38/129/31 42/130/31 47/131/31 48/132/31 31/133/31 30/134/31 36/135/31 37/136/31 

v 0.00141116 0.00340685 0.0132
vt -17.0282 -3.69071
vn 0.680224 0.680224 0.273111
v 0.00340685 0.00141116 0.0132
vt -16.5403 -5.4772
vt -14.5053 -5.16139
vt -15.1152 -2.92827
f 49/137/32 50/138/32 38/139/32 42/140/32 

vt 4.6361 3.32659
vn 1.29832e-015 9.36043e-013 1
vt 3.32659 4.6361
v -0.00141116 0.00340685 0.0132
vt 1.47467 4.6361
v -0.00340685 0.00141116 0.0132
vt 0.165166 3.32659
v -0.00340685 -0.00141116 0.0132
vt 0.165166 1.47467
v -0.00141116 -0.00340685 0.0132
vt 1.47467 0.165166
v 0.00141116 -0.00340685 0.0132
vt 3.32659 0.165166
v 0.00340685 -0.00141116 0.0132
vt 4.6361 1.47467
f 50/141/33 49/142/33 51/143/33 52/144/33 53/145/33 54/146/33 55/147/33 56/148/33 

v 0.00204411 0.000846698 0.0156
vt -14.234 -7.64782
vn 0.614897 0.614897 0.493764
vt -12.4462 -7.17815
vt -13.2661 -5.51762
v 0.000846698 0.00204411 0.0156
vt -14.7259 -6.65151
f 57/149/34 50/150/34 49/151/34 58/152/34 

v 0.00204411 -0.000846698 0.0156
vt -16.6399 1.84506
vn 0.869596 5.43841e-013 0.493764
vt -14.8289 1.47467
vt -14.8289 3.32659
vt -16.6399 2.95621
f 59/153/35 56/154/35 50/155/35 57/156/35 

v 0.000846698 -0.00204411 0.0156
vt -14.7259 10.4378
vn 0.614897 -0.614897 0.493764
vt -13.2661 9.30394
vt -12.4462 10.9645
vt -14.234 11.4341
f 60/157/36 55/158/36 56/159/36 59/160/36 

vt 1.47467 17.1996
vn -8.1036e-015 -0.869596 0.493764
vt 3.32659 17.1996
vt 2.95621 19.0105
v -0.000846698 -0.00204411 0.0156
vt 1.84506 19.0105
f 54/161/37 55/162/37 60/163/37 61/164/37 

vt 1.24318 16.9355
vn -7.26319e-015 -0.961983 0.273111
vt 3.55808 16.9355
vt 3.32659 18.9818
vt 1.47467 18.9818
f 30/165/38 36/166/38 55/167/38 54/168/38 

vt -15.1152 6.44762
vn 0.680224 -0.680224 0.273111
vt -14.5053 8.68073
vt -16.5403 8.99654
vt -17.0282 7.21005
f 36/169/39 37/170/39 56/171/39 55/172/39 

vt -17.6705 1.47467
vn 0.961983 2.24504e-013 0.273111
vt -15.6242 1.24318
vt -15.6242 3.55808
vt -17.6705 3.32659
f 56/173/40 37/174/40 38/175/40 50/176/40 

vt 16.2942 5.64996
vn -0.680224 -0.680224 0.273111
vt 16.9041 3.41684
vt 18.8171 4.17928
vt 18.3292 5.96577
f 31/177/41 30/178/41 54/179/41 53/180/41 

vt 15.4523 8.66249
vn -0.614897 -0.614897 0.493764
vt 16.2723 7.00196
vt 17.7321 8.13585
v -0.00204411 -0.000846698 0.0156
vt 17.2401 9.13216
f 53/181/42 54/182/42 61/183/42 62/184/42 

vt 3.74191 2.95621
vn 2.16387e-015 1.55959e-012 1
vt 2.95621 3.74191
v -0.000846698 0.00204411 0.0156
vt 1.84506 3.74191
v -0.00204411 0.000846698 0.0156
vt 1.05935 2.95621
vt 1.05935 1.84506
vt 1.84506 1.05935
vt 2.95621 1.05935
vt 3.74191 1.84506
f 57/185/43 58/186/43 63/187/43 64/188/43 62/189/43 61/190/43 60/191/43 59/192/43 

usemtl Gold
v 0.000338679 0.000817644 0.0168
vt -10.3869 -7.15116
vn 0.494517 0.494517 0.714777
v 0.000817644 0.000338679 0.0168
vt -10.1285 -7.51275
vt -9.01865 -7.12923
vt -9.66479 -6.22526
f 65/193/44 66/194/44 57/195/44 58/196/44 

vt 2.93714 2.62286
vn 7.99331e-015 3.90035e-012 1
vt 2.62286 2.93714
v -0.000338679 0.000817644 0.0168
vt 2.1784 2.93714
v -0.000817644 0.000338679 0.0168
vt 1.86412 2.62286
v -0.000817644 -0.000338679 0.0168
vt 1.86412 2.1784
v -0.000338679 -0.000817644 0.0168
vt 2.1784 1.86412
v 0.000338679 -0.000817644 0.0168
vt 2.62286 1.86412
v 0.000817644 -0.000338679 0.0168
vt 2.93714 2.1784
f 66/197/45 65/198/45 67/199/45 68/200/45 69/201/45 70/202/45 71/203/45 72/204/45 

vt 1.84506 -12.1935
vn 9.32647e-015 0.699353 0.714777
vt 2.1784 -13.3194
vt 2.62286 -13.3194
vt 2.95621 -12.1935
f 63/205/46 67/206/46 65/207/46 58/208/46 

vt 12.9671 -5.77836
vn -0.494517 0.494517 0.714777
vt 14.0769 -6.16188
vt 14.3353 -5.80029
vt 13.6132 -4.87439
f 64/209/47 68/210/47 67/211/47 63/212/47 

vt 16.7512 2.1784
vn -0.699353 1.34601e-012 0.714777
vt 16.7512 2.62286
vt 15.6253 2.95621
vt 15.6253 1.84506
f 69/213/48 68/214/48 64/215/48 62/216/48 

usemtl Dark_Olive
vt 19.0105 1.84506
vn -0.869596 5.4382e-013 0.493764
vt 19.0105 2.95621
vt 17.1996 3.32659
vt 17.1996 1.47467
f 62/217/49 64/218/49 52/219/49 53/220/49 

vt 17.2401 -5.34585
vn -0.614897 0.614897 0.493764
vt 17.7321 -4.34953
vt 16.2723 -3.21565
vt 15.4523 -4.87618
f 64/221/50 63/222/50 51/223/50 52/224/50 

vt 1.84506 -16.6399
vn 8.62098e-015 0.869596 0.493764
vt 2.95621 -16.6399
vt 3.32659 -14.8289
vt 1.47467 -14.8289
f 63/225/51 58/226/51 49/227/51 51/228/51 

vt 1.47467 -17.6705
vn 7.16358e-015 0.961983 0.273111
vt 3.32659 -17.6705
vt 3.55808 -15.6242
vt 1.24318 -15.6242
f 51/229/52 49/230/52 42/231/52 47/232/52 

vt 18.3292 -2.44642
vn -0.680224 0.680224 0.273111
vt 18.8171 -0.659931
vt 16.9041 0.102502
vt 16.2942 -2.13061
f 52/233/53 51/234/53 47/235/53 48/236/53 

vt 18.9818 1.47467
vn -0.961983 2.24753e-013 0.273111
vt 18.9818 3.32659
vt 16.9355 3.55808
vt 16.9355 1.24318
f 53/237/54 52/238/54 48/239/54 31/240/54 

usemtl Gold
vt 14.3353 9.9734
vn -0.494517 -0.494517 0.714777
vt 14.0769 10.335
vt 12.9671 9.95146
vt 13.6132 9.04749
f 70/241/55 69/242/55 62/243/55 61/244/55 

vt 1.84506 15.6253
vn -2.20698e-015 -0.699353 0.714777
vt 2.95621 15.6253
vt 2.62286 16.7512
vt 2.1784 16.7512
f 61/245/56 60/246/56 71/247/56 70/248/56 

vt -10.3869 11.3243
vn 0.494517 -0.494517 0.714777
vt -9.66479 10.3984
vt -9.01865 11.3023
vt -10.1285 11.6859
f 71/249/57 60/250/57 59/251/57 72/252/57 

vt -13.3194 2.1784
vn 0.699353 1.34597e-012 0.714777
vt -12.1935 1.84506
vt -12.1935 2.95621
vt -13.3194 2.62286
f 72/253/58 59/254/58 57/255/58 66/256/58 

