# Alias OBJ Model File
# Exported from SketchUp, (c) 2000-2012 Trimble Navigation Limited
# File units = meters

mtllib ammo_rocket.mtl

g Mesh1 Group1 Model

usemtl Gray8
v 0.00463432 0.0019196 -0.0327
vt -10.3155 8.53422
vn -2.04185e-027 -7.53793e-013 -1
v 0.00463432 -0.0019196 -0.0327
vt -10.3155 6.01506
v 0.0019196 -0.00463432 -0.0327
vt -8.53422 4.23375
v -0.0019196 -0.00463432 -0.0327
vt -6.01506 4.23375
v -0.00463432 -0.0019196 -0.0327
vt -4.23375 6.01506
v -0.00463432 0.0019196 -0.0327
vt -4.23375 8.53422
v -0.0019196 0.00463432 -0.0327
vt -6.01506 10.3155
v 0.0019196 0.00463432 -0.0327
vt -8.53422 10.3155
f 1/1/1 2/2/1 3/3/1 4/4/1 5/5/1 6/6/1 7/7/1 8/8/1 

v 0.00514924 -0.00213289 -0.0021
vt 5.87511 47.8103
vn 0.999858 -5.56917e-014 -0.0168252
vt 6.01506 27.7287
vt 8.53422 27.7287
v 0.00514924 0.00213289 -0.0021
vt 8.67417 47.8103
f 9/9/2 2/10/2 1/11/2 10/12/2 

v 0.00213289 -0.00514924 -0.0021
vt 8.88837 47.6879
vn 0.707007 -0.707007 -0.0168252
vt 9.02832 27.6063
vt 11.5475 27.6063
vt 11.6874 47.6879
f 11/13/3 3/14/3 2/15/3 9/16/3 

vt 6.01506 27.4839
vn -3.99729e-015 -0.999858 -0.0168252
vt 8.53422 27.4839
vt 8.67417 47.5655
v -0.00213289 -0.00514924 -0.0021
vt 5.87511 47.5655
f 4/17/4 3/18/4 11/19/4 12/20/4 

usemtl Dark_Olive
v 0.003127 -0.00754924 -0.0021
vt -9.32648 2.32107
vn 3.58601e-016 -7.55005e-013 -1
vt -5.87511 3.89587
vt -8.67417 3.89587
f 13/21/5 12/22/5 11/23/5

v -0.003127 -0.00754924 -0.0021
vt -5.22281 2.32107
f 14/24/5 12/22/5 13/21/5

v -0.00514924 -0.00213289 -0.0021
vt -3.89587 5.87511
f 14/24/5 15/25/5 12/22/5

v -0.00754924 -0.003127 -0.0021
vt -2.32107 5.22281
f 16/26/5 15/25/5 14/24/5

v -0.00514924 0.00213289 -0.0021
vt -3.89587 8.67417
f 15/25/5 16/26/5 17/27/5

v -0.003127 0.00754924 -0.0021
vt -5.22281 12.2282
f 16/26/5 18/28/5 17/27/5

v -0.00754924 0.003127 -0.0021
vt -2.32107 9.32648
f 18/28/5 16/26/5 19/29/5

v -0.00603939 -0.0025016 0.0009
vt -5.63317 45.7997
vn -0.893251 3.47544e-013 0.449558
v -0.00603939 0.0025016 0.0009
vt -8.91611 45.7997
vt -9.32648 43.596
vt -5.22281 43.596
f 20/30/6 21/31/6 19/32/6 16/33/6 

vt 3.31178 5.63317
vn -4.48252e-016 7.56157e-013 1
v -0.00514924 -0.00213289 0.0009
vt 3.89587 5.87511
vt 3.31178 8.91611
f 20/34/7 22/35/7 21/36/7

v -0.0025016 -0.00603939 0.0009
vt 5.63317 3.31178
f 22/35/7 20/34/7 23/37/7

vt 1.64147 47.1544
vn -0.631624 -0.631624 0.449558
vt -1.64147 47.1544
vt -2.05184 44.9506
vt 2.05184 44.9506
f 23/38/8 20/39/8 16/40/8 14/41/8 

vt 5.22281 43.596
vn -2.25274e-015 -0.893251 0.449558
vt 9.32648 43.596
v 0.0025016 -0.00603939 0.0009
vt 8.91611 45.7997
vt 5.63317 45.7997
f 14/42/9 13/43/9 24/44/9 23/45/9 

vt 8.64643 42.5293
vn 0.631624 -0.631624 0.449558
vt 8.23606 40.3256
v 0.00754924 -0.003127 -0.0021
vt 12.3397 40.3256
v 0.00603939 -0.0025016 0.0009
vt 11.9294 42.5293
f 24/46/10 13/47/10 25/48/10 26/49/10 

vt -10.6534 5.87511
vt -12.2282 5.22281
f 13/21/5 9/50/5 25/51/5

f 13/21/5 11/23/5 9/50/5

vt -10.6534 8.67417
f 25/51/5 9/50/5 10/52/5

v 0.00754924 0.003127 -0.0021
vt -12.2282 9.32648
f 10/52/5 27/53/5 25/51/5

v 0.003127 0.00754924 -0.0021
vt -9.32648 12.2282
f 10/52/5 28/54/5 27/53/5

v 0.00213289 0.00514924 -0.0021
vt -8.67417 10.6534
f 29/55/5 28/54/5 10/52/5

v -0.00213289 0.00514924 -0.0021
vt -5.87511 10.6534
f 30/56/5 28/54/5 29/55/5

f 30/56/5 18/28/5 28/54/5

f 17/27/5 18/28/5 30/56/5

usemtl Gray8
vt -8.88837 47.6879
vn -0.707007 0.707007 -0.0168252
vt -11.6874 47.6879
vt -11.5475 27.6063
vt -9.02832 27.6063
f 17/57/11 30/58/11 7/59/11 6/60/11 

vt -5.87511 47.8103
vn 2.66148e-015 0.999858 -0.0168252
vt -8.67417 47.8103
vt -8.53422 27.7287
vt -6.01506 27.7287
f 30/61/12 29/62/12 8/63/12 7/64/12 

vt 1.39953 47.861
vn 0.707007 0.707007 -0.0168252
vt -1.39953 47.861
vt -1.25958 27.7794
vt 1.25958 27.7794
f 29/65/13 10/66/13 1/67/13 8/68/13 

vt -5.87511 47.5655
vn -0.999858 -1.30568e-014 -0.0168252
vt -8.67417 47.5655
vt -8.53422 27.4839
vt -6.01506 27.4839
f 15/69/14 17/70/14 6/71/14 5/72/14 

vt 1.39953 47.5148
vn -0.707007 -0.707007 -0.0168252
vt -1.39953 47.5148
vt -1.25958 27.4332
vt 1.25958 27.4332
f 12/73/15 15/74/15 5/75/15 4/76/15 

usemtl Dark_Olive
v -0.0025016 0.00603939 0.0009
vt -5.63317 39.259
vn 3.01638e-015 0.893251 0.449558
v 0.0025016 0.00603939 0.0009
vt -8.91611 39.259
vt -9.32648 37.0552
vt -5.22281 37.0552
f 31/77/16 32/78/16 28/79/16 18/80/16 

vt 5.63317 11.2375
v -0.00213289 0.00514924 0.0009
vt 5.87511 10.6534
vt 8.91611 11.2375
f 31/81/7 33/82/7 32/83/7

v -0.00514924 0.00213289 0.0009
vt 3.89587 8.67417
f 31/81/7 34/84/7 33/82/7

f 21/36/7 34/84/7 31/81/7

f 34/84/7 21/36/7 22/35/7

v -0.00849625 -0.00351926 0.0159
vt -4.96541 57.6518
vn -0.975998 -1.66138e-013 -0.217778
v -0.00849625 0.00351926 0.0159
vt -9.58387 57.6518
vt -8.67417 47.5672
vt -5.87511 47.5672
f 35/85/17 36/86/17 34/87/17 22/88/17 

usemtl Gray8
vt -1.69967 4.96541
vn -6.50557e-016 -7.53553e-013 -1
v -0.00942863 -0.00390547 0.0159
vt -1.08788 4.712
vt -1.69967 9.58387
f 35/89/18 37/90/18 36/91/18

v -0.00390547 -0.00942863 0.0159
vt -4.712 1.08788
f 37/90/18 35/89/18 38/92/18

v -0.00351926 -0.00849625 0.0159
vt -4.96541 1.69967
f 38/92/18 35/89/18 39/93/18

usemtl Dark_Olive
vt 2.30923 56.9956
vn -0.690135 -0.690135 -0.217778
vt -2.30923 56.9956
vt -1.39953 46.911
v -0.00213289 -0.00514924 0.0009
vt 1.39953 46.911
f 39/94/19 35/95/19 22/96/19 40/97/19 

vt 5.87511 3.89587
f 22/35/7 23/37/7 40/98/7

vt 8.91611 3.31178
f 40/98/7 23/37/7 24/99/7

v 0.00213289 -0.00514924 0.0009
vt 8.67417 3.89587
f 40/98/7 24/99/7 41/100/7

v 0.00514924 -0.00213289 0.0009
vt 10.6534 5.87511
f 41/100/7 24/99/7 42/101/7

vt 11.2375 5.63317
f 42/101/7 24/99/7 26/102/7

v 0.00514924 0.00213289 0.0009
vt 10.6534 8.67417
f 42/101/7 26/102/7 43/103/7

v 0.00603939 0.0025016 0.0009
vt 11.2375 8.91611
f 44/104/7 43/103/7 26/102/7

f 32/83/7 43/103/7 44/104/7

v 0.00213289 0.00514924 0.0009
vt 8.67417 10.6534
f 32/83/7 45/105/7 43/103/7

f 32/83/7 33/82/7 45/105/7

v -0.00351926 0.00849625 0.0159
vt -4.96541 60.8203
vn 3.34075e-015 0.975998 -0.217778
v 0.00351926 0.00849625 0.0159
vt -9.58387 60.8203
vt -8.67417 50.7357
vt -5.87511 50.7357
f 46/106/20 47/107/20 45/108/20 33/109/20 

usemtl Gray8
vt -4.96541 12.8496
v 0.00390547 0.00942863 0.0159
vt -9.83728 13.4614
vt -9.58387 12.8496
f 46/110/18 48/111/18 47/112/18

v -0.00390547 0.00942863 0.0159
vt -4.712 13.4614
f 46/110/18 49/113/18 48/111/18

f 36/91/18 49/113/18 46/110/18

v -0.00942863 0.00390547 0.0159
vt -1.08788 9.83728
f 36/91/18 50/114/18 49/113/18

f 50/114/18 36/91/18 37/90/18

v -0.00942863 -0.00390547 0.0177
vt -4.712 60.6299
vn -1 0 -0
v -0.00942863 0.00390547 0.0177
vt -9.83728 60.6299
vt -9.83728 59.4488
vt -4.712 59.4488
f 51/115/21 52/116/21 50/117/21 37/118/21 

vt 1.08788 4.712
vn 6.9429e-017 7.53589e-013 1
v -0.00849625 -0.00351926 0.0177
vt 1.69967 4.96541
vt 1.08788 9.83728
f 51/119/22 53/120/22 52/121/22

v -0.00390547 -0.00942863 0.0177
vt 4.712 1.08788
f 53/120/22 51/119/22 54/122/22

vt 2.56264 60.6299
vn -0.707107 -0.707107 5.58254e-013
vt -2.56264 60.6299
vt -2.56264 59.4488
vt 2.56264 59.4488
f 54/123/23 51/124/23 37/125/23 38/126/23 

vt 4.712 59.4488
vn -4.15905e-015 -1 7.64023e-013
v 0.00390547 -0.00942863 0.0159
vt 9.83728 59.4488
v 0.00390547 -0.00942863 0.0177
vt 9.83728 60.6299
vt 4.712 60.6299
f 38/127/24 55/128/24 56/129/24 54/130/24 

vt -9.83728 1.08788
f 38/92/18 39/93/18 55/131/18

v 0.00351926 -0.00849625 0.0159
vt -9.58387 1.69967
f 55/131/18 39/93/18 57/132/18

usemtl Dark_Olive
vt 5.87511 47.5672
vn -4.56328e-015 -0.975998 -0.217778
vt 8.67417 47.5672
vt 9.58387 57.6518
vt 4.96541 57.6518
f 40/133/25 41/134/25 57/135/25 39/136/25 

vt 8.88837 49.1515
vn 0.690135 -0.690135 -0.217778
vt 11.6874 49.1515
v 0.00849625 -0.00351926 0.0159
vt 12.5971 59.2361
vt 7.97867 59.2361
f 41/137/26 42/138/26 58/139/26 57/140/26 

vt 4.96541 60.8203
vn 0.975998 -2.38787e-013 -0.217778
vt 5.87511 50.7357
vt 8.67417 50.7357
v 0.00849625 0.00351926 0.0159
vt 9.58387 60.8203
f 58/141/27 42/142/27 43/143/27 59/144/27 

vt 2.30923 61.4765
vn 0.690135 0.690135 -0.217778
vt -2.30923 61.4765
vt -1.39953 51.392
vt 1.39953 51.392
f 47/145/28 59/146/28 43/147/28 45/148/28 

usemtl Gray8
vt -12.8496 9.58387
f 47/112/18 48/111/18 59/149/18

v 0.00942863 0.00390547 0.0159
vt -13.4614 9.83728
f 59/149/18 48/111/18 60/150/18

v 0.00390547 0.00942863 0.0177
vn 0.707107 0.707107 -4.52118e-013
v 0.00942863 0.00390547 0.0177
f 61/123/29 62/124/29 60/125/29 48/126/29 

vt 9.83728 13.4614
v 0.00849625 0.00351926 0.0177
vt 12.8496 9.58387
vt 13.4614 9.83728
f 61/151/22 63/152/22 62/153/22

v 0.00351926 0.00849625 0.0177
vt 9.58387 12.8496
f 61/151/22 64/154/22 63/152/22

v -0.00351926 0.00849625 0.0177
vt 4.96541 12.8496
f 61/151/22 65/155/22 64/154/22

v -0.00390547 0.00942863 0.0177
vt 4.712 13.4614
f 66/156/22 65/155/22 61/151/22

v -0.00849625 0.00351926 0.0177
vt 1.69967 9.58387
f 66/156/22 67/157/22 65/155/22

f 52/121/22 67/157/22 66/156/22

f 67/157/22 52/121/22 53/120/22

usemtl Dark_Olive
v -0.00360447 -0.00149302 0.0327
vt -6.29497 68.5218
vn -0.950721 2.35606e-013 0.310048
v -0.00360447 0.00149302 0.0327
vt -8.25431 68.5218
vt -9.58387 58.1691
vt -4.96541 58.1691
f 68/158/30 69/159/30 67/160/30 53/161/30 

v -0.00149302 0.00360447 0.0327
vt 6.29497 9.63978
vn -2.1998e-016 7.59451e-013 1
vt 4.9095 8.25431
vt 4.9095 6.29497
v -0.00149302 -0.00360447 0.0327
vt 6.29497 4.9095
v 0.00149302 -0.00360447 0.0327
vt 8.25431 4.9095
v 0.00360447 -0.00149302 0.0327
vt 9.63978 6.29497
v 0.00360447 0.00149302 0.0327
vt 9.63978 8.25431
v 0.00149302 0.00360447 0.0327
vt 8.25431 9.63978
f 70/162/31 69/163/31 68/164/31 71/165/31 72/166/31 73/167/31 74/168/31 75/169/31 

vt -7.97867 55.9136
vn -0.672261 0.672261 0.310048
vt -9.30823 66.2663
vt -11.2676 66.2663
vt -12.5971 55.9136
f 67/170/32 69/171/32 70/172/32 65/173/32 

vt -4.96541 53.6581
vn 3.6647e-015 0.950721 0.310048
vt -6.29497 64.0108
vt -8.25431 64.0108
vt -9.58387 53.6581
f 65/174/33 70/175/33 75/176/33 64/177/33 

vt 0.979672 63.0766
vn 0.672261 0.672261 0.310048
vt -0.979672 63.0766
vt -2.30923 52.7239
vt 2.30923 52.7239
f 75/178/34 74/179/34 63/180/34 64/181/34 

vt 6.29497 64.0108
vn 0.950721 2.09649e-013 0.310048
v 0.00849625 -0.00351926 0.0177
vt 4.96541 53.6581
vt 9.58387 53.6581
vt 8.25431 64.0108
f 73/182/35 76/183/35 63/184/35 74/185/35 

vt 9.30823 66.2663
vn 0.672261 -0.672261 0.310048
v 0.00351926 -0.00849625 0.0177
vt 7.97867 55.9136
vt 12.5971 55.9136
vt 11.2676 66.2663
f 72/186/36 77/187/36 76/188/36 73/189/36 

v -0.00351926 -0.00849625 0.0177
vt 4.96541 58.1691
vn -1.12119e-015 -0.950721 0.310048
vt 9.58387 58.1691
vt 8.25431 68.5218
vt 6.29497 68.5218
f 78/190/37 77/191/37 72/192/37 71/193/37 

usemtl Gray8
vt 4.96541 1.69967
vt 9.83728 1.08788
vt 9.58387 1.69967
f 78/194/22 56/195/22 77/196/22

f 78/194/22 54/122/22 56/195/22

f 53/120/22 54/122/22 78/194/22

usemtl Dark_Olive
vt 0.979672 69.4561
vn -0.672261 -0.672261 0.310048
vt -0.979672 69.4561
vt -2.30923 59.1034
vt 2.30923 59.1034
f 71/197/38 68/198/38 53/199/38 78/200/38 

usemtl Gray8
vt 12.8496 4.96541
f 77/196/22 56/195/22 76/201/22

v 0.00942863 -0.00390547 0.0177
vt 13.4614 4.712
f 76/201/22 56/195/22 79/202/22

vt 7.72526 60.6299
vn 0.707107 -0.707107 6.00798e-013
vt 7.72526 59.4488
v 0.00942863 -0.00390547 0.0159
vt 12.8505 59.4488
vt 12.8505 60.6299
f 56/203/39 55/204/39 80/205/39 79/206/39 

vt -12.8496 4.96541
vt -13.4614 4.712
f 55/131/18 58/207/18 80/208/18

f 55/131/18 57/132/18 58/207/18

f 80/208/18 58/207/18 59/149/18

f 59/149/18 60/150/18 80/208/18

vn 1 -3.32724e-014 4.81274e-014
f 79/130/40 80/127/40 60/128/40 62/129/40 

f 62/153/22 63/152/22 79/202/22

f 76/201/22 79/202/22 63/152/22

vt -7.72526 59.4488
vn -0.707107 0.707107 -5.39233e-013
vt -7.72526 60.6299
vt -12.8505 60.6299
vt -12.8505 59.4488
f 50/209/41 52/210/41 66/211/41 49/212/41 

vn 2.7727e-015 1 -7.64023e-013
f 49/118/42 66/115/42 61/116/42 48/117/42 

usemtl Dark_Olive
vt -7.97867 59.2361
vn -0.690135 0.690135 -0.217778
vt -12.5971 59.2361
vt -11.6874 49.1515
vt -8.88837 49.1515
f 36/213/43 46/214/43 33/215/43 34/216/43 

vt 1.64147 37.9043
vn 0.631624 0.631624 0.449558
vt -1.64147 37.9043
vt -2.05184 35.7006
vt 2.05184 35.7006
f 32/217/44 44/218/44 27/219/44 28/220/44 

vt 5.63317 39.259
vn 0.893251 3.20382e-013 0.449558
vt 5.22281 37.0552
vt 9.32648 37.0552
vt 8.91611 39.259
f 26/221/45 25/222/45 27/223/45 44/224/45 

vt -8.64643 42.5293
vn -0.631624 0.631624 0.449558
vt -11.9294 42.5293
vt -12.3397 40.3256
vt -8.23606 40.3256
f 21/225/46 31/226/46 18/227/46 19/228/46 

