# Alias OBJ Model File
# Exported from SketchUp, (c) 2000-2012 Trimble Navigation Limited
# File units = meters

mtllib knife_smooth.mtl

g Mesh1 Group1 Model

usemtl Gray3
v -0.0006 0.02628 -0.0009
vt -1.80953 22.171
vn -0.348155 0.870388 0.348155
v 9.16489e-017 0.02628 -0.0003
vt -1.25275 22.171
v 9.16489e-017 0.02772 -0.0039
vt -2.92308 24.0901
v -0.0006 0.02748 -0.0039
vt -3.20147 23.7702
f 1/1/1 2/2/1 3/3/1 4/4/1 

v -0.0006 0.02388 0.0015
vt -0.695971 30.1364
vn -0.57735 0.57735 0.57735
v 9.16489e-017 0.02388 0.0021
vt -0.139194 30.1364
vt -1.25275 32.0652
vt -1.80953 32.0652
f 5/5/2 6/6/2 2/7/2 1/8/2 

v -0.0006 0.02088 0.0033
vt 0.139194 30.716
vn -0.650945 0.390567 0.650945
v 9.16489e-017 0.02088 0.0039
vt 0.695971 30.716
vt -0.139194 32.8544
vt -0.695971 32.8544
f 7/9/3 8/10/3 6/11/3 5/12/3 

v -0.0006 -0.00492 0.0033
vt 0.139194 14.9606
vn -0.707107 3.11613e-015 0.707107
v -1.69198e-017 -0.00492 0.0039
vt 0.695971 14.9606
vt 0.695971 31.8898
vt 0.139194 31.8898
f 9/13/4 10/14/4 8/15/4 7/16/4 

usemtl Gray5
v -0.0033 -0.00492 0.0069
vt 0.787402 0
vn 0 1 -0
vt 2.95276 1.9685
vt 2.55906 2.3622
f 11/17/5 10/18/5 9/19/5

v 0.0033 -0.00492 0.0069
vt 5.11811 0
f 10/18/5 11/17/5 12/20/5

vt 5.11811 14.9606
vn 0 0 1
vt 0.787402 14.9606
v -0.0033 -0.00612 0.0069
vt 0.787402 14.1732
v 0.0033 -0.00612 0.0069
vt 5.11811 14.1732
f 12/21/6 11/22/6 13/23/6 14/24/6 

v -0.0045 -0.00612 0.0057
vt -0.556777 14.1732
vn -0.707107 0 0.707107
vt 0.556777 14.1732
vt 0.556777 14.9606
v -0.0045 -0.00492 0.0057
vt -0.556777 14.9606
f 15/25/7 13/26/7 11/27/7 16/28/7 

v -0.0036 -0.00612 1.35358e-016
vt -0.590551 4.52756
vn 0 -1 -0
vt -0.787402 0
vt -1.42109e-013 0.787402
f 17/29/8 13/30/8 15/31/8

v -0.0018 -0.00612 0.00415692
vt -1.77165 1.79992
f 13/30/8 17/29/8 18/32/8

usemtl WarmGray8
vt -0.947736 14.1732
vn -0.917663 1.02505e-031 0.39736
vt -3.92011 14.1732
v -0.0036 -0.02232 1.35358e-016
vt -3.92011 3.54331
v -0.0018 -0.02232 0.00415692
vt -0.947736 3.54331
f 18/33/9 17/34/9 19/35/9 20/36/9 

vt -4.38943 14.1732
vn -0.917663 0 -0.39736
v -0.0018 -0.00612 -0.00415692
vt -7.36181 14.1732
v -0.0018 -0.02232 -0.00415692
vt -7.36181 3.54331
vt -4.38943 3.54331
f 17/37/10 21/38/10 22/39/10 19/40/10 

usemtl Gray5
v -0.0033 -0.00612 -0.0069
vt -0.787402 9.05512
vt -1.77165 7.2552
f 17/29/8 23/41/8 21/42/8

f 15/31/8 23/41/8 17/29/8

v -0.0045 -0.00612 -0.0057
vt 0 8.26772
f 23/41/8 15/31/8 24/43/8

vt -8.26772 14.1732
vn -1 0 1.80478e-014
vt -0.787402 14.1732
vt -0.787402 14.9606
v -0.0045 -0.00492 -0.0057
vt -8.26772 14.9606
f 24/44/11 15/45/11 16/46/11 25/47/11 

vt 1.42109e-013 0.787402
v -0.0033 -0.00492 -0.0069
vt 0.787402 9.05512
f 16/48/5 26/49/5 25/43/5

f 26/49/5 16/48/5 11/17/5

v -0.0006 -0.00492 -0.0039
vt 2.55906 7.08661
f 26/49/5 11/17/5 27/50/5

f 27/50/5 11/17/5 9/19/5

usemtl Gray4
vt -2.3622 14.9606
vn -1 3.96736e-015 1.88949e-015
vt -2.3622 31.8898
vt -3.54331 33.8583
vt -5.11811 35.4331
vt -7.08661 36.2205
vt -7.08661 14.9606
f 9/51/12 7/52/12 5/53/12 1/54/12 4/55/12 27/56/12 

vt -2.95276 36.378
vn 0 0 -1
v 0.0006 0.02748 -0.0039
vt -3.34646 36.2205
v 0.0006 -0.00492 -0.0039
vt -3.34646 14.9606
vt -2.55906 14.9606
vt -2.55906 36.2205
f 3/57/13 28/58/13 29/59/13 27/60/13 4/61/13 

usemtl Gray3
vt 5.42858 18.5364
vn 0.348155 0.870388 0.348155
v 0.0006 0.02628 -0.0009
vt 5.98535 18.5364
vt 7.3773 20.1356
vt 7.09891 20.4555
f 2/62/14 30/63/14 28/64/14 3/65/14 

vt 4.31502 27.7255
vn 0.57735 0.57735 0.57735
v 0.0006 0.02388 0.0015
vt 4.8718 27.7255
vt 5.98535 29.6543
vt 5.42858 29.6543
f 6/66/15 31/67/15 30/68/15 2/69/15 

vt 3.47986 29.0851
vn 0.650945 0.390567 0.650945
v 0.0006 0.02088 0.0033
vt 4.03663 29.0851
vt 4.8718 31.2234
vt 4.31502 31.2234
f 8/70/16 32/71/16 31/72/16 6/73/16 

vt 3.47986 14.9606
vn 0.707107 -2.8192e-015 0.707107
v 0.0006 -0.00492 0.0033
vt 4.03663 14.9606
vt 4.03663 31.8898
vt 3.47986 31.8898
f 10/74/17 33/75/17 32/76/17 8/77/17 

usemtl Gray5
vt 3.34646 2.3622
f 10/18/5 12/20/5 33/78/5

vt 3.34646 7.08661
f 33/78/5 12/20/5 29/79/5

v 0.0033 -0.00492 -0.0069
vt 5.11811 9.05512
f 34/80/5 29/79/5 12/20/5

f 34/80/5 27/50/5 29/79/5

f 26/49/5 27/50/5 34/80/5

vt -5.11811 14.9606
v 0.0033 -0.00612 -0.0069
vt -5.11811 14.1732
f 26/46/13 34/81/13 35/82/13 23/45/13 

v 0.0045 -0.00612 -0.0057
vt 1.67033 14.1732
vn 0.707107 0 -0.707107
vt 2.78388 14.1732
vt 2.78388 14.9606
v 0.0045 -0.00492 -0.0057
vt 1.67033 14.9606
f 36/83/18 35/84/18 34/85/18 37/86/18 

v 0.0036 -0.00612 1.35358e-016
vt -5.31496 4.52756
vt -5.11811 9.05512
vt -5.90551 8.26772
f 38/87/8 35/88/8 36/89/8

v 0.0018 -0.00612 -0.00415692
vt -4.13386 7.2552
f 39/90/8 35/88/8 38/87/8

f 21/42/8 35/88/8 39/90/8

f 21/42/8 23/41/8 35/88/8

usemtl WarmGray8
vt -1.77165 3.54331
vt -1.77165 14.1732
vt -4.13386 14.1732
v 0.0018 -0.02232 -0.00415692
vt -4.13386 3.54331
f 22/91/13 21/92/13 39/93/13 40/94/13 

v 0.0036 -0.02232 1.35358e-016
vt 2.04282 3.54331
vn 0.917663 0 -0.39736
vt 5.0152 3.54331
vt 5.0152 14.1732
vt 2.04282 14.1732
f 41/95/19 40/96/19 39/97/19 38/98/19 

vt 2.04282 0.436232
vn 0.834058 0.417029 -0.361158
v 0.0045 -0.02412 1.25489e-016
vt 1.80816 -0.863263
v 0.00225 -0.02412 -0.00519615
vt 5.52363 -0.863263
vt 5.0152 0.436232
f 41/99/20 42/100/20 43/101/20 40/102/20 

v 0.00225 -0.02412 0.00519615
vt 2.78592 0.637264
vn 0.834058 0.417029 0.361158
vt 6.50139 0.637264
vt 6.26672 1.93676
v 0.0018 -0.02232 0.00415692
vt 3.29435 1.93676
f 44/103/21 42/104/21 41/105/21 45/106/21 

v 0.00225 -0.02772 0.00519615
vt 2.78592 0
vn 0.917663 0 0.39736
v 0.0045 -0.02772 1.25489e-016
vt 6.50139 0
vt 6.50139 2.3622
vt 2.78592 2.3622
f 46/107/22 47/108/22 42/109/22 44/110/22 

v 0.00225 -0.02772 -0.00519615
vt -4.42913 7.93711
vt -5.90551 4.52756
vt -4.42913 1.11801
v -0.00225 -0.02772 0.00519615
vt -1.47638 1.11801
v -0.0045 -0.02772 1.25489e-016
vt -1.42109e-013 4.52756
v -0.00225 -0.02772 -0.00519615
vt -1.47638 7.93711
f 48/111/8 47/112/8 46/113/8 49/114/8 50/115/8 51/116/8 

vt 1.80816 0
vt 5.52363 0
vt 5.52363 2.3622
vt 1.80816 2.3622
f 47/117/19 48/118/19 43/119/19 42/120/19 

vt -4.42913 0
vt -1.47638 0
v -0.00225 -0.02412 -0.00519615
vt -1.47638 2.3622
vt -4.42913 2.3622
f 48/121/13 51/122/13 52/123/13 43/124/13 

vt -7.87024 0
vt -4.15477 0
v -0.0045 -0.02412 1.25489e-016
vt -4.15477 2.3622
vt -7.87024 2.3622
f 51/125/10 50/126/10 53/127/10 52/128/10 

vn -0.917663 0 0.39736
vt -0.439303 0
v -0.00225 -0.02412 0.00519615
vt -0.439303 2.3622
f 50/126/23 49/129/23 54/130/23 53/127/23 

vt 1.47638 0
vt 4.42913 0
vt 4.42913 2.3622
vt 1.47638 2.3622
f 49/131/6 46/132/6 44/133/6 54/134/6 

vt 4.42913 2.60473
vn 0 0.5 0.866025
vt 4.13386 3.96855
vt 1.77165 3.96855
vt 1.47638 2.60473
f 44/135/24 45/136/24 20/137/24 54/138/24 

vt 4.13386 3.54331
v 0.0018 -0.00612 0.00415692
vt 4.13386 14.1732
vt 1.77165 14.1732
vt 1.77165 3.54331
f 45/139/6 55/140/6 18/141/6 20/142/6 

vt 3.29435 3.54331
vt 6.26672 3.54331
vt 6.26672 14.1732
vt 3.29435 14.1732
f 45/143/22 41/144/22 38/145/22 55/146/22 

usemtl Gray5
vt -5.11811 0
vt -4.13386 1.79992
f 14/147/8 55/148/8 38/87/8

f 14/147/8 18/32/8 55/148/8

f 13/30/8 18/32/8 14/147/8

v 0.0045 -0.00612 0.0057
vt -5.90551 0.787402
f 14/147/8 38/87/8 56/149/8

f 56/149/8 38/87/8 36/89/8

vn 1 0 -1.51981e-014
vt 8.26772 14.1732
vt 8.26772 14.9606
v 0.0045 -0.00492 0.0057
f 56/23/25 36/150/25 37/151/25 57/22/25 

vt 5.90551 0.787402
vt 5.90551 8.26772
f 34/80/5 57/152/5 37/153/5

f 34/80/5 12/20/5 57/152/5

vt 4.7326 14.9606
vn 0.707107 0 0.707107
vt 3.61905 14.9606
vt 3.61905 14.1732
vt 4.7326 14.1732
f 57/154/26 12/155/26 14/156/26 56/157/26 

usemtl WarmGray8
vt -0.439303 2.89726
vn -0.834058 0.417029 0.361158
vt -0.947736 4.19675
vt -3.92011 4.19675
vt -4.15477 2.89726
f 54/158/27 20/159/27 19/160/27 53/161/27 

vt -4.38943 2.69622
vn -0.834058 0.417029 -0.361158
vt -7.36181 2.69622
vt -7.87024 1.39673
vt -4.15477 1.39673
f 19/162/28 22/163/28 52/164/28 53/165/28 

vt -1.47638 -1.92282
vn 0 0.5 -0.866025
vt -1.77165 -0.559005
vt -4.13386 -0.559005
vt -4.42913 -1.92282
f 52/166/29 22/167/29 40/168/29 43/169/29 

usemtl Gray5
vt -5.84616 14.9606
vn -0.707107 0 -0.707107
vt -6.95971 14.9606
vt -6.95971 14.1732
vt -5.84616 14.1732
f 25/170/30 26/171/30 23/172/30 24/173/30 

usemtl Gray4
vt 7.08661 14.9606
vn 1 -3.24602e-015 -1.54595e-015
vt 7.08661 36.2205
vt 5.11811 35.4331
vt 3.54331 33.8583
vt 2.3622 31.8898
vt 2.3622 14.9606
f 29/174/31 28/175/31 30/176/31 31/177/31 32/178/31 33/179/31 

