# Alias OBJ Model File
# Exported from SketchUp, (c) 2000-2012 Trimble Navigation Limited
# File units = meters

mtllib pistol.mtl

g Mesh1 Group2 Group1 Model

usemtl Gray4
v 0.0045 0.018 0.0225
vt 0 22.0472
vn 1 0 -0
v 0.0045 0.0102 0.0225
vt 0 16.9291
v 0.0045 0.0102 -0.0189
vt 27.1654 16.9291
v 0.0045 0.018 -0.0189
vt 27.1654 22.0472
f 1/1/1 2/2/1 3/3/1 4/4/1 

v -0.0045 0.018 0.0225
vn 0 0 1
v -0.0045 0.0102 0.0225
v -0.0039 0.0102 0.0225
vt 0.393701 16.9291
v -0.0039 0.0174 0.0225
vt 0.393701 21.6535
v 0.0039 0.0174 0.0225
vt 5.51181 21.6535
v 0.0039 0.0102 0.0225
vt 5.51181 16.9291
vt 5.90551 16.9291
vt 5.90551 22.0472
f 5/1/2 6/2/2 7/5/2 8/6/2 9/7/2 10/8/2 2/9/2 1/10/2 

v -0.0045 0.018 -0.0075
vt -19.685 22.0472
vn -1 0 -0
v -0.0045 0.018 -0.0189
vt -27.1654 22.0472
v -0.0045 0.0102 -0.0189
vt -27.1654 16.9291
v -0.0045 0.018 0.0003
vt -14.5669 22.0472
v -0.0045 0.015 0.0003
vt -14.5669 20.0787
v -0.0045 0.015 -0.0075
vt -19.685 20.0787
f 11/11/3 12/12/3 13/13/3 6/2/3 5/1/3 14/14/3 15/15/3 16/16/3 

vt 0 27.1654
vn 0 1 -0
vt 0 19.685
v 0.0015 0.018 -0.0075
vt 3.93701 19.685
v 0.0015 0.018 0.0003
vt 3.93701 14.5669
vt 0 14.5669
vt 0 0
vt 5.90551 0
vt 5.90551 27.1654
f 12/17/4 11/18/4 17/19/4 18/20/4 14/21/4 5/22/4 1/23/4 4/24/4 

v 0.0015 0.0174 -0.0075
vt 3.93701 21.6535
vt 3.93701 22.0472
vt 0 20.0787
v -0.0039 0.015 -0.0075
vt 0.393701 20.0787
v -0.0039 0.0174 -0.0075
f 19/25/2 17/26/2 11/1/2 16/27/2 20/28/2 21/6/2 

vt -19.685 21.6535
v 0.0015 0.0174 0.0003
vt -14.5669 21.6535
f 18/14/3 17/11/3 19/29/3 22/30/3 

v 0.0039 0.0174 -0.0189
vt -5.51181 27.1654
vn 0 -1 -0
v 0.0039 0.0174 0.0219
vt -5.51181 0.393701
v -0.0039 0.0174 0.0219
vt -0.393701 0.393701
v -0.0039 0.0174 0.0003
vt -0.393701 14.5669
vt -3.93701 14.5669
vt -3.93701 19.685
vt -0.393701 19.685
v -0.0039 0.0174 -0.0189
vt -0.393701 27.1654
f 23/31/5 24/32/5 25/33/5 26/34/5 22/35/5 19/36/5 21/37/5 27/38/5 

vt -0.393701 21.6535
vn -1 -8.44909e-032 -5.30817e-016
vt -27.1654 21.6535
v 0.0039 0.0102 -0.0189
v 0.0039 0.0102 0.0219
vt -0.393701 16.9291
f 24/39/6 23/40/6 28/13/6 29/41/6 

vt -5.90551 16.9291
vn 0 0 -1
vt -5.51181 16.9291
vt -5.51181 21.6535
v -0.0039 0.0102 -0.0189
vt -5.90551 22.0472
f 3/42/7 28/43/7 23/44/7 27/39/7 30/41/7 13/2/7 12/1/7 4/45/7 

vt -5.90551 27.1654
vt -5.90551 0
vt -5.51181 0
f 29/32/5 28/31/5 3/46/5 2/47/5 10/48/5 

vt 0 21.6535
f 10/2/3 9/49/3 24/39/3 29/41/3 

vt -0.393701 0
f 9/48/5 8/50/5 25/33/5 24/32/5 

v -0.0039 0.0102 0.0219
f 8/49/1 7/2/1 31/5/1 25/6/1 

f 30/38/5 31/33/5 7/50/5 6/22/5 13/17/5 

vt 14.5669 21.6535
vn 1 -9.10486e-016 -4.47514e-016
vt 27.1654 21.6535
vt 19.685 21.6535
vt 19.685 20.0787
v -0.0039 0.015 0.0003
vt 14.5669 20.0787
f 26/51/8 25/6/8 31/5/8 30/3/8 27/52/8 21/53/8 20/54/8 32/55/8 

vt 0.393701 14.5669
vt 0.393701 19.685
f 16/18/4 15/21/4 32/56/4 20/57/4 

vt -3.93701 21.6535
vt -0.393701 20.0787
vt -3.93701 22.0472
f 22/58/7 26/39/7 32/59/7 15/27/7 14/1/7 18/60/7 

g Mesh2 Group3 Group1 Model

usemtl Gray6
v -0.0039 -0.0156 -0.0225
vt -0.393701 29.5276
v 0.0039 -0.0156 -0.0225
vt -5.51181 29.5276
v 0.0039 -0.0156 -0.0105
v -0.0039 -0.0156 -0.0105
f 33/61/5 34/62/5 35/44/5 36/39/5 

v 0.0045 -0.0156 -0.0231
vt 5.90551 29.9213
vt 0.393701 29.5276
vt 5.51181 29.5276
f 37/63/4 33/64/4 34/65/4

v -0.0045 -0.0156 -0.0231
vt 0 29.9213
f 38/66/4 33/64/4 37/63/4

v -0.0045 -0.0156 -0.0099
vt 1.42109e-014 21.2598
f 33/64/4 38/66/4 39/67/4

vt -21.2598 -1.02483e-058
vn -1 -2.08756e-045 1.64071e-015
vt -29.9213 -1.02483e-058
v -0.0045 -0.018 -0.0231
vt -29.9213 -1.5748
v -0.0045 -0.018 -0.0099
vt -21.2598 -1.5748
f 39/68/9 38/69/9 40/70/9 41/71/9 

v 0.0045 -0.018 -0.0231
vt -5.90551 -1.5748
vt 0 -1.5748
f 38/22/7 37/47/7 42/72/7 40/73/7 

vt 29.9213 1.23281e-044
vn 1 -2.08756e-045 -1.64071e-015
v 0.0045 -0.0156 -0.0099
vt 21.2598 1.23281e-044
v 0.0045 -0.018 -0.0099
vt 21.2598 -1.5748
vt 29.9213 -1.5748
f 37/74/10 43/75/10 44/76/10 42/77/10 

vt 5.90551 21.2598
f 35/7/4 43/78/4 37/63/4

f 36/6/4 43/78/4 35/7/4

f 36/6/4 39/67/4 43/78/4

f 39/67/4 36/6/4 33/64/4

v -0.0039 0.0072 0.0219
vt -0.393701 14.9606
vn -1 -6.29366e-016 1.52472e-016
v -0.0039 0.0174 0.0219
v -0.0039 0.0174 -0.0195
vt -27.5591 21.6535
v -0.0039 0.0072 -0.0195
vt -27.5591 14.9606
v -0.0039 0.0072 -0.0165
vt -25.5906 14.9606
vt -29.5276 -2.47782e-016
vt -21.6535 -2.47782e-016
v -0.0039 0.0072 -0.0045
vt -17.7165 14.9606
f 45/79/11 46/39/11 47/80/11 48/81/11 49/82/11 33/83/11 36/84/11 50/85/11 

vt 0.393701 14.9606
v -0.00289778 0.0130235 0.0219
vt 1.05133 18.7819
f 45/86/2 51/87/2 46/6/2

v -0.00259808 0.0123 0.0219
vt 1.24798 18.3071
f 51/87/2 45/86/2 52/88/2

v -0.00212132 0.0116787 0.0219
vt 1.56081 17.8994
f 52/88/2 45/86/2 53/89/2

v -0.0015 0.0112019 0.0219
vt 1.9685 17.5866
f 53/89/2 45/86/2 54/90/2

v -0.000776457 0.0109022 0.0219
vt 2.44327 17.3899
f 54/90/2 45/86/2 55/91/2

v -9.86988e-018 0.0108 0.0219
vt 2.95276 17.3228
f 55/91/2 45/86/2 56/92/2

v 0.000776457 0.0109022 0.0219
vt 3.46224 17.3899
f 45/86/2 57/93/2 56/92/2

v 0.0015 0.0112019 0.0219
vt 3.93701 17.5866
f 45/86/2 58/94/2 57/93/2

v 0.0039 0.0072 0.0219
vt 5.51181 14.9606
f 59/95/2 58/94/2 45/86/2

v 0.00212132 0.0116787 0.0219
vt 4.3447 17.8994
f 58/94/2 59/95/2 60/96/2

v 0.00259808 0.0123 0.0219
vt 4.65753 18.3071
f 60/96/2 59/95/2 61/97/2

v 0.00289778 0.0130235 0.0219
vt 4.85418 18.7819
f 61/97/2 59/95/2 62/98/2

v 0.0039 0.0174 0.0219
f 62/98/2 59/95/2 63/7/2

v 0.0039 0.0174 -0.0195
vt 27.5591 21.6535
vn 1 -1.5843e-016 1.83988e-016
v 0.0039 0.0072 -0.0045
vt 17.7165 14.9606
vt 21.6535 8.73238e-016
vt 29.5276 8.73238e-016
v 0.0039 0.0072 -0.0165
vt 25.5906 14.9606
v 0.0039 0.0072 -0.0195
vt 27.5591 14.9606
f 64/99/12 63/6/12 59/86/12 65/100/12 35/101/12 34/102/12 66/103/12 67/104/12 

vt 0.393701 27.5591
vt 0.393701 0.393701
vt 5.51181 0.393701
vt 5.51181 27.5591
f 47/105/4 46/106/4 63/107/4 64/108/4 

v -9.86988e-018 0.0168 0.0219
vt 2.95276 21.2598
f 46/6/2 68/109/2 63/7/2

v -0.000776457 0.0166978 0.0219
vt 2.44327 21.1928
f 46/6/2 69/110/2 68/109/2

v -0.0015 0.0163981 0.0219
vt 1.9685 20.9961
f 46/6/2 70/111/2 69/110/2

v -0.00212132 0.0159213 0.0219
vt 1.56081 20.6833
f 46/6/2 71/112/2 70/111/2

v -0.00259808 0.0153 0.0219
vt 1.24798 20.2756
f 46/6/2 72/113/2 71/112/2

v -0.00289778 0.0145765 0.0219
vt 1.05133 19.8008
f 46/6/2 73/114/2 72/113/2

v -0.003 0.0138 0.0219
vt 0.984252 19.2913
f 46/6/2 74/115/2 73/114/2

f 46/6/2 51/87/2 74/115/2

usemtl Gray4
v -0.003 0.0138 0.0231
vt 0.393701 18.9978
vt -0.393701 18.9978
vt -0.393701 18.4839
vn -0.965926 -0.258819 -0
v -0.00289778 0.0130235 0.0231
vt 0.393701 18.4839
f 75/116/3 74/117/3 51/118/13 76/119/13 

v -0.00289778 0.0145765 0.0231
vt 0.393701 19.7687
vn -0.965926 0.258819 -0
vt -0.393701 19.7687
vt -0.393701 19.2548
vt 0.393701 19.2548
f 77/120/14 73/121/14 74/122/3 75/123/3 

v -0.00259808 0.0153 0.0231
vt 0.393701 19.2098
vn -0.866025 0.5 -0
vt -0.393701 19.2098
vt -0.393701 18.6959
vt 0.393701 18.6959
f 78/124/15 72/125/15 73/126/14 77/127/14 

v -0.00212132 0.0159213 0.0231
vt 0.393701 17.3593
vn -0.707107 0.707107 -0
vt -0.393701 17.3593
vt -0.393701 16.8454
vt 0.393701 16.8454
f 79/128/16 71/129/16 72/130/15 78/131/15 

v -0.0015 0.0163981 0.0231
vt 0.393701 14.3433
vn -0.5 0.866025 -0
vt -0.393701 14.3433
vt -0.393701 13.8295
vt 0.393701 13.8295
f 80/132/17 70/133/17 71/134/16 79/135/16 

v -0.000776457 0.0166978 0.0231
vt 0.393701 10.3674
vn -0.258819 0.965926 -0
vt -0.393701 10.3674
vt -0.393701 9.85353
vt 0.393701 9.85353
f 81/136/18 69/137/18 70/138/17 80/139/17 

v -9.86988e-018 0.0168 0.0231
vt 0.393701 5.70246
vt -0.393701 5.70246
vt -0.393701 5.18858
vt 0.393701 5.18858
f 82/140/4 68/141/4 69/142/18 81/143/18 

v 0.000776457 0.0166978 0.0231
vt -0.393701 -0.666411
vn 0.258819 0.965926 -0
v 0.000776457 0.0166978 0.0219
vt 0.393701 -0.666411
vt 0.393701 -0.152528
vt -0.393701 -0.152528
f 83/144/19 84/145/19 68/146/4 82/147/4 

v 0.0015 0.0163981 0.0231
vt -0.393701 4.39754
vn 0.5 0.866025 -0
v 0.0015 0.0163981 0.0219
vt 0.393701 4.39754
vt 0.393701 4.91143
vt -0.393701 4.91143
f 85/148/20 86/149/20 84/150/19 83/151/19 

v 0.00212132 0.0159213 0.0231
vt -0.393701 9.1443
vn 0.707107 0.707107 -0
v 0.00212132 0.0159213 0.0219
vt 0.393701 9.1443
vt 0.393701 9.65819
vt -0.393701 9.65819
f 87/152/21 88/153/21 86/154/20 85/155/20 

v 0.00259808 0.0153 0.0231
vt -0.393701 13.2504
vn 0.866025 0.5 -0
v 0.00259808 0.0153 0.0219
vt 0.393701 13.2504
vt 0.393701 13.7643
vt -0.393701 13.7643
f 89/156/22 90/157/22 88/158/21 87/159/21 

v 0.00289778 0.0145765 0.0231
vt -0.393701 16.436
vn 0.965926 0.258819 -0
v 0.00289778 0.0145765 0.0219
vt 0.393701 16.436
vt 0.393701 16.9498
vt -0.393701 16.9498
f 91/160/23 92/161/23 90/162/22 89/163/22 

v 0.003 0.0138 0.0231
vn 1 -4.75916e-016 -0
v 0.003 0.0138 0.0219
f 93/118/24 94/119/24 92/116/23 91/117/23 

v 0.00289778 0.0130235 0.0231
vn 0.965926 -0.258819 -0
f 95/122/25 62/123/25 94/120/24 93/121/24 

v 0.00259808 0.0123 0.0231
vn 0.866025 -0.5 -0
f 96/126/26 61/127/26 62/124/25 95/125/25 

v 0.00212132 0.0116787 0.0231
vn 0.707107 -0.707107 -0
f 97/130/27 60/131/27 61/128/26 96/129/26 

v 0.0015 0.0112019 0.0231
vn 0.5 -0.866025 -0
f 98/134/28 58/135/28 60/132/27 97/133/27 

v 0.000776457 0.0109022 0.0231
vn 0.258819 -0.965926 -0
f 99/138/29 57/139/29 58/136/28 98/137/28 

v -9.86988e-018 0.0108 0.0231
f 100/142/5 56/143/5 57/140/29 99/141/29 

v -0.000776457 0.0109022 0.0231
vn -0.258819 -0.965926 -0
f 101/146/30 55/147/30 56/144/5 100/145/5 

v -0.0015 0.0112019 0.0231
vn -0.5 -0.866025 -0
f 102/150/31 54/151/31 55/148/30 101/149/30 

v -0.00212132 0.0116787 0.0231
vn -0.707107 -0.707107 -0
f 103/154/32 53/155/32 54/152/31 102/153/31 

v -0.00259808 0.0123 0.0231
vn -0.866025 -0.5 -0
f 104/158/33 52/159/33 53/156/32 103/157/32 

f 76/162/13 51/163/13 52/160/33 104/161/33 

v -0.00206741 0.0126064 0.0231
vt 1.59619 18.5081
f 104/88/2 105/164/2 76/87/2

v -0.00168803 0.012112 0.0231
vt 1.84512 18.1837
f 104/88/2 106/165/2 105/164/2

v -0.00119362 0.0117326 0.0231
vt 2.16954 17.9348
f 104/88/2 107/166/2 106/165/2

f 103/89/2 107/166/2 104/88/2

v -0.000617862 0.0114941 0.0231
vt 2.54733 17.7783
f 103/89/2 108/167/2 107/166/2

v -9.86988e-018 0.0114128 0.0231
vt 2.95276 17.7249
f 103/89/2 109/168/2 108/167/2

f 103/89/2 98/94/2 109/168/2

f 102/90/2 98/94/2 103/89/2

f 101/91/2 98/94/2 102/90/2

f 101/91/2 99/93/2 98/94/2

f 99/93/2 101/91/2 100/92/2

f 97/96/2 109/168/2 98/94/2

v 0.000617862 0.0114941 0.0231
vt 3.35818 17.7783
f 109/168/2 97/96/2 110/169/2

v 0.00119362 0.0117326 0.0231
vt 3.73597 17.9348
f 110/169/2 97/96/2 111/170/2

f 111/170/2 97/96/2 96/97/2

v 0.00168803 0.012112 0.0231
vt 4.06039 18.1837
f 111/170/2 96/97/2 112/171/2

v 0.00206741 0.0126064 0.0231
vt 4.30932 18.5081
f 112/171/2 96/97/2 113/172/2

f 113/172/2 96/97/2 95/98/2

v 0.00230589 0.0131821 0.0231
vt 4.46581 18.8859
f 113/172/2 95/98/2 114/173/2

vt 4.92126 19.2913
f 114/173/2 95/98/2 93/174/2

v 0.00238724 0.0138 0.0231
vt 4.51918 19.2913
f 114/173/2 93/174/2 115/175/2

vt 4.85418 19.8008
f 115/175/2 93/174/2 91/176/2

v 0.00230589 0.0144179 0.0231
vt 4.46581 19.6968
f 115/175/2 91/176/2 116/177/2

v 0.00206741 0.0149936 0.0231
vt 4.30932 20.0746
f 116/177/2 91/176/2 117/178/2

vt 4.65753 20.2756
f 117/178/2 91/176/2 89/179/2

v 0.00168803 0.015488 0.0231
vt 4.06039 20.399
f 117/178/2 89/179/2 118/180/2

vt 4.3447 20.6833
f 118/180/2 89/179/2 87/181/2

v 0.00119362 0.0158674 0.0231
vt 3.73597 20.6479
f 118/180/2 87/181/2 119/182/2

v 0.000617862 0.0161059 0.0231
vt 3.35818 20.8044
f 119/182/2 87/181/2 120/183/2

vt 3.93701 20.9961
f 120/183/2 87/181/2 85/184/2

v -9.86988e-018 0.0161872 0.0231
vt 2.95276 20.8578
f 120/183/2 85/184/2 121/185/2

f 121/185/2 85/184/2 80/111/2

f 80/111/2 85/184/2 81/110/2

vt 3.46224 21.1928
f 81/110/2 85/184/2 83/186/2

f 81/110/2 83/186/2 82/109/2

v -0.000617862 0.0161059 0.0231
vt 2.54733 20.8044
f 80/111/2 122/187/2 121/185/2

f 79/112/2 122/187/2 80/111/2

v -0.00119362 0.0158674 0.0231
vt 2.16954 20.6479
f 79/112/2 123/188/2 122/187/2

v -0.00168803 0.015488 0.0231
vt 1.84512 20.399
f 79/112/2 124/189/2 123/188/2

f 78/113/2 124/189/2 79/112/2

v -0.00206741 0.0149936 0.0231
vt 1.59619 20.0746
f 78/113/2 125/190/2 124/189/2

f 77/114/2 125/190/2 78/113/2

v -0.00230589 0.0144179 0.0231
vt 1.4397 19.6968
f 77/114/2 126/191/2 125/190/2

f 75/115/2 126/191/2 77/114/2

v -0.00238724 0.0138 0.0231
vt 1.38633 19.2913
f 75/115/2 127/192/2 126/191/2

v -0.00230589 0.0131821 0.0231
vt 1.4397 18.8859
f 75/115/2 128/193/2 127/192/2

f 76/87/2 128/193/2 75/115/2

f 76/87/2 105/164/2 128/193/2

v -0.00206741 0.0126064 0.0219
vt 0.393701 16.4884
v -0.00230589 0.0131821 0.0219
vt 0.393701 16.8974
vt -0.393701 16.8974
vt -0.393701 16.4884
f 129/194/22 130/195/23 128/196/23 105/197/22 

usemtl Gray8
v -0.00206741 0.0149936 0.0219
v -0.00230589 0.0144179 0.0219
v -0.00238724 0.0138 0.0219
v -0.00168803 0.012112 0.0219
v -0.00119362 0.0117326 0.0219
v -0.000617862 0.0114941 0.0219
v -9.86988e-018 0.0114128 0.0219
v 0.000617862 0.0114941 0.0219
v 0.00119362 0.0117326 0.0219
v 0.00168803 0.012112 0.0219
v 0.00206741 0.0126064 0.0219
v 0.00230589 0.0131821 0.0219
v 0.00238724 0.0138 0.0219
v 0.00230589 0.0144179 0.0219
v 0.00206741 0.0149936 0.0219
v 0.00168803 0.015488 0.0219
v 0.00119362 0.0158674 0.0219
v 0.000617862 0.0161059 0.0219
v -9.86988e-018 0.0161872 0.0219
v -0.000617862 0.0161059 0.0219
v -0.00119362 0.0158674 0.0219
v -0.00168803 0.015488 0.0219
f 131/190/2 132/191/2 133/192/2 130/193/2 129/164/2 134/165/2 135/166/2 136/167/2 137/168/2 138/169/2 139/170/2 140/171/2 141/172/2 142/173/2 143/175/2 144/177/2 145/178/2 146/180/2 147/182/2 148/183/2 149/185/2 150/187/2 151/188/2 152/189/2 

usemtl Gray4
vt 0.393701 18.7484
vt 0.393701 19.1573
vt -0.393701 19.1573
vt -0.393701 18.7484
f 132/198/25 131/199/26 125/200/26 126/201/25 

vt 0.393701 16.8979
vt 0.393701 17.3068
vt -0.393701 17.3068
vt -0.393701 16.8979
f 131/202/26 152/203/27 124/204/27 125/205/26 

vt 0.393701 13.8819
vt 0.393701 14.2909
vt -0.393701 14.2909
vt -0.393701 13.8819
f 152/206/27 151/207/28 123/208/28 124/209/27 

vt 0.393701 9.90601
vt 0.393701 10.3149
vt -0.393701 10.3149
vt -0.393701 9.90601
f 151/210/28 150/211/29 122/212/29 123/213/28 

vt 0.393701 5.24106
vt 0.393701 5.64998
vt -0.393701 5.64998
vt -0.393701 5.24106
f 150/214/29 149/215/5 121/216/5 122/217/29 

vt -0.393701 -0.20501
vt -0.393701 -0.613929
vt 0.393701 -0.613929
vt 0.393701 -0.20501
f 149/218/5 148/219/30 120/220/30 121/221/5 

vt -0.393701 4.85894
vt -0.393701 4.45003
vt 0.393701 4.45003
vt 0.393701 4.85894
f 148/222/30 147/223/31 119/224/31 120/225/30 

vt -0.393701 9.6057
vt -0.393701 9.19678
vt 0.393701 9.19678
vt 0.393701 9.6057
f 147/226/31 146/227/32 118/228/32 119/229/31 

vt -0.393701 13.7118
vt -0.393701 13.3029
vt 0.393701 13.3029
vt 0.393701 13.7118
f 146/230/32 145/231/33 117/232/33 118/233/32 

f 145/196/33 144/197/13 116/194/13 117/195/33 

vt -0.393701 18.9453
vt -0.393701 18.5364
vn -1 1.1338e-015 -0
vt 0.393701 18.5364
vt 0.393701 18.9453
f 144/234/13 143/235/34 115/236/34 116/237/13 

vt -0.393701 19.7162
vt -0.393701 19.3073
vt 0.393701 19.3073
vt 0.393701 19.7162
f 143/238/34 142/239/14 114/240/14 115/241/34 

f 142/200/14 141/201/15 113/198/15 114/199/14 

f 141/204/15 140/205/16 112/202/16 113/203/15 

f 140/208/16 139/209/17 111/206/17 112/207/16 

f 139/212/17 138/213/18 110/210/18 111/211/17 

f 138/216/18 137/217/4 109/214/4 110/215/18 

f 137/220/4 136/221/19 108/218/19 109/219/4 

f 136/224/19 135/225/20 107/222/20 108/223/19 

f 135/228/20 134/229/21 106/226/21 107/227/20 

f 134/232/21 129/233/22 105/230/22 106/231/21 

vn 1 -5.87897e-016 -0
f 133/240/35 132/241/25 126/238/25 127/239/35 

f 130/236/23 133/237/35 127/234/35 128/235/23 

usemtl Gray6
f 62/98/2 63/7/2 94/174/2

f 94/174/2 63/7/2 92/176/2

f 92/176/2 63/7/2 90/179/2

f 90/179/2 63/7/2 88/181/2

f 88/181/2 63/7/2 86/184/2

f 86/184/2 63/7/2 84/186/2

f 84/186/2 63/7/2 68/109/2

v 0.0015 0.0162 -0.0195
vt -3.93701 20.8661
f 64/44/7 153/242/7 47/39/7

v 0.0015 0.012 -0.0195
vt -3.93701 18.1102
f 64/44/7 154/243/7 153/242/7

vt -5.51181 14.9606
f 67/244/7 154/243/7 64/44/7

v -0.0015 0.012 -0.0195
vt -1.9685 18.1102
f 154/243/7 67/244/7 155/245/7

f 48/79/7 155/245/7 67/244/7

f 155/245/7 48/79/7 47/39/7

v -0.0015 0.0162 -0.0195
vt -1.9685 20.8661
f 155/245/7 47/39/7 156/246/7

f 156/246/7 47/39/7 153/242/7

usemtl Gray4
v -0.0015 0.0162 -0.0213
vt 1.9685 28.7402
vt 1.9685 27.5591
vt 3.93701 27.5591
v 0.0015 0.0162 -0.0213
vt 3.93701 28.7402
f 157/247/4 156/248/4 153/249/4 158/250/4 

vt -27.5591 20.8661
vt -28.7402 20.8661
v -0.0015 0.0138 -0.0213
vt -28.7402 19.2913
vt -27.5591 18.1102
f 156/251/3 157/252/3 159/253/3 155/254/3 

vt -1.9685 19.2913
v 0.0015 0.0138 -0.0213
vt -3.93701 19.2913
f 159/255/7 157/246/7 158/242/7 160/256/7 

vt 27.5591 18.1102
vt 28.7402 19.2913
vt 28.7402 20.8661
vt 27.5591 20.8661
f 154/257/1 160/258/1 158/259/1 153/260/1 

vt -1.9685 32.2931
vn 0 -0.707107 -0.707107
vt -1.9685 33.9634
vt -3.93701 33.9634
vt -3.93701 32.2931
f 155/261/36 159/262/36 160/263/36 154/264/36 

usemtl Gray6
f 155/245/7 156/246/7 153/242/7 154/243/7 

usemtl Gray4
vt -5.51181 25.5906
vt -0.393701 25.5906
vt -0.393701 27.5591
vt -5.51181 27.5591
f 66/265/5 49/266/5 48/267/5 67/268/5 

usemtl Gray6
vt -5.51181 -7.51457
vn 0 0.254493 -0.967075
vt -0.393701 -7.51457
vt -0.393701 7.95542
vt -5.51181 7.95542
f 34/269/37 33/270/37 49/271/37 66/272/37 

v 0.0024 0.0072 0.00335799
vt -4.52756 12.5604
vt -5.51181 17.7165
f 59/32/5 161/273/5 65/274/5

v -0.0024 0.0072 0.00335799
vt -1.37795 12.5604
f 59/32/5 162/275/5 161/273/5

f 45/33/5 162/275/5 59/32/5

vt -0.393701 17.7165
f 162/275/5 45/33/5 50/276/5

v -0.0024 0.0072 0.00155799
vt -1.37795 13.7415
f 162/275/5 50/276/5 163/277/5

f 65/274/5 163/277/5 50/276/5

v 0.0024 0.0072 0.00155799
vt -4.52756 13.7415
f 163/277/5 65/274/5 164/278/5

f 164/278/5 65/274/5 161/273/5

usemtl Gray4
vt 13.7415 14.9606
vt 12.5604 14.9606
v 0.0024 -2.81997e-017 0.00335799
vt 12.5604 10.2362
v 0.0024 -2.81997e-017 -0.00639474
vt 18.9598 10.2362
v 0.0024 0.0018 -0.00592105
vt 18.649 11.4173
v 0.0024 0.0018 0.00155799
vt 13.7415 11.4173
f 164/279/1 161/280/1 165/281/1 166/282/1 167/283/1 168/284/1 

vt 4.52756 14.9606
vt 1.37795 14.9606
v -0.0024 -2.81997e-017 0.00335799
vt 1.37795 10.2362
vt 4.52756 10.2362
f 161/285/2 162/286/2 169/287/2 165/288/2 

vt -12.5604 14.9606
vt -13.7415 14.9606
v -0.0024 0.0018 0.00155799
vt -13.7415 11.4173
v -0.0024 0.0018 -0.00592105
vt -18.649 11.4173
v -0.0024 -2.81997e-017 -0.00639474
vt -18.9598 10.2362
vt -12.5604 10.2362
f 162/289/3 163/290/3 170/291/3 171/292/3 172/293/3 169/294/3 

vt -4.52756 14.9606
vt -4.52756 11.4173
vt -1.37795 11.4173
vt -1.37795 14.9606
f 164/295/7 168/296/7 170/297/7 163/298/7 

vt 1.37795 13.7415
vt 4.52756 13.7415
vt 4.52756 18.649
vt 1.37795 18.649
f 170/299/4 168/300/4 167/301/4 171/302/4 

usemtl Gray6
vt 1.37795 6.29536
vn 0 -0.254493 0.967075
vt 1.37795 5.07405
vt 4.52756 5.07405
vt 4.52756 6.29536
f 171/303/38 172/304/38 166/305/38 167/306/38 

vt 0.393701 9.9593
vn -1.49111e-029 -0.254493 0.967075
f 50/307/39 172/304/39 171/303/39

vt 0.393701 -5.51068
f 36/308/39 172/304/39 50/307/39

f 172/304/39 36/308/39 166/305/39

vt 5.51181 -5.51068
f 35/309/39 166/305/39 36/308/39

vt 5.51181 9.9593
f 166/305/39 35/309/39 65/310/39

f 166/305/39 65/310/39 167/306/39

f 167/306/39 65/310/39 171/303/39

f 50/307/39 171/303/39 65/310/39

usemtl Gray4
vt -1.37795 18.9598
vt -4.52756 18.9598
f 169/275/5 172/311/5 166/312/5 165/273/5 

usemtl Gray6
f 37/63/4 34/65/4 35/7/4

vt 1.42109e-014 0
vt 1.42109e-014 -1.5748
vt 5.90551 -1.5748
f 43/23/2 39/313/2 41/314/2 44/315/2 

vt -5.90551 21.2598
vt -1.42109e-014 21.2598
vt -5.90551 29.9213
f 44/316/5 41/317/5 40/66/5 42/318/5 

